<svg width="206" height="41" viewBox="0 0 206 41" fill="none" xmlns="http://www.w3.org/2000/svg">
<path d="M30.456 8.71224C30.9634 8.71224 31.0957 8.95922 31.0957 9.40836V22.2307C31.0957 23.9822 32.2865 25.6214 34.933 25.6214H40.954V11.0252C40.954 9.40836 41.748 8.71224 43.0711 8.71224H46.4015C47.0191 8.71224 47.3277 8.93681 47.3277 9.40836V28.7652C47.3277 30.3595 46.2692 31.0332 44.9238 31.0332H34.3376C27.3244 31.0332 24.7218 28.1141 24.7218 22.5001V11.0252C24.7218 9.40836 25.8246 8.71224 27.0816 8.71224H30.456Z" fill="white"/>
<path d="M57.1235 25.6071H63.0341C66.5408 25.6071 67.0702 22.4858 67.0702 19.9259C67.0702 17.2311 66.5408 14.1097 63.0341 14.1097H57.1235V25.6071ZM57.1235 31.0413V38.7212C57.1235 40.2482 56.1973 40.9219 54.6092 40.9219H51.3012C50.8599 40.9219 50.6394 40.6973 50.6394 40.2482V11.0332C50.6394 9.41644 51.5658 8.72033 52.8669 8.72033H63.784C69.7829 8.72033 73.5541 11.6621 73.5541 19.791C73.5541 28.0773 69.0992 31.0413 63.784 31.0413H57.1235Z" fill="white"/>
<path d="M88.3833 17.1331C90.1255 16.684 90.28 15.696 90.28 15.2469C90.28 14.7754 89.6846 14.1241 88.8904 14.1241H85.7148C83.9944 14.1241 82.0536 15.0448 82.0536 18.6376L88.3833 17.1331ZM85.0529 31.0332C79.3629 31.0332 75.7682 28.069 75.7682 19.8277C75.7682 14.371 77.6207 11.2273 80.4437 9.79004C81.8331 9.07151 83.3768 8.71224 85.0529 8.71224H88.8904C93.7425 8.71224 96.3891 11.6765 96.3891 15.4488C96.3891 18.8398 94.3821 20.771 90.4123 21.5794L82.3845 23.3533C82.9799 24.9477 84.2372 25.6214 85.7148 25.6214H94.9115C95.2864 25.6214 95.5952 26.0481 95.5952 26.5645V28.7652C95.5952 30.0901 94.9115 31.0332 93.3234 31.0332H85.0529Z" fill="white"/>
<path d="M111.197 17.1331C112.939 16.684 113.094 15.696 113.094 15.2469C113.094 14.7754 112.498 14.1241 111.704 14.1241H108.528C106.808 14.1241 104.867 15.0448 104.867 18.6376L111.197 17.1331ZM107.867 31.0332C102.177 31.0332 98.5818 28.069 98.5818 19.8277C98.5818 14.371 100.434 11.2273 103.257 9.79004C104.647 9.07151 106.19 8.71224 107.867 8.71224H111.704C116.556 8.71224 119.203 11.6765 119.203 15.4488C119.203 18.8398 117.196 20.771 113.226 21.5794L105.198 23.3533C105.793 24.9477 107.051 25.6214 108.528 25.6214H117.725C118.1 25.6214 118.409 26.0481 118.409 26.5645V28.7652C118.409 30.0901 117.725 31.0332 116.137 31.0332H107.867Z" fill="white"/>
<path d="M18.5806 5.43794C17.1487 1.53194 13.9771 0 9.68139 0H2.40432C0.705267 0 0 0.920467 0 2.26961V4.4696C0 4.98532 0.307754 5.41182 0.683896 5.41182L18.5806 5.43794Z" fill="white"/>
<path d="M9.50478 31.3016C9.94718 31.9979 10.2998 32.246 10.9837 32.246H15.7026C16.3865 32.246 16.7626 31.9283 16.7626 31.4583C16.7626 31.2124 16.6301 30.8751 16.3651 30.4943L10.8298 22.2841C14.1424 21.9947 16.9977 20.4061 18.4339 16.8918L2.55256 16.9201C0.877022 16.9201 0.169618 17.8406 0.169618 19.1876V21.3875C0.169618 21.9054 0.458136 22.3319 0.877022 22.3319L3.49292 22.3343L9.50478 31.3016Z" fill="white"/>
<path d="M22.4818 9.48315V11.6831C22.4818 12.9561 21.8727 13.8788 20.3959 13.9484C20.3361 13.9506 20.2741 13.9527 20.2121 13.9527H7.77377C7.71179 13.9527 7.64981 13.9506 7.58997 13.9484C6.11319 13.8788 5.50409 12.9561 5.50409 11.6831V9.48315C5.50409 8.96742 5.74559 8.54092 6.16448 8.54092H21.8214C22.2403 8.54092 22.4818 8.96742 22.4818 9.48315Z" fill="white"/>
<path d="M146.479 28.1815C146.479 29.0789 146.32 29.7447 146.001 30.1789C145.683 30.6131 145.176 31.0329 144.482 31.4382C144.076 31.6697 143.57 31.9013 142.962 32.1329C142.354 32.3355 141.688 32.5092 140.965 32.654C140.241 32.8277 139.474 32.9579 138.663 33.0448C137.882 33.1316 137.1 33.175 136.318 33.175C134.234 33.175 132.28 32.9 130.456 32.35C128.633 31.7711 127.04 30.9171 125.68 29.7881C124.348 28.6302 123.292 27.1973 122.51 25.4893C121.729 23.7814 121.338 21.7984 121.338 19.5405C121.338 17.1667 121.757 15.097 122.597 13.3311C123.465 11.5653 124.594 10.1034 125.984 8.94549C127.402 7.75862 129.009 6.8757 130.804 6.29674C132.627 5.71778 134.495 5.4283 136.405 5.4283C139.155 5.4283 141.326 5.87699 142.919 6.77439C144.54 7.64283 145.35 8.78628 145.35 10.2047C145.35 10.9574 145.162 11.6087 144.786 12.1587C144.409 12.7087 143.975 13.143 143.483 13.4614C142.759 13.0272 141.847 12.6074 140.747 12.2022C139.676 11.7679 138.46 11.5508 137.1 11.5508C134.668 11.5508 132.729 12.2456 131.281 13.6351C129.863 15.0246 129.154 16.9496 129.154 19.4102C129.154 20.7418 129.342 21.8998 129.718 22.884C130.123 23.8393 130.659 24.6354 131.325 25.2722C131.991 25.8801 132.758 26.3433 133.626 26.6617C134.495 26.9512 135.421 27.0959 136.405 27.0959C137.042 27.0959 137.607 27.038 138.099 26.9223C138.591 26.8065 138.967 26.6762 139.228 26.5315V22.4498H134.581C134.408 22.1313 134.234 21.7116 134.06 21.1905C133.916 20.6695 133.843 20.1195 133.843 19.5405C133.843 18.4984 134.075 17.7457 134.538 17.2825C135.03 16.8194 135.653 16.5878 136.405 16.5878H143.744C144.612 16.5878 145.278 16.8338 145.741 17.326C146.233 17.7891 146.479 18.4549 146.479 19.3234V28.1815Z" fill="white"/>
<path d="M157.984 27.7907C158.476 27.7907 159.011 27.7473 159.59 27.6604C160.198 27.5446 160.647 27.3999 160.936 27.2262V23.7524L157.81 24.013C156.999 24.0709 156.334 24.2446 155.812 24.534C155.291 24.8235 155.031 25.2577 155.031 25.8367C155.031 26.4157 155.248 26.8933 155.682 27.2696C156.145 27.617 156.913 27.7907 157.984 27.7907ZM157.636 10.7258C159.199 10.7258 160.618 10.885 161.892 11.2034C163.194 11.5219 164.294 12.014 165.192 12.6798C166.118 13.3167 166.827 14.1417 167.319 15.1549C167.811 16.1391 168.058 17.3115 168.058 18.672V28.3986C168.058 29.1513 167.84 29.7736 167.406 30.2658C167.001 30.7289 166.509 31.1342 165.93 31.4816C164.048 32.6106 161.399 33.175 157.984 33.175C156.449 33.175 155.06 33.0303 153.815 32.7408C152.599 32.4513 151.543 32.0171 150.645 31.4382C149.777 30.8592 149.097 30.121 148.604 29.2236C148.141 28.3262 147.91 27.2841 147.91 26.0972C147.91 24.0998 148.503 22.5656 149.69 21.4945C150.877 20.4234 152.715 19.7576 155.205 19.4971L160.893 18.8892V18.5852C160.893 17.7457 160.517 17.1523 159.764 16.8049C159.04 16.4286 157.984 16.2404 156.594 16.2404C155.494 16.2404 154.423 16.3562 153.381 16.5878C152.339 16.8194 151.398 17.1089 150.558 17.4562C150.182 17.1957 149.864 16.8049 149.603 16.2838C149.343 15.7338 149.212 15.1693 149.212 14.5904C149.212 13.8377 149.386 13.2443 149.733 12.8101C150.11 12.3469 150.674 11.9561 151.427 11.6377C152.266 11.3192 153.251 11.0876 154.38 10.9429C155.537 10.7982 156.623 10.7258 157.636 10.7258Z" fill="white"/>
<path d="M177.782 25.2288C177.782 25.9814 178.013 26.517 178.476 26.8354C178.969 27.1538 179.649 27.3131 180.517 27.3131C180.952 27.3131 181.4 27.2841 181.863 27.2262C182.327 27.1394 182.732 27.038 183.079 26.9223C183.34 27.2407 183.557 27.6025 183.731 28.0078C183.933 28.3841 184.035 28.8473 184.035 29.3973C184.035 30.4973 183.615 31.3947 182.775 32.0895C181.965 32.7842 180.517 33.1316 178.433 33.1316C175.886 33.1316 173.917 32.5527 172.528 31.3947C171.167 30.2368 170.487 28.3552 170.487 25.7499V7.16518C170.805 7.07834 171.254 6.9915 171.833 6.90465C172.441 6.78886 173.078 6.73096 173.743 6.73096C175.017 6.73096 176.001 6.96255 176.696 7.42572C177.42 7.85994 177.782 8.80075 177.782 10.2482V13.0272H183.47C183.644 13.3456 183.803 13.7509 183.948 14.243C184.121 14.7062 184.208 15.2272 184.208 15.8062C184.208 16.8194 183.977 17.5575 183.513 18.0207C183.079 18.4549 182.486 18.672 181.733 18.672H177.782V25.2288Z" fill="white"/>
<path d="M196.52 33.175C194.812 33.175 193.22 32.9435 191.743 32.4803C190.296 31.9882 189.022 31.2645 187.922 30.3092C186.851 29.3539 185.997 28.1525 185.36 26.7051C184.752 25.2577 184.448 23.5643 184.448 21.6248C184.448 19.7142 184.752 18.0786 185.36 16.7181C185.997 15.3285 186.822 14.1996 187.835 13.3311C188.848 12.4337 190.006 11.7824 191.309 11.3771C192.612 10.9429 193.943 10.7258 195.304 10.7258C196.838 10.7258 198.228 10.9574 199.472 11.4206C200.746 11.8837 201.832 12.5206 202.729 13.3311C203.655 14.1417 204.365 15.1114 204.857 16.2404C205.378 17.3694 205.638 18.5997 205.638 19.9313C205.638 20.9155 205.363 21.6682 204.813 22.1892C204.263 22.7103 203.496 23.0432 202.512 23.1879L191.787 24.7946C192.105 25.7499 192.756 26.4736 193.741 26.9657C194.725 27.4288 195.854 27.6604 197.128 27.6604C198.314 27.6604 199.429 27.5157 200.471 27.2262C201.542 26.9078 202.411 26.5459 203.076 26.1407C203.54 26.4301 203.93 26.8354 204.249 27.3565C204.567 27.8775 204.727 28.4276 204.727 29.0065C204.727 30.3092 204.119 31.2789 202.903 31.9158C201.976 32.4079 200.934 32.7408 199.776 32.9145C198.618 33.0882 197.533 33.175 196.52 33.175ZM195.304 16.1101C194.609 16.1101 194.001 16.2259 193.48 16.4575C192.988 16.6891 192.583 16.9931 192.264 17.3694C191.946 17.7168 191.7 18.122 191.526 18.5852C191.381 19.0194 191.295 19.4681 191.266 19.9313L198.691 18.7155C198.604 18.1365 198.286 17.5575 197.736 16.9786C197.186 16.3996 196.375 16.1101 195.304 16.1101Z" fill="white"/>
</svg>
