<svg width="366" height="56" viewBox="0 0 366 56" fill="none" xmlns="http://www.w3.org/2000/svg">
<path d="M7.76586 55.5156C3.02193 55.5156 0 53.18 0 46.726C0 40.1471 3.54888 37.7937 7.76586 37.7937H14.7763C15.11 37.7937 15.3385 38.1325 15.3385 38.5424V40.2897C15.3385 41.3594 14.7763 42.0904 13.4409 42.0904H8.41574C5.60476 42.0904 5.16549 44.5508 5.16549 46.6011C5.16549 48.7585 5.60476 51.2189 8.41574 51.2189H14.9345C15.2329 51.2189 15.4791 51.5577 15.4791 51.9676V53.7149C15.4791 54.7846 14.9167 55.5156 13.5639 55.5156H7.76586Z" fill="white"/>
<path d="M28.9474 51.2189V48.0275L23.6061 49.115C22.5695 49.3291 22.1478 49.6499 22.1478 50.2918C22.1478 50.9158 22.5871 51.2189 23.4656 51.2189H28.9474ZM23.4656 55.5156C18.7041 55.5156 16.7891 53.2157 16.7891 50.2562C16.7891 47.4748 18.4053 45.8167 21.7261 45.1035L28.9474 43.7129V42.8394C28.9474 42.3401 28.5255 42.0904 27.6647 42.0904H18.5635C18.0892 42.0904 17.8431 41.8408 17.8431 41.3239V39.63C17.8431 38.5602 18.3703 37.7937 19.6353 37.7937H27.823C30.5463 37.7937 32.4263 38.6674 33.4453 40.4324C33.9197 41.2525 34.148 42.1618 34.148 43.178V53.6793C34.148 54.9094 33.5507 55.5156 32.3383 55.5156H23.4656Z" fill="white"/>
<path d="M37.1949 55.5156C36.8259 55.5156 36.6502 55.3373 36.6502 54.9629V53.1622C36.6502 51.9676 37.1949 51.2189 38.4774 51.2189H46.5068C47.4732 51.2189 47.7896 50.9156 47.7896 50.4701C47.7896 49.9174 47.4557 49.6142 46.4015 49.3825L41.2358 48.2236C37.9855 47.5283 36.3516 45.8345 36.3516 43.178C36.3516 40.1471 38.4774 37.7937 42.501 37.7937H51.5143C52.0062 37.7937 52.2524 37.972 52.2524 38.3286V40.1471C52.2524 41.3417 51.7076 42.0904 50.4426 42.0904H42.501C41.6575 42.0904 41.4292 42.4113 41.4292 42.8392C41.4292 43.285 41.7806 43.6951 42.8172 43.9268L48.0179 45.0857C51.2683 45.7989 52.8495 47.457 52.8495 50.3631C52.8495 53.1622 50.9872 55.5156 46.2082 55.5156H37.1949Z" fill="white"/>
<path d="M55.043 31.6961C55.043 30.4836 55.781 29.9489 57.0461 29.9489H59.6815C59.9801 29.9489 60.1208 30.1272 60.1208 30.4836V37.7935H65.3917C70.9791 37.7935 73.0521 40.1114 73.0521 44.5686V53.6793C73.0521 54.9628 72.1736 55.5156 71.1721 55.5156H68.4839C68.0799 55.5156 67.9745 55.3194 67.9745 54.9628V44.7825C67.9745 43.3919 67.0258 42.0904 64.9173 42.0904H60.1208V53.6793C60.1208 54.9628 59.4881 55.5156 58.434 55.5156H55.781C55.289 55.5156 55.043 55.3373 55.043 54.9628V31.6961Z" fill="white"/>
<path d="M82.0172 51.5492H86.7259C89.5195 51.5492 89.9413 49.071 89.9413 46.9314C89.9413 44.8989 89.5195 42.4207 86.7259 42.4207H82.0172V51.5492ZM77.5896 55.8281C77.0976 55.8281 76.8516 55.6498 76.8516 55.2754V32.0086C76.8516 30.7963 77.5896 30.2614 78.8547 30.2614H81.4901C81.8415 30.2614 82.0172 30.4397 82.0172 30.7963V38.1062H87.3234C91.5577 38.1062 95.1068 40.4596 95.1068 47.0385C95.1068 53.4926 92.1024 55.8281 87.3234 55.8281H77.5896Z" fill="white"/>
<path d="M109.026 51.7032V48.5118L103.684 49.5994C102.648 49.8135 102.226 50.1343 102.226 50.7762C102.226 51.4002 102.665 51.7032 103.544 51.7032H109.026ZM103.544 56C98.7823 56 96.8672 53.7001 96.8672 50.7406C96.8672 47.9592 98.4835 46.3011 101.804 45.5879L109.026 44.1973V43.3238C109.026 42.8245 108.604 42.5748 107.743 42.5748H98.6416C98.1673 42.5748 97.9213 42.3252 97.9213 41.8082V40.1144C97.9213 39.0446 98.4484 38.278 99.7134 38.278H107.901C110.624 38.278 112.504 39.1517 113.523 40.9167C113.998 41.7369 114.226 42.6462 114.226 43.6624V54.1636C114.226 55.3938 113.629 56 112.416 56H103.544Z" fill="white"/>
<path d="M124.184 55.8281C119.44 55.8281 116.418 53.4925 116.418 47.0385C116.418 40.4596 119.967 38.1062 124.184 38.1062H131.194C131.528 38.1062 131.756 38.445 131.756 38.8549V40.6022C131.756 41.6719 131.194 42.4029 129.859 42.4029H124.834C122.023 42.4029 121.583 44.8633 121.583 46.9136C121.583 49.071 122.023 51.5314 124.834 51.5314H131.352C131.651 51.5314 131.897 51.8702 131.897 52.2801V54.0274C131.897 55.0971 131.335 55.8281 129.982 55.8281H124.184Z" fill="white"/>
<path d="M151.349 38.1062C151.789 38.1062 151.999 38.2667 151.999 38.5877C151.999 38.7302 151.911 38.9085 151.718 39.1046L145.112 46.254L150.646 54.4375C150.857 54.7405 150.963 55.008 150.963 55.2041C150.963 55.5785 150.664 55.8281 150.119 55.8281H146.359C145.815 55.8281 145.534 55.632 145.182 55.0793L139.156 46.147L145.92 38.7124C146.272 38.3023 146.482 38.1062 147.062 38.1062H151.349ZM134.219 55.8281C133.85 55.8281 133.656 55.6498 133.656 55.2754V32.0088C133.656 30.7963 134.394 30.2614 135.659 30.2614H138.295C138.646 30.2614 138.822 30.4397 138.822 30.7963V53.9918C138.822 55.2754 138.084 55.8281 137.047 55.8281H134.219Z" fill="white"/>
<path d="M34.3136 6.91654C33.2595 6.91654 32.6268 7.46923 32.6268 8.7529V20.3417H27.8303C25.722 20.3417 24.7733 19.0403 24.7733 17.6495V7.46923C24.7733 7.11263 24.6677 6.91654 24.2635 6.91654H21.5755C20.5738 6.91654 19.6953 7.46923 19.6953 8.7529V17.8635C19.6953 22.3206 21.7687 24.6387 27.3558 24.6387H35.7896C36.8614 24.6387 37.7046 24.1038 37.7046 22.8379V7.46923C37.7046 7.09484 37.4586 6.91654 36.9667 6.91654H34.3136Z" fill="white"/>
<mask id="mask0_4956_9657" style="mask-type:luminance" maskUnits="userSpaceOnUse" x="19" y="6" width="19" height="19">
<path d="M34.3175 6.91654C33.2634 6.91654 32.6307 7.46923 32.6307 8.7529V20.3417H27.8342C25.7259 20.3417 24.7772 19.0403 24.7772 17.6495V7.46923C24.7772 7.11263 24.6716 6.91654 24.2674 6.91654H21.5794C20.5778 6.91654 19.6992 7.46923 19.6992 8.7529V17.8635C19.6992 22.3206 21.7726 24.6387 27.3597 24.6387H35.7935C36.8653 24.6387 37.7086 24.1038 37.7086 22.8379V7.46923C37.7086 7.09484 37.4625 6.91654 36.9706 6.91654H34.3175Z" fill="white"/>
</mask>
<g mask="url(#mask0_4956_9657)">
<path d="M-39.2367 194.589L204.082 178.129L186.412 -90.8251L-56.9065 -74.3647L-39.2367 194.589Z" fill="white"/>
</g>
<path d="M42.1105 6.91767C41.0738 6.91767 40.3359 7.47035 40.3359 8.75402V31.9495C40.3359 32.3061 40.5116 32.4844 40.8631 32.4844H43.4985C44.7635 32.4844 45.5016 31.9495 45.5016 30.7372V24.6398H50.8077C55.0419 24.6398 58.5909 22.2862 58.5909 15.7073C58.5909 9.25333 55.5867 6.91767 50.8077 6.91767H42.1105ZM45.5016 11.1966H50.2103C53.0039 11.1966 53.4255 13.6748 53.4255 15.8142C53.4255 17.8469 53.0039 20.3251 50.2103 20.3251H45.5016V11.1966Z" fill="white"/>
<mask id="mask1_4956_9657" style="mask-type:luminance" maskUnits="userSpaceOnUse" x="40" y="6" width="19" height="27">
<path d="M42.1184 6.91767C41.0816 6.91767 40.3438 7.47035 40.3438 8.75402V31.9495C40.3438 32.3061 40.5195 32.4844 40.8709 32.4844H43.5063C44.7713 32.4844 45.5094 31.9495 45.5094 30.7372V24.6398H50.8155C55.0497 24.6398 58.5988 22.2862 58.5988 15.7073C58.5988 9.25333 55.5945 6.91767 50.8155 6.91767H42.1184ZM45.5094 11.1966H50.2181C53.0117 11.1966 53.4333 13.6748 53.4333 15.8142C53.4333 17.8469 53.0117 20.3251 50.2181 20.3251H45.5094V11.1966Z" fill="white"/>
</mask>
<g mask="url(#mask1_4956_9657)">
<path d="M-39.2367 194.591L204.082 178.131L186.412 -90.8231L-56.9065 -74.3627L-39.2367 194.591Z" fill="white"/>
</g>
<path d="M67.7444 6.91654C66.409 6.91654 65.1791 7.20195 64.0724 7.77244C61.8235 8.91341 60.3477 11.4096 60.3477 15.7418C60.3477 22.285 63.2114 24.6387 67.7444 24.6387H74.3332C75.5983 24.6387 76.1429 23.8897 76.1429 22.8379V21.0905C76.1429 20.6805 75.8969 20.3417 75.5983 20.3417H68.2715C67.0945 20.3417 66.0929 19.8068 65.6185 18.541L72.014 17.1325C75.1765 16.4907 76.7754 14.9574 76.7754 12.2651C76.7754 9.27001 74.667 6.91654 70.8016 6.91654H67.7444ZM68.2715 11.2135H70.8016C71.4342 11.2135 71.9086 11.7304 71.9086 12.1046C71.9086 12.4614 71.7855 13.2459 70.3975 13.6024L65.355 14.7969C65.355 11.9445 66.9011 11.2135 68.2715 11.2135Z" fill="white"/>
<mask id="mask2_4956_9657" style="mask-type:luminance" maskUnits="userSpaceOnUse" x="60" y="6" width="17" height="19">
<path d="M67.7405 6.91654C66.4051 6.91654 65.1752 7.20195 64.0685 7.77244C61.8195 8.91341 60.3438 11.4096 60.3438 15.7418C60.3438 22.285 63.2075 24.6387 67.7405 24.6387H74.3293C75.5944 24.6387 76.139 23.8897 76.139 22.8379V21.0905C76.139 20.6805 75.893 20.3417 75.5944 20.3417H68.2676C67.0906 20.3417 66.089 19.8068 65.6146 18.541L72.0101 17.1325C75.1726 16.4907 76.7715 14.9574 76.7715 12.2651C76.7715 9.27001 74.663 6.91654 70.7977 6.91654H67.7405ZM68.2676 11.2135H70.7977C71.4303 11.2135 71.9047 11.7304 71.9047 12.1046C71.9047 12.4614 71.7816 13.2459 70.3936 13.6024L65.3511 14.7969C65.3511 11.9445 66.8972 11.2135 68.2676 11.2135Z" fill="white"/>
</mask>
<g mask="url(#mask2_4956_9657)">
<path d="M-39.2367 194.589L204.082 178.129L186.412 -90.8251L-56.9065 -74.3647L-39.2367 194.589Z" fill="white"/>
</g>
<path d="M85.9243 6.91654C84.5889 6.91654 83.3591 7.20195 82.2521 7.77244C80.0033 8.91341 78.5273 11.4096 78.5273 15.7418C78.5273 22.285 81.3913 24.6387 85.9243 24.6387H92.5129C93.778 24.6387 94.3228 23.8897 94.3228 22.8379V21.0905C94.3228 20.6805 94.0768 20.3417 93.778 20.3417H86.4515C85.2742 20.3417 84.2727 19.8068 83.7982 18.541L90.1938 17.1325C93.3566 16.4907 94.9553 14.9574 94.9553 12.2651C94.9553 9.27001 92.8468 6.91654 88.9814 6.91654H85.9243ZM86.4515 11.2135H88.9814C89.6141 11.2135 90.0885 11.7304 90.0885 12.1046C90.0885 12.4614 89.9655 13.2459 88.5772 13.6024L83.5347 14.7969C83.5347 11.9445 85.0808 11.2135 86.4515 11.2135Z" fill="white"/>
<mask id="mask3_4956_9657" style="mask-type:luminance" maskUnits="userSpaceOnUse" x="78" y="6" width="17" height="19">
<path d="M85.9203 6.91654C84.585 6.91654 83.3552 7.20195 82.2482 7.77244C79.9994 8.91341 78.5234 11.4096 78.5234 15.7418C78.5234 22.285 81.3874 24.6387 85.9203 24.6387H92.509C93.7741 24.6387 94.3189 23.8897 94.3189 22.8379V21.0905C94.3189 20.6805 94.0729 20.3417 93.7741 20.3417H86.4476C85.2703 20.3417 84.2688 19.8068 83.7943 18.541L90.1899 17.1325C93.3527 16.4907 94.9514 14.9574 94.9514 12.2651C94.9514 9.27001 92.8429 6.91654 88.9775 6.91654H85.9203ZM86.4476 11.2135H88.9775C89.6102 11.2135 90.0845 11.7304 90.0845 12.1046C90.0845 12.4614 89.9616 13.2459 88.5733 13.6024L83.5308 14.7969C83.5308 11.9445 85.0769 11.2135 86.4476 11.2135Z" fill="white"/>
</mask>
<g mask="url(#mask3_4956_9657)">
<path d="M-39.2406 194.589L204.078 178.129L186.408 -90.8251L-56.9104 -74.3647L-39.2406 194.589Z" fill="white"/>
</g>
<path d="M1.91542 -0.00109053C0.561855 -0.00109053 0 0.729711 0 1.80088V3.54758C0 3.95704 0.245173 4.29567 0.544829 4.29567L14.8023 4.31641C13.6616 1.21537 11.1349 -0.00109053 7.71274 -0.00109053H1.91542Z" fill="white"/>
<path d="M2.04292 13.4256C0.708091 13.4256 0.144531 14.1564 0.144531 15.2259V16.9726C0.144531 17.3838 0.374381 17.7224 0.708089 17.7224L2.79206 17.7243L7.58145 24.8439C7.93389 25.3968 8.21481 25.5938 8.75964 25.5938H12.519C13.0638 25.5938 13.3635 25.3415 13.3635 24.9683C13.3635 24.7733 13.2579 24.5053 13.0468 24.203L8.63706 17.6844C11.2761 17.4546 13.5507 16.1934 14.6949 13.4032L2.04292 13.4256Z" fill="white"/>
<path d="M4.90501 6.77727C4.5713 6.77727 4.37891 7.1159 4.37891 7.52537V9.27206C4.37891 10.2828 4.86415 11.0151 6.04064 11.0706C6.08831 11.0723 6.13769 11.0742 6.18706 11.0742H16.0961C16.1455 11.0742 16.1949 11.0723 16.2426 11.0706C17.4191 11.0151 17.9043 10.2828 17.9043 9.27206V7.52537C17.9043 7.1159 17.7121 6.77727 17.3782 6.77727H4.90501Z" fill="white"/>
<line x1="184.5" y1="7" x2="184.5" y2="49" stroke="white"/>
<mask id="path-25-outside-1_4956_9657" maskUnits="userSpaceOnUse" x="212" y="14" width="153" height="24" fill="black">
<rect fill="white" x="212" y="14" width="153" height="24"/>
<path d="M234.688 14.6V37H230.304V22.472L224 32.872H223.488L217.184 22.504V37H212.768V14.6H217.312L223.744 25.192L230.144 14.6H234.688ZM241.157 30.696C241.712 32.7013 243.216 33.704 245.669 33.704C247.248 33.704 248.443 33.1707 249.253 32.104L252.581 34.024C251.003 36.3067 248.677 37.448 245.605 37.448C242.96 37.448 240.837 36.648 239.237 35.048C237.637 33.448 236.837 31.432 236.837 29C236.837 26.5893 237.627 24.584 239.205 22.984C240.784 21.3627 242.811 20.552 245.285 20.552C247.632 20.552 249.563 21.3627 251.077 22.984C252.613 24.6053 253.381 26.6107 253.381 29C253.381 29.5333 253.328 30.0987 253.221 30.696H241.157ZM241.093 27.496H249.253C249.019 26.408 248.528 25.5973 247.781 25.064C247.056 24.5307 246.224 24.264 245.285 24.264C244.176 24.264 243.259 24.552 242.533 25.128C241.808 25.6827 241.328 26.472 241.093 27.496ZM259.391 23.752C259.775 22.728 260.404 21.96 261.279 21.448C262.175 20.936 263.167 20.68 264.255 20.68V25.288C262.996 25.1387 261.866 25.3947 260.863 26.056C259.882 26.7173 259.391 27.816 259.391 29.352V37H255.263V21H259.391V23.752ZM272.692 37.448C270.281 37.448 268.265 36.6373 266.644 35.016C265.044 33.3947 264.243 31.3893 264.243 29C264.243 26.6107 265.044 24.6053 266.644 22.984C268.265 21.3627 270.281 20.552 272.692 20.552C274.249 20.552 275.668 20.9253 276.948 21.672C278.228 22.4187 279.198 23.4213 279.86 24.68L276.308 26.76C275.988 26.0987 275.497 25.576 274.836 25.192C274.196 24.808 273.47 24.616 272.66 24.616C271.422 24.616 270.398 25.032 269.588 25.864C268.777 26.6747 268.372 27.72 268.372 29C268.372 30.2587 268.777 31.304 269.588 32.136C270.398 32.9467 271.422 33.352 272.66 33.352C273.492 33.352 274.228 33.1707 274.868 32.808C275.529 32.424 276.02 31.9013 276.34 31.24L279.924 33.288C279.22 34.5467 278.228 35.56 276.948 36.328C275.668 37.0747 274.249 37.448 272.692 37.448ZM290.003 20.552C291.752 20.552 293.192 21.1387 294.323 22.312C295.475 23.4853 296.051 25.1067 296.051 27.176V37H291.923V27.688C291.923 26.6213 291.635 25.8107 291.059 25.256C290.483 24.68 289.715 24.392 288.755 24.392C287.688 24.392 286.835 24.7227 286.195 25.384C285.555 26.0453 285.235 27.0373 285.235 28.36V37H281.107V14.6H285.235V22.792C286.237 21.2987 287.827 20.552 290.003 20.552ZM310.736 21H314.864V37H310.736V35.112C309.498 36.6693 307.76 37.448 305.52 37.448C303.386 37.448 301.552 36.6373 300.016 35.016C298.501 33.3733 297.743 31.368 297.743 29C297.743 26.632 298.501 24.6373 300.016 23.016C301.552 21.3733 303.386 20.552 305.52 20.552C307.76 20.552 309.498 21.3307 310.736 22.888V21ZM303.12 32.264C303.952 33.096 305.008 33.512 306.288 33.512C307.568 33.512 308.624 33.096 309.456 32.264C310.309 31.4107 310.736 30.3227 310.736 29C310.736 27.6773 310.309 26.6 309.456 25.768C308.624 24.9147 307.568 24.488 306.288 24.488C305.008 24.488 303.952 24.9147 303.12 25.768C302.288 26.6 301.872 27.6773 301.872 29C301.872 30.3227 302.288 31.4107 303.12 32.264ZM326.503 20.552C328.252 20.552 329.692 21.1387 330.823 22.312C331.975 23.4853 332.551 25.1067 332.551 27.176V37H328.423V27.688C328.423 26.6213 328.135 25.8107 327.559 25.256C326.983 24.68 326.215 24.392 325.255 24.392C324.188 24.392 323.335 24.7227 322.695 25.384C322.055 26.0453 321.735 27.0373 321.735 28.36V37H317.607V21H321.735V22.792C322.737 21.2987 324.327 20.552 326.503 20.552ZM344.228 24.968H340.612V31.624C340.612 32.1787 340.75 32.584 341.028 32.84C341.305 33.096 341.71 33.2453 342.244 33.288C342.777 33.3093 343.438 33.2987 344.228 33.256V37C341.39 37.32 339.385 37.0533 338.212 36.2C337.06 35.3467 336.484 33.8213 336.484 31.624V24.968H333.7V21H336.484V17.768L340.612 16.52V21H344.228V24.968ZM349.602 25.544C349.602 25.9707 349.88 26.3227 350.434 26.6C351.01 26.856 351.704 27.0907 352.514 27.304C353.325 27.496 354.136 27.752 354.946 28.072C355.757 28.3707 356.44 28.8827 356.994 29.608C357.57 30.3333 357.858 31.24 357.858 32.328C357.858 33.9707 357.24 35.24 356.002 36.136C354.786 37.0107 353.261 37.448 351.426 37.448C348.141 37.448 345.901 36.1787 344.706 33.64L348.29 31.624C348.76 33.0107 349.805 33.704 351.426 33.704C352.898 33.704 353.634 33.2453 353.634 32.328C353.634 31.9013 353.346 31.56 352.77 31.304C352.216 31.0267 351.533 30.7813 350.722 30.568C349.912 30.3547 349.101 30.088 348.29 29.768C347.48 29.448 346.786 28.9467 346.21 28.264C345.656 27.56 345.378 26.6853 345.378 25.64C345.378 24.0613 345.954 22.824 347.106 21.928C348.28 21.0107 349.73 20.552 351.458 20.552C352.76 20.552 353.944 20.8507 355.01 21.448C356.077 22.024 356.92 22.856 357.538 23.944L354.018 25.864C353.506 24.776 352.653 24.232 351.458 24.232C350.925 24.232 350.477 24.3493 350.114 24.584C349.773 24.8187 349.602 25.1387 349.602 25.544ZM363.646 36.616C363.112 37.1493 362.472 37.416 361.726 37.416C360.979 37.416 360.339 37.1493 359.806 36.616C359.272 36.0827 359.006 35.4427 359.006 34.696C359.006 33.9493 359.272 33.3093 359.806 32.776C360.339 32.2427 360.979 31.976 361.726 31.976C362.472 31.976 363.112 32.2427 363.646 32.776C364.179 33.3093 364.446 33.9493 364.446 34.696C364.446 35.4427 364.179 36.0827 363.646 36.616Z"/>
</mask>
<path d="M234.688 14.6V37H230.304V22.472L224 32.872H223.488L217.184 22.504V37H212.768V14.6H217.312L223.744 25.192L230.144 14.6H234.688ZM241.157 30.696C241.712 32.7013 243.216 33.704 245.669 33.704C247.248 33.704 248.443 33.1707 249.253 32.104L252.581 34.024C251.003 36.3067 248.677 37.448 245.605 37.448C242.96 37.448 240.837 36.648 239.237 35.048C237.637 33.448 236.837 31.432 236.837 29C236.837 26.5893 237.627 24.584 239.205 22.984C240.784 21.3627 242.811 20.552 245.285 20.552C247.632 20.552 249.563 21.3627 251.077 22.984C252.613 24.6053 253.381 26.6107 253.381 29C253.381 29.5333 253.328 30.0987 253.221 30.696H241.157ZM241.093 27.496H249.253C249.019 26.408 248.528 25.5973 247.781 25.064C247.056 24.5307 246.224 24.264 245.285 24.264C244.176 24.264 243.259 24.552 242.533 25.128C241.808 25.6827 241.328 26.472 241.093 27.496ZM259.391 23.752C259.775 22.728 260.404 21.96 261.279 21.448C262.175 20.936 263.167 20.68 264.255 20.68V25.288C262.996 25.1387 261.866 25.3947 260.863 26.056C259.882 26.7173 259.391 27.816 259.391 29.352V37H255.263V21H259.391V23.752ZM272.692 37.448C270.281 37.448 268.265 36.6373 266.644 35.016C265.044 33.3947 264.243 31.3893 264.243 29C264.243 26.6107 265.044 24.6053 266.644 22.984C268.265 21.3627 270.281 20.552 272.692 20.552C274.249 20.552 275.668 20.9253 276.948 21.672C278.228 22.4187 279.198 23.4213 279.86 24.68L276.308 26.76C275.988 26.0987 275.497 25.576 274.836 25.192C274.196 24.808 273.47 24.616 272.66 24.616C271.422 24.616 270.398 25.032 269.588 25.864C268.777 26.6747 268.372 27.72 268.372 29C268.372 30.2587 268.777 31.304 269.588 32.136C270.398 32.9467 271.422 33.352 272.66 33.352C273.492 33.352 274.228 33.1707 274.868 32.808C275.529 32.424 276.02 31.9013 276.34 31.24L279.924 33.288C279.22 34.5467 278.228 35.56 276.948 36.328C275.668 37.0747 274.249 37.448 272.692 37.448ZM290.003 20.552C291.752 20.552 293.192 21.1387 294.323 22.312C295.475 23.4853 296.051 25.1067 296.051 27.176V37H291.923V27.688C291.923 26.6213 291.635 25.8107 291.059 25.256C290.483 24.68 289.715 24.392 288.755 24.392C287.688 24.392 286.835 24.7227 286.195 25.384C285.555 26.0453 285.235 27.0373 285.235 28.36V37H281.107V14.6H285.235V22.792C286.237 21.2987 287.827 20.552 290.003 20.552ZM310.736 21H314.864V37H310.736V35.112C309.498 36.6693 307.76 37.448 305.52 37.448C303.386 37.448 301.552 36.6373 300.016 35.016C298.501 33.3733 297.743 31.368 297.743 29C297.743 26.632 298.501 24.6373 300.016 23.016C301.552 21.3733 303.386 20.552 305.52 20.552C307.76 20.552 309.498 21.3307 310.736 22.888V21ZM303.12 32.264C303.952 33.096 305.008 33.512 306.288 33.512C307.568 33.512 308.624 33.096 309.456 32.264C310.309 31.4107 310.736 30.3227 310.736 29C310.736 27.6773 310.309 26.6 309.456 25.768C308.624 24.9147 307.568 24.488 306.288 24.488C305.008 24.488 303.952 24.9147 303.12 25.768C302.288 26.6 301.872 27.6773 301.872 29C301.872 30.3227 302.288 31.4107 303.12 32.264ZM326.503 20.552C328.252 20.552 329.692 21.1387 330.823 22.312C331.975 23.4853 332.551 25.1067 332.551 27.176V37H328.423V27.688C328.423 26.6213 328.135 25.8107 327.559 25.256C326.983 24.68 326.215 24.392 325.255 24.392C324.188 24.392 323.335 24.7227 322.695 25.384C322.055 26.0453 321.735 27.0373 321.735 28.36V37H317.607V21H321.735V22.792C322.737 21.2987 324.327 20.552 326.503 20.552ZM344.228 24.968H340.612V31.624C340.612 32.1787 340.75 32.584 341.028 32.84C341.305 33.096 341.71 33.2453 342.244 33.288C342.777 33.3093 343.438 33.2987 344.228 33.256V37C341.39 37.32 339.385 37.0533 338.212 36.2C337.06 35.3467 336.484 33.8213 336.484 31.624V24.968H333.7V21H336.484V17.768L340.612 16.52V21H344.228V24.968ZM349.602 25.544C349.602 25.9707 349.88 26.3227 350.434 26.6C351.01 26.856 351.704 27.0907 352.514 27.304C353.325 27.496 354.136 27.752 354.946 28.072C355.757 28.3707 356.44 28.8827 356.994 29.608C357.57 30.3333 357.858 31.24 357.858 32.328C357.858 33.9707 357.24 35.24 356.002 36.136C354.786 37.0107 353.261 37.448 351.426 37.448C348.141 37.448 345.901 36.1787 344.706 33.64L348.29 31.624C348.76 33.0107 349.805 33.704 351.426 33.704C352.898 33.704 353.634 33.2453 353.634 32.328C353.634 31.9013 353.346 31.56 352.77 31.304C352.216 31.0267 351.533 30.7813 350.722 30.568C349.912 30.3547 349.101 30.088 348.29 29.768C347.48 29.448 346.786 28.9467 346.21 28.264C345.656 27.56 345.378 26.6853 345.378 25.64C345.378 24.0613 345.954 22.824 347.106 21.928C348.28 21.0107 349.73 20.552 351.458 20.552C352.76 20.552 353.944 20.8507 355.01 21.448C356.077 22.024 356.92 22.856 357.538 23.944L354.018 25.864C353.506 24.776 352.653 24.232 351.458 24.232C350.925 24.232 350.477 24.3493 350.114 24.584C349.773 24.8187 349.602 25.1387 349.602 25.544ZM363.646 36.616C363.112 37.1493 362.472 37.416 361.726 37.416C360.979 37.416 360.339 37.1493 359.806 36.616C359.272 36.0827 359.006 35.4427 359.006 34.696C359.006 33.9493 359.272 33.3093 359.806 32.776C360.339 32.2427 360.979 31.976 361.726 31.976C362.472 31.976 363.112 32.2427 363.646 32.776C364.179 33.3093 364.446 33.9493 364.446 34.696C364.446 35.4427 364.179 36.0827 363.646 36.616Z" fill="white"/>
<path d="M234.688 14.6H235.188V14.1H234.688V14.6ZM234.688 37V37.5H235.188V37H234.688ZM230.304 37H229.804V37.5H230.304V37ZM230.304 22.472H230.804V20.6825L229.876 22.2128L230.304 22.472ZM224 32.872V33.372H224.281L224.427 33.1312L224 32.872ZM223.488 32.872L223.06 33.1318L223.206 33.372H223.488V32.872ZM217.184 22.504L217.611 22.2442L216.684 20.7193V22.504H217.184ZM217.184 37V37.5H217.684V37H217.184ZM212.768 37H212.268V37.5H212.768V37ZM212.768 14.6V14.1H212.268V14.6H212.768ZM217.312 14.6L217.739 14.3405L217.593 14.1H217.312V14.6ZM223.744 25.192L223.316 25.4515L223.745 26.1571L224.171 25.4506L223.744 25.192ZM230.144 14.6V14.1H229.861L229.716 14.3414L230.144 14.6ZM234.688 14.6H234.188V37H234.688H235.188V14.6H234.688ZM234.688 37V36.5H230.304V37V37.5H234.688V37ZM230.304 37H230.804V22.472H230.304H229.804V37H230.304ZM230.304 22.472L229.876 22.2128L223.572 32.6128L224 32.872L224.427 33.1312L230.731 22.7312L230.304 22.472ZM224 32.872V32.372H223.488V32.872V33.372H224V32.872ZM223.488 32.872L223.915 32.6122L217.611 22.2442L217.184 22.504L216.756 22.7638L223.06 33.1318L223.488 32.872ZM217.184 22.504H216.684V37H217.184H217.684V22.504H217.184ZM217.184 37V36.5H212.768V37V37.5H217.184V37ZM212.768 37H213.268V14.6H212.768H212.268V37H212.768ZM212.768 14.6V15.1H217.312V14.6V14.1H212.768V14.6ZM217.312 14.6L216.884 14.8595L223.316 25.4515L223.744 25.192L224.171 24.9325L217.739 14.3405L217.312 14.6ZM223.744 25.192L224.171 25.4506L230.571 14.8586L230.144 14.6L229.716 14.3414L223.316 24.9334L223.744 25.192ZM230.144 14.6V15.1H234.688V14.6V14.1H230.144V14.6ZM241.157 30.696V30.196H240.5L240.675 30.8293L241.157 30.696ZM249.253 32.104L249.503 31.6709L249.122 31.4508L248.855 31.8015L249.253 32.104ZM252.581 34.024L252.992 34.3084L253.301 33.8621L252.831 33.5909L252.581 34.024ZM239.237 35.048L238.884 35.4016L239.237 35.048ZM239.205 22.984L239.561 23.3352L239.563 23.3328L239.205 22.984ZM251.077 22.984L250.712 23.3253L250.714 23.3279L251.077 22.984ZM253.221 30.696V31.196H253.64L253.713 30.7839L253.221 30.696ZM241.093 27.496L240.606 27.3843L240.466 27.996H241.093V27.496ZM249.253 27.496V27.996H249.873L249.742 27.3906L249.253 27.496ZM247.781 25.064L247.485 25.4669L247.491 25.4709L247.781 25.064ZM242.533 25.128L242.837 25.5252L242.844 25.5196L242.533 25.128ZM241.157 30.696L240.675 30.8293C240.98 31.9292 241.557 32.7901 242.424 33.368C243.283 33.9405 244.378 34.204 245.669 34.204V33.704V33.204C244.507 33.204 243.624 32.9662 242.979 32.536C242.341 32.1112 241.89 31.4682 241.639 30.5627L241.157 30.696ZM245.669 33.704V34.204C247.373 34.204 248.729 33.6207 249.651 32.4065L249.253 32.104L248.855 31.8015C248.157 32.7207 247.123 33.204 245.669 33.204V33.704ZM249.253 32.104L249.003 32.5371L252.331 34.4571L252.581 34.024L252.831 33.5909L249.503 31.6709L249.253 32.104ZM252.581 34.024L252.17 33.7396C250.696 35.8712 248.534 36.948 245.605 36.948V37.448V37.948C248.821 37.948 251.309 36.7421 252.992 34.3084L252.581 34.024ZM245.605 37.448V36.948C243.068 36.948 241.081 36.1849 239.591 34.6944L239.237 35.048L238.884 35.4016C240.593 37.1111 242.852 37.948 245.605 37.948V37.448ZM239.237 35.048L239.591 34.6944C238.092 33.1957 237.337 31.3104 237.337 29H236.837H236.337C236.337 31.5536 237.182 33.7003 238.884 35.4016L239.237 35.048ZM236.837 29H237.337C237.337 26.7103 238.082 24.8344 239.561 23.3352L239.205 22.984L238.849 22.6328C237.171 24.3336 236.337 26.4684 236.337 29H236.837ZM239.205 22.984L239.563 23.3328C241.039 21.8177 242.932 21.052 245.285 21.052V20.552V20.052C242.69 20.052 240.529 20.9076 238.847 22.6352L239.205 22.984ZM245.285 20.552V21.052C247.502 21.052 249.298 21.8116 250.712 23.3253L251.077 22.984L251.443 22.6427C249.827 20.9138 247.761 20.052 245.285 20.052V20.552ZM251.077 22.984L250.714 23.3279C252.156 24.8494 252.881 26.7288 252.881 29H253.381H253.881C253.881 26.4925 253.071 24.3612 251.44 22.6401L251.077 22.984ZM253.381 29H252.881C252.881 29.5002 252.831 30.0359 252.729 30.6081L253.221 30.696L253.713 30.7839C253.825 30.1614 253.881 29.5665 253.881 29H253.381ZM253.221 30.696V30.196H241.157V30.696V31.196H253.221V30.696ZM241.093 27.496V27.996H249.253V27.496V26.996H241.093V27.496ZM249.253 27.496L249.742 27.3906C249.487 26.2082 248.94 25.2775 248.072 24.6571L247.781 25.064L247.491 25.4709C248.115 25.9172 248.55 26.6078 248.764 27.6014L249.253 27.496ZM247.781 25.064L248.077 24.6612C247.262 24.0619 246.326 23.764 245.285 23.764V24.264V24.764C246.122 24.764 246.849 24.9994 247.485 25.4668L247.781 25.064ZM245.285 24.264V23.764C244.086 23.764 243.053 24.0771 242.222 24.7364L242.533 25.128L242.844 25.5196C243.465 25.0269 244.266 24.764 245.285 24.764V24.264ZM242.533 25.128L242.23 24.7308C241.398 25.3668 240.862 26.2647 240.606 27.3843L241.093 27.496L241.581 27.6077C241.793 26.6793 242.218 25.9985 242.837 25.5252L242.533 25.128ZM259.391 23.752H258.891L259.859 23.9276L259.391 23.752ZM261.279 21.448L261.031 21.0139L261.026 21.0165L261.279 21.448ZM264.255 20.68H264.755V20.18H264.255V20.68ZM264.255 25.288L264.196 25.7845L264.755 25.8508V25.288H264.255ZM260.863 26.056L260.588 25.6386L260.584 25.6414L260.863 26.056ZM259.391 37V37.5H259.891V37H259.391ZM255.263 37H254.763V37.5H255.263V37ZM255.263 21V20.5H254.763V21H255.263ZM259.391 21H259.891V20.5H259.391V21ZM259.391 23.752L259.859 23.9276C260.206 23.002 260.764 22.3287 261.532 21.8795L261.279 21.448L261.026 21.0165C260.045 21.5912 259.344 22.454 258.923 23.5764L259.391 23.752ZM261.279 21.448L261.527 21.8821C262.343 21.4157 263.249 21.18 264.255 21.18V20.68V20.18C263.085 20.18 262.007 20.4563 261.031 21.0139L261.279 21.448ZM264.255 20.68H263.755V25.288H264.255H264.755V20.68H264.255ZM264.255 25.288L264.314 24.7915C262.945 24.6291 261.695 24.9085 260.588 25.6386L260.863 26.056L261.138 26.4734C262.037 25.8809 263.048 25.6483 264.196 25.7845L264.255 25.288ZM260.863 26.056L260.584 25.6414C259.424 26.4228 258.891 27.705 258.891 29.352H259.391H259.891C259.891 27.927 260.339 27.0119 261.142 26.4706L260.863 26.056ZM259.391 29.352H258.891V37H259.391H259.891V29.352H259.391ZM259.391 37V36.5H255.263V37V37.5H259.391V37ZM255.263 37H255.763V21H255.263H254.763V37H255.263ZM255.263 21V21.5H259.391V21V20.5H255.263V21ZM259.391 21H258.891V23.752H259.391H259.891V21H259.391ZM266.644 35.016L266.288 35.3672L266.29 35.3696L266.644 35.016ZM266.644 22.984L266.29 22.6304L266.288 22.6328L266.644 22.984ZM276.948 21.672L277.199 21.2401L276.948 21.672ZM279.859 24.68L280.112 25.1115L280.524 24.8702L280.302 24.4474L279.859 24.68ZM276.308 26.76L275.857 26.9778L276.093 27.4649L276.56 27.1915L276.308 26.76ZM274.836 25.192L274.578 25.6208L274.584 25.6244L274.836 25.192ZM269.588 25.864L269.941 26.2176L269.946 26.2129L269.588 25.864ZM269.588 32.136L269.229 32.485L269.234 32.4896L269.588 32.136ZM274.868 32.808L275.114 33.243L275.119 33.2404L274.868 32.808ZM276.34 31.24L276.588 30.8059L276.123 30.5402L275.889 31.0222L276.34 31.24ZM279.924 33.288L280.36 33.5321L280.602 33.0997L280.172 32.8539L279.924 33.288ZM276.948 36.328L277.199 36.7599L277.205 36.7567L276.948 36.328ZM272.692 37.448V36.948C270.406 36.948 268.519 36.1848 266.997 34.6624L266.644 35.016L266.29 35.3696C268.01 37.0899 270.156 37.948 272.692 37.948V37.448ZM266.644 35.016L266.999 34.6648C265.497 33.142 264.743 31.265 264.743 29H264.243H263.743C263.743 31.5136 264.59 33.6473 266.288 35.3672L266.644 35.016ZM264.243 29H264.743C264.743 26.735 265.497 24.858 266.999 23.3352L266.644 22.984L266.288 22.6328C264.59 24.3527 263.743 26.4864 263.743 29H264.243ZM266.644 22.984L266.997 23.3376C268.519 21.8152 270.406 21.052 272.692 21.052V20.552V20.052C270.156 20.052 268.01 20.9101 266.29 22.6304L266.644 22.984ZM272.692 20.552V21.052C274.165 21.052 275.496 21.4041 276.696 22.1039L276.948 21.672L277.199 21.2401C275.839 20.4465 274.333 20.052 272.692 20.052V20.552ZM276.948 21.672L276.696 22.1039C277.898 22.8054 278.801 23.7405 279.417 24.9126L279.859 24.68L280.302 24.4474C279.595 23.1022 278.557 22.0319 277.199 21.2401L276.948 21.672ZM279.859 24.68L279.607 24.2485L276.055 26.3285L276.308 26.76L276.56 27.1915L280.112 25.1115L279.859 24.68ZM276.308 26.76L276.758 26.5422C276.392 25.7873 275.83 25.1915 275.087 24.7596L274.836 25.192L274.584 25.6244C275.163 25.9605 275.583 26.41 275.857 26.9778L276.308 26.76ZM274.836 25.192L275.093 24.7633C274.368 24.3286 273.553 24.116 272.66 24.116V24.616V25.116C273.388 25.116 274.023 25.2874 274.578 25.6207L274.836 25.192ZM272.66 24.616V24.116C271.297 24.116 270.141 24.5797 269.229 25.5151L269.588 25.864L269.946 26.2129C270.656 25.4843 271.547 25.116 272.66 25.116V24.616ZM269.588 25.864L269.234 25.5104C268.318 26.4262 267.871 27.6043 267.871 29H268.371H268.871C268.871 27.8357 269.235 26.9231 269.941 26.2176L269.588 25.864ZM268.371 29H267.871C267.871 30.3771 268.32 31.5513 269.229 32.4849L269.588 32.136L269.946 31.7871C269.234 31.0567 268.871 30.1403 268.871 29H268.371ZM269.588 32.136L269.234 32.4896C270.146 33.4019 271.301 33.852 272.66 33.852V33.352V32.852C271.543 32.852 270.65 32.4914 269.941 31.7824L269.588 32.136ZM272.66 33.352V33.852C273.566 33.852 274.389 33.6536 275.114 33.243L274.868 32.808L274.621 32.373C274.066 32.6877 273.417 32.852 272.66 32.852V33.352ZM274.868 32.808L275.119 33.2404C275.862 32.8085 276.424 32.2127 276.79 31.4578L276.34 31.24L275.889 31.0222C275.615 31.59 275.195 32.0395 274.616 32.3756L274.868 32.808ZM276.34 31.24L276.091 31.6741L279.675 33.7221L279.924 33.288L280.172 32.8539L276.588 30.8059L276.34 31.24ZM279.924 33.288L279.487 33.0439C278.827 34.2237 277.898 35.1745 276.69 35.8993L276.948 36.328L277.205 36.7567C278.557 35.9455 279.612 34.8696 280.36 33.5321L279.924 33.288ZM276.948 36.328L276.696 35.8961C275.496 36.5959 274.165 36.948 272.692 36.948V37.448V37.948C274.333 37.948 275.839 37.5535 277.199 36.7599L276.948 36.328ZM294.323 22.312L293.963 22.659L293.966 22.6623L294.323 22.312ZM296.051 37V37.5H296.551V37H296.051ZM291.923 37H291.423V37.5H291.923V37ZM291.059 25.256L290.705 25.6096L290.712 25.6162L291.059 25.256ZM286.195 25.384L286.554 25.7317L286.195 25.384ZM285.235 37V37.5H285.735V37H285.235ZM281.107 37H280.607V37.5H281.107V37ZM281.107 14.6V14.1H280.607V14.6H281.107ZM285.235 14.6H285.735V14.1H285.235V14.6ZM285.235 22.792H284.735V24.4336L285.65 23.0707L285.235 22.792ZM290.003 20.552V21.052C291.627 21.052 292.934 21.5911 293.963 22.6589L294.323 22.312L294.683 21.9651C293.45 20.6862 291.877 20.052 290.003 20.052V20.552ZM294.323 22.312L293.966 22.6623C295.004 23.7195 295.551 25.2021 295.551 27.176H296.051H296.551C296.551 25.0112 295.946 23.2512 294.68 21.9617L294.323 22.312ZM296.051 27.176H295.551V37H296.051H296.551V27.176H296.051ZM296.051 37V36.5H291.923V37V37.5H296.051V37ZM291.923 37H292.423V27.688H291.923H291.423V37H291.923ZM291.923 27.688H292.423C292.423 26.5326 292.109 25.5731 291.406 24.8958L291.059 25.256L290.712 25.6162C291.161 26.0482 291.423 26.7101 291.423 27.688H291.923ZM291.059 25.256L291.412 24.9024C290.726 24.2161 289.822 23.892 288.755 23.892V24.392V24.892C289.608 24.892 290.24 25.1439 290.705 25.6096L291.059 25.256ZM288.755 24.392V23.892C287.576 23.892 286.585 24.262 285.835 25.0363L286.195 25.384L286.554 25.7317C287.085 25.1834 287.8 24.892 288.755 24.892V24.392ZM286.195 25.384L285.835 25.0363C285.072 25.8249 284.735 26.9643 284.735 28.36H285.235H285.735C285.735 27.1104 286.037 26.2657 286.554 25.7317L286.195 25.384ZM285.235 28.36H284.735V37H285.235H285.735V28.36H285.235ZM285.235 37V36.5H281.107V37V37.5H285.235V37ZM281.107 37H281.607V14.6H281.107H280.607V37H281.107ZM281.107 14.6V15.1H285.235V14.6V14.1H281.107V14.6ZM285.235 14.6H284.735V22.792H285.235H285.735V14.6H285.235ZM285.235 22.792L285.65 23.0707C286.539 21.7459 287.953 21.052 290.003 21.052V20.552V20.052C287.7 20.052 285.935 20.8514 284.82 22.5133L285.235 22.792ZM310.736 21V20.5H310.236V21H310.736ZM314.864 21H315.364V20.5H314.864V21ZM314.864 37V37.5H315.364V37H314.864ZM310.736 37H310.236V37.5H310.736V37ZM310.736 35.112H311.236V33.6789L310.344 34.801L310.736 35.112ZM300.016 35.016L299.648 35.355L299.653 35.3599L300.016 35.016ZM300.016 23.016L299.65 22.6745L299.65 22.6747L300.016 23.016ZM310.736 22.888L310.344 23.199L311.236 24.3211V22.888H310.736ZM303.119 32.264L302.761 32.6131L302.766 32.6176L303.119 32.264ZM309.455 32.264L309.809 32.6176L309.455 32.264ZM309.455 25.768L309.097 26.1172L309.106 26.126L309.455 25.768ZM303.119 25.768L303.473 26.1216L303.478 26.117L303.119 25.768ZM310.736 21V21.5H314.864V21V20.5H310.736V21ZM314.864 21H314.364V37H314.864H315.364V21H314.864ZM314.864 37V36.5H310.736V37V37.5H314.864V37ZM310.736 37H311.236V35.112H310.736H310.236V37H310.736ZM310.736 35.112L310.344 34.801C309.214 36.2228 307.629 36.948 305.52 36.948V37.448V37.948C307.89 37.948 309.782 37.1159 311.127 35.423L310.736 35.112ZM305.52 37.448V36.948C303.531 36.948 301.825 36.199 300.378 34.6721L300.016 35.016L299.653 35.3599C301.278 37.0756 303.242 37.948 305.52 37.948V37.448ZM300.016 35.016L300.383 34.6771C298.959 33.1326 298.243 31.2506 298.243 29H297.743H297.243C297.243 31.4854 298.043 33.6141 299.648 35.3549L300.016 35.016ZM297.743 29H298.243C298.243 26.7494 298.959 24.8794 300.381 23.3573L300.016 23.016L299.65 22.6747C298.043 24.3952 297.243 26.5146 297.243 29H297.743ZM300.016 23.016L300.381 23.3575C301.828 21.8098 303.533 21.052 305.52 21.052V20.552V20.052C303.24 20.052 301.275 20.9369 299.65 22.6745L300.016 23.016ZM305.52 20.552V21.052C307.629 21.052 309.214 21.7772 310.344 23.199L310.736 22.888L311.127 22.577C309.782 20.8841 307.89 20.052 305.52 20.052V20.552ZM310.736 22.888H311.236V21H310.736H310.236V22.888H310.736ZM303.119 32.264L302.766 32.6176C303.7 33.552 304.888 34.012 306.287 34.012V33.512V33.012C305.127 33.012 304.203 32.64 303.473 31.9104L303.119 32.264ZM306.287 33.512V34.012C307.687 34.012 308.875 33.552 309.809 32.6176L309.455 32.264L309.102 31.9104C308.372 32.64 307.448 33.012 306.287 33.012V33.512ZM309.455 32.264L309.809 32.6176C310.766 31.661 311.236 30.4413 311.236 29H310.736H310.236C310.236 30.2041 309.852 31.1603 309.102 31.9104L309.455 32.264ZM310.736 29H311.236C311.236 27.5588 310.765 26.3469 309.805 25.41L309.455 25.768L309.106 26.126C309.852 26.8531 310.236 27.7959 310.236 29H310.736ZM309.455 25.768L309.813 25.419C308.88 24.4614 307.691 23.988 306.287 23.988V24.488V24.988C307.444 24.988 308.367 25.3679 309.098 26.117L309.455 25.768ZM306.287 24.488V23.988C304.884 23.988 303.695 24.4614 302.761 25.419L303.119 25.768L303.478 26.117C304.208 25.3679 305.131 24.988 306.287 24.988V24.488ZM303.119 25.768L302.766 25.4144C301.828 26.3522 301.371 27.5627 301.371 29H301.871H302.371C302.371 27.792 302.747 26.8478 303.473 26.1216L303.119 25.768ZM301.871 29H301.371C301.371 30.4375 301.828 31.6557 302.761 32.6131L303.119 32.264L303.478 31.9149C302.747 31.1656 302.371 30.2079 302.371 29H301.871ZM330.823 22.312L330.463 22.659L330.466 22.6623L330.823 22.312ZM332.551 37V37.5H333.051V37H332.551ZM328.423 37H327.923V37.5H328.423V37ZM327.559 25.256L327.205 25.6096L327.212 25.6162L327.559 25.256ZM322.695 25.384L323.054 25.7317L322.695 25.384ZM321.735 37V37.5H322.235V37H321.735ZM317.607 37H317.107V37.5H317.607V37ZM317.607 21V20.5H317.107V21H317.607ZM321.735 21H322.235V20.5H321.735V21ZM321.735 22.792H321.235V24.4336L322.15 23.0707L321.735 22.792ZM326.503 20.552V21.052C328.127 21.052 329.434 21.5911 330.463 22.6589L330.823 22.312L331.183 21.9651C329.95 20.6862 328.377 20.052 326.503 20.052V20.552ZM330.823 22.312L330.466 22.6623C331.504 23.7195 332.051 25.2021 332.051 27.176H332.551H333.051C333.051 25.0112 332.446 23.2512 331.18 21.9617L330.823 22.312ZM332.551 27.176H332.051V37H332.551H333.051V27.176H332.551ZM332.551 37V36.5H328.423V37V37.5H332.551V37ZM328.423 37H328.923V27.688H328.423H327.923V37H328.423ZM328.423 27.688H328.923C328.923 26.5326 328.609 25.5731 327.906 24.8958L327.559 25.256L327.212 25.6162C327.661 26.0482 327.923 26.7101 327.923 27.688H328.423ZM327.559 25.256L327.912 24.9024C327.226 24.2161 326.322 23.892 325.255 23.892V24.392V24.892C326.108 24.892 326.74 25.1439 327.205 25.6096L327.559 25.256ZM325.255 24.392V23.892C324.076 23.892 323.085 24.262 322.335 25.0363L322.695 25.384L323.054 25.7317C323.585 25.1834 324.3 24.892 325.255 24.892V24.392ZM322.695 25.384L322.335 25.0363C321.572 25.8249 321.235 26.9643 321.235 28.36H321.735H322.235C322.235 27.1104 322.537 26.2657 323.054 25.7317L322.695 25.384ZM321.735 28.36H321.235V37H321.735H322.235V28.36H321.735ZM321.735 37V36.5H317.607V37V37.5H321.735V37ZM317.607 37H318.107V21H317.607H317.107V37H317.607ZM317.607 21V21.5H321.735V21V20.5H317.607V21ZM321.735 21H321.235V22.792H321.735H322.235V21H321.735ZM321.735 22.792L322.15 23.0707C323.039 21.7459 324.453 21.052 326.503 21.052V20.552V20.052C324.2 20.052 322.435 20.8514 321.32 22.5133L321.735 22.792ZM344.228 24.968V25.468H344.728V24.968H344.228ZM340.611 24.968V24.468H340.111V24.968H340.611ZM341.027 32.84L340.688 33.2074L341.027 32.84ZM342.243 33.288L342.204 33.7864L342.214 33.7872L342.224 33.7876L342.243 33.288ZM344.228 33.256H344.728V32.7282L344.201 32.7567L344.228 33.256ZM344.228 37L344.284 37.4969L344.728 37.4468V37H344.228ZM338.212 36.2L337.914 36.6018L337.917 36.6044L338.212 36.2ZM336.483 24.968H336.983V24.468H336.483V24.968ZM333.7 24.968H333.2V25.468H333.7V24.968ZM333.7 21V20.5H333.2V21H333.7ZM336.483 21V21.5H336.983V21H336.483ZM336.483 17.768L336.339 17.2894L335.983 17.3968V17.768H336.483ZM340.611 16.52H341.111V15.8465L340.467 16.0414L340.611 16.52ZM340.611 21H340.111V21.5H340.611V21ZM344.228 21H344.728V20.5H344.228V21ZM344.228 24.968V24.468H340.611V24.968V25.468H344.228V24.968ZM340.611 24.968H340.111V31.624H340.611H341.111V24.968H340.611ZM340.611 31.624H340.111C340.111 32.2521 340.268 32.8197 340.688 33.2074L341.027 32.84L341.367 32.4726C341.232 32.3483 341.111 32.1052 341.111 31.624H340.611ZM341.027 32.84L340.688 33.2074C341.076 33.5654 341.604 33.7385 342.204 33.7864L342.243 33.288L342.283 32.7896C341.816 32.7522 341.533 32.6266 341.367 32.4726L341.027 32.84ZM342.243 33.288L342.224 33.7876C342.778 33.8098 343.456 33.7984 344.254 33.7553L344.228 33.256L344.201 32.7567C343.42 32.7989 342.776 32.8089 342.263 32.7884L342.243 33.288ZM344.228 33.256H343.728V37H344.228H344.728V33.256H344.228ZM344.228 37L344.171 36.5031C341.354 36.8209 339.517 36.5312 338.506 35.7956L338.212 36.2L337.917 36.6044C339.253 37.5755 341.426 37.8191 344.284 37.4969L344.228 37ZM338.212 36.2L338.509 35.7982C337.541 35.0811 336.983 33.7498 336.983 31.624H336.483H335.983C335.983 33.8929 336.578 35.6122 337.914 36.6018L338.212 36.2ZM336.483 31.624H336.983V24.968H336.483H335.983V31.624H336.483ZM336.483 24.968V24.468H333.7V24.968V25.468H336.483V24.968ZM333.7 24.968H334.2V21H333.7H333.2V24.968H333.7ZM333.7 21V21.5H336.483V21V20.5H333.7V21ZM336.483 21H336.983V17.768H336.483H335.983V21H336.483ZM336.483 17.768L336.628 18.2466L340.756 16.9986L340.611 16.52L340.467 16.0414L336.339 17.2894L336.483 17.768ZM340.611 16.52H340.111V21H340.611H341.111V16.52H340.611ZM340.611 21V21.5H344.228V21V20.5H340.611V21ZM344.228 21H343.728V24.968H344.228H344.728V21H344.228ZM350.434 26.6L350.211 27.0472L350.221 27.0523L350.231 27.0569L350.434 26.6ZM352.514 27.304L352.387 27.7877L352.399 27.7905L352.514 27.304ZM354.946 28.072L354.763 28.5372L354.773 28.5412L354.946 28.072ZM356.994 29.608L356.597 29.9118L356.603 29.9189L356.994 29.608ZM356.002 36.136L356.294 36.5419L356.296 36.541L356.002 36.136ZM344.706 33.64L344.461 33.2042L344.056 33.4322L344.254 33.8529L344.706 33.64ZM348.29 31.624L348.764 31.4637L348.571 30.8926L348.045 31.1882L348.29 31.624ZM352.77 31.304L352.547 31.7512L352.557 31.7563L352.567 31.7609L352.77 31.304ZM350.722 30.568L350.595 31.0515L350.722 30.568ZM348.29 29.768L348.107 30.2331L348.29 29.768ZM346.21 28.264L345.818 28.5734L345.823 28.58L345.828 28.5864L346.21 28.264ZM347.106 21.928L347.413 22.3227L347.414 22.3219L347.106 21.928ZM355.01 21.448L354.766 21.8843L354.773 21.888L355.01 21.448ZM357.538 23.944L357.778 24.3829L358.224 24.1392L357.973 23.6968L357.538 23.944ZM354.018 25.864L353.566 26.0769L353.792 26.5571L354.258 26.3029L354.018 25.864ZM350.114 24.584L349.843 24.1641L349.831 24.172L350.114 24.584ZM349.602 25.544H349.102C349.102 26.2408 349.573 26.7286 350.211 27.0472L350.434 26.6L350.658 26.1528C350.186 25.9167 350.102 25.7005 350.102 25.544H349.602ZM350.434 26.6L350.231 27.0569C350.838 27.3267 351.558 27.5695 352.387 27.7875L352.514 27.304L352.641 26.8205C351.849 26.6119 351.182 26.3853 350.637 26.1431L350.434 26.6ZM352.514 27.304L352.399 27.7905C353.185 27.9768 353.973 28.2255 354.763 28.5371L354.946 28.072L355.13 27.6069C354.298 27.2785 353.464 27.0152 352.629 26.8175L352.514 27.304ZM354.946 28.072L354.773 28.5412C355.49 28.8052 356.097 29.2572 356.597 29.9117L356.994 29.608L357.391 29.3043C356.783 28.5081 356.024 27.9362 355.119 27.6028L354.946 28.072ZM356.994 29.608L356.603 29.9189C357.097 30.541 357.358 31.3324 357.358 32.328H357.858H358.358C358.358 31.1476 358.044 30.1257 357.386 29.2971L356.994 29.608ZM357.858 32.328H357.358C357.358 33.8244 356.805 34.937 355.709 35.731L356.002 36.136L356.296 36.541C357.674 35.543 358.358 34.1169 358.358 32.328H357.858ZM356.002 36.136L355.71 35.7301C354.597 36.5309 353.18 36.948 351.426 36.948V37.448V37.948C353.342 37.948 354.976 37.4904 356.294 36.5419L356.002 36.136ZM351.426 37.448V36.948C349.847 36.948 348.556 36.6429 347.529 36.061C346.507 35.4819 345.716 34.6117 345.159 33.4271L344.706 33.64L344.254 33.8529C344.891 35.207 345.818 36.2408 347.036 36.931C348.249 37.6185 349.721 37.948 351.426 37.948V37.448ZM344.706 33.64L344.951 34.0758L348.535 32.0598L348.29 31.624L348.045 31.1882L344.461 33.2042L344.706 33.64ZM348.29 31.624L347.817 31.7843C348.081 32.5643 348.52 33.1829 349.15 33.6007C349.775 34.0155 350.546 34.204 351.426 34.204V33.704V33.204C350.685 33.204 350.122 33.0458 349.703 32.7673C349.287 32.4918 348.969 32.0703 348.764 31.4637L348.29 31.624ZM351.426 33.704V34.204C352.198 34.204 352.862 34.0867 353.347 33.7843C353.871 33.4575 354.134 32.9472 354.134 32.328H353.634H353.134C353.134 32.6261 353.029 32.8038 352.818 32.9357C352.567 33.092 352.127 33.204 351.426 33.204V33.704ZM353.634 32.328H354.134C354.134 31.6144 353.631 31.1394 352.973 30.8471L352.77 31.304L352.567 31.7609C353.062 31.9806 353.134 32.1882 353.134 32.328H353.634ZM352.77 31.304L352.994 30.8568C352.4 30.5598 351.683 30.3037 350.85 30.0845L350.722 30.568L350.595 31.0515C351.383 31.2589 352.031 31.4936 352.547 31.7512L352.77 31.304ZM350.722 30.568L350.85 30.0845C350.059 29.8764 349.267 29.6159 348.474 29.3029L348.29 29.768L348.107 30.2331C348.935 30.5601 349.764 30.833 350.595 31.0515L350.722 30.568ZM348.29 29.768L348.474 29.3029C347.742 29.0141 347.116 28.5626 346.592 27.9416L346.21 28.264L345.828 28.5864C346.456 29.3307 347.217 29.8819 348.107 30.2331L348.29 29.768ZM346.21 28.264L346.603 27.9546C346.129 27.3529 345.878 26.5926 345.878 25.64H345.378H344.878C344.878 26.7781 345.182 27.7671 345.818 28.5734L346.21 28.264ZM345.378 25.64H345.878C345.878 24.2011 346.394 23.1154 347.413 22.3227L347.106 21.928L346.799 21.5333C345.514 22.5326 344.878 23.9216 344.878 25.64H345.378ZM347.106 21.928L347.414 22.3219C348.486 21.484 349.823 21.052 351.458 21.052V20.552V20.052C349.637 20.052 348.073 20.5373 346.798 21.5341L347.106 21.928ZM351.458 20.552V21.052C352.68 21.052 353.779 21.3314 354.766 21.8843L355.01 21.448L355.255 21.0117C354.108 20.3699 352.839 20.052 351.458 20.052V20.552ZM355.01 21.448L354.773 21.888C355.754 22.4179 356.53 23.1818 357.104 24.1912L357.538 23.944L357.973 23.6968C357.309 22.5302 356.4 21.6301 355.248 21.008L355.01 21.448ZM357.538 23.944L357.299 23.5051L353.779 25.4251L354.018 25.864L354.258 26.3029L357.778 24.3829L357.538 23.944ZM354.018 25.864L354.471 25.6511C354.182 25.0379 353.783 24.5501 353.263 24.2184C352.743 23.8866 352.133 23.732 351.458 23.732V24.232V24.732C351.978 24.732 352.393 24.8494 352.725 25.0616C353.058 25.2739 353.342 25.6021 353.566 26.0769L354.018 25.864ZM351.458 24.232V23.732C350.851 23.732 350.303 23.8661 349.843 24.1642L350.114 24.584L350.386 25.0038C350.65 24.8326 350.999 24.732 351.458 24.732V24.232ZM350.114 24.584L349.831 24.172C349.358 24.4975 349.102 24.9697 349.102 25.544H349.602H350.102C350.102 25.3076 350.188 25.1399 350.398 24.996L350.114 24.584ZM363.646 36.616L363.292 36.2624L363.646 36.616ZM359.805 36.616L359.452 36.9696L359.805 36.616ZM359.805 32.776L360.159 33.1296L359.805 32.776ZM363.646 32.776L363.292 33.1296L363.646 32.776ZM363.646 36.616L363.292 36.2624C362.851 36.7031 362.338 36.916 361.725 36.916V37.416V37.916C362.606 37.916 363.373 37.5956 363.999 36.9696L363.646 36.616ZM361.725 37.416V36.916C361.113 36.916 360.6 36.7031 360.159 36.2624L359.805 36.616L359.452 36.9696C360.078 37.5956 360.845 37.916 361.725 37.916V37.416ZM359.805 36.616L360.159 36.2624C359.718 35.8218 359.505 35.3086 359.505 34.696H359.005H358.505C358.505 35.5768 358.826 36.3435 359.452 36.9696L359.805 36.616ZM359.005 34.696H359.505C359.505 34.0834 359.718 33.5702 360.159 33.1296L359.805 32.776L359.452 32.4224C358.826 33.0485 358.505 33.8152 358.505 34.696H359.005ZM359.805 32.776L360.159 33.1296C360.6 32.6889 361.113 32.476 361.725 32.476V31.976V31.476C360.845 31.476 360.078 31.7964 359.452 32.4224L359.805 32.776ZM361.725 31.976V32.476C362.338 32.476 362.851 32.6889 363.292 33.1296L363.646 32.776L363.999 32.4224C363.373 31.7964 362.606 31.476 361.725 31.476V31.976ZM363.646 32.776L363.292 33.1296C363.733 33.5702 363.945 34.0834 363.945 34.696H364.445H364.945C364.945 33.8152 364.625 33.0485 363.999 32.4224L363.646 32.776ZM364.445 34.696H363.945C363.945 35.3086 363.733 35.8218 363.292 36.2624L363.646 36.616L363.999 36.9696C364.625 36.3435 364.945 35.5768 364.945 34.696H364.445Z" fill="white" mask="url(#path-25-outside-1_4956_9657)"/>
</svg>
