<svg width="26" height="27" viewBox="0 0 26 27" fill="none" xmlns="http://www.w3.org/2000/svg">
<g filter="url(#filter0_g_5076_9957)">
<path d="M13.4544 17.9497L11.694 17.9749C11.3167 17.9749 11.015 17.9497 10.6377 17.9246C10.512 18 10.3863 18 10.2605 17.9246C9.85815 17.497 9.48092 17.0695 9.07855 16.6671C8.24865 15.8624 8.14806 15.7618 7.34331 14.8816C6.84035 14.278 6.63916 14.0769 6.26193 13.6745C5.75897 13.1967 5.38174 12.7943 4.90392 12.2662C4.90392 12.4925 4.90392 12.744 4.90392 12.9703C4.87878 13.3224 4.87878 13.6493 4.87878 13.9763C4.87878 14.6553 4.92907 15.284 4.92907 15.963L4.90392 17.824C4.65244 17.8743 4.42611 17.9246 4.17462 17.9749L1.28256 18.0251L1.30771 12.1153L1.28256 6.02939L1.30771 4.11812V3.08704C1.30771 2.05596 1.30771 1.50269 1.71009 1.27636C1.96157 0.899135 2.51483 0.873985 3.29443 0.873985H4.85363L4.90392 5.40069V6.63295C5.50748 5.90365 6.06075 5.2498 6.63916 4.62109C7.19242 3.96723 7.69539 3.31337 8.29895 2.68467C8.67617 2.28229 9.0031 1.85477 9.38033 1.42725C9.50607 1.25121 9.65696 1.10032 9.80785 0.924283C10.0845 0.899135 10.336 0.899135 10.6126 0.873985H11.1156L13.7813 0.999727C13.4292 1.50269 13.052 2.08111 12.6748 2.55892C11.9706 3.53971 11.4676 4.14327 10.688 4.99831C10.2102 5.57672 9.70726 6.15514 9.20429 6.7587C8.65103 7.41255 8.07261 8.06641 7.4942 8.66997C7.24272 8.9466 7.06668 9.14779 6.89064 9.34897C7.36846 9.90224 7.84628 10.4304 8.37439 10.9333C8.92766 11.4614 9.40548 12.0147 9.93359 12.568C9.98389 12.6434 10.0593 12.6937 10.1096 12.7691C10.7132 13.3224 11.7443 14.4792 12.2472 15.0325C12.4233 15.2588 12.6496 15.5103 12.8508 15.7367L14.5106 17.497L13.4544 17.9497Z" fill="#572D14"/>
</g>
<g filter="url(#filter1_g_5076_9957)">
<path d="M20.4901 15.3713C20.3578 15.3853 20.1815 15.3994 20.0199 15.3994C19.917 15.3994 19.8142 15.4134 19.7113 15.4134H19.5791V15.4275H19.535C19.2558 15.4275 18.9767 15.3994 18.7269 15.3431C18.6828 15.3291 18.624 15.3291 18.5652 15.301C17.7424 15.2026 16.7873 14.6965 16.229 14.2185C16.229 14.2185 15.9939 14.0357 15.9939 14.0217C15.4502 13.5015 15.0388 12.9392 14.7596 12.1941C14.6568 11.9692 14.6127 11.7021 14.5686 11.449C14.5392 11.3225 14.5099 11.196 14.4952 11.0554C14.4805 10.8867 14.4805 10.718 14.4805 10.5493C14.4805 10.3946 14.4805 10.2259 14.4952 10.0713C14.598 8.98881 15.0388 7.96256 15.7294 7.23153C16.0233 6.96442 16.3025 6.69731 16.6404 6.47238C16.9343 6.27556 17.2722 6.09281 17.6396 5.96628C17.6689 5.93817 17.713 5.92411 17.7718 5.92411C18.0216 5.79758 18.3008 5.72729 18.6828 5.657C18.8003 5.657 18.8885 5.657 18.9913 5.64294C19.1236 5.61483 19.2705 5.60077 19.4028 5.58671C19.4762 5.57265 19.5791 5.55859 19.6819 5.55859C19.8583 5.55859 20.0199 5.58671 20.1815 5.62888C20.3138 5.64294 20.4754 5.657 20.6076 5.657V5.67106C21.0484 5.69918 21.2394 5.75541 21.6509 5.89599C21.7096 5.92411 21.8419 5.96628 22.2092 6.13498C22.8263 6.41615 23.179 6.69731 23.5022 7.06283C23.5757 7.13312 23.6345 7.21747 23.7226 7.25964C23.8989 7.42834 24.09 7.63922 24.2222 7.90632C24.2957 8.00473 24.3691 8.13125 24.4279 8.25778C24.4573 8.32807 24.5161 8.39836 24.5455 8.46865C24.663 8.70764 24.7805 8.96069 24.8246 9.26997C24.854 9.31215 24.854 9.38244 24.8687 9.42461C24.9422 9.6636 25.0009 10.1135 25.0009 10.4509C25.0009 10.5633 25.0009 10.6617 24.9716 10.7461C24.9569 10.957 24.9275 11.196 24.8981 11.449C24.8981 11.449 24.8981 11.449 24.8981 11.4631C24.8393 11.7302 24.7659 12.0254 24.6189 12.2925C24.5601 12.4471 24.4867 12.6018 24.4279 12.7283C24.2369 13.1079 24.1928 13.2344 23.8696 13.5999C23.6492 13.8248 23.4728 14.0217 23.2377 14.2325C22.9145 14.4996 22.4149 14.837 21.8713 15.0057C21.8125 15.0198 21.7684 15.0479 21.6949 15.062C21.5921 15.0901 21.4745 15.1323 21.4011 15.1604C21.0484 15.2869 20.7692 15.3431 20.4901 15.3713ZM19.8436 7.47052H19.7113C19.4909 7.49863 19.2999 7.51269 19.0795 7.52675C19.0648 7.52675 19.0354 7.54081 19.006 7.54081C18.7269 7.6111 18.5212 7.69545 18.1979 7.83603C17.8746 8.00473 17.6983 8.15937 17.4779 8.37024C17.2722 8.58112 17.0959 8.80605 16.949 9.08722C16.8902 9.21374 16.8314 9.32621 16.7726 9.46679C16.6992 9.63549 16.6845 9.79013 16.6404 9.94477C16.611 10.1275 16.5963 10.2962 16.5963 10.493C16.5963 10.6055 16.5963 10.7039 16.611 10.8023C16.6551 11.3928 16.9196 11.9973 17.3604 12.5034C17.4926 12.6721 17.6689 12.8127 17.8893 12.9532C18.0657 13.0938 18.2861 13.1922 18.4918 13.3047C18.5212 13.3047 18.5652 13.3188 18.5946 13.3328C18.6681 13.3609 18.7269 13.3609 18.815 13.389C18.9473 13.4172 19.0354 13.4593 19.1677 13.4874C19.2411 13.5015 19.3587 13.5156 19.4615 13.5156C19.5497 13.5577 19.6232 13.5577 19.6966 13.5156H19.7113C19.8729 13.5156 19.9758 13.5296 20.0787 13.5296C20.1668 13.5296 20.1962 13.5296 20.255 13.5156C20.4901 13.4453 20.7252 13.375 20.9603 13.3047C21.019 13.2906 21.1807 13.2063 21.2688 13.1641C21.5333 13.0095 21.7831 12.8267 22.0182 12.658C22.0623 12.6158 22.121 12.5596 22.1651 12.5034C22.1945 12.4471 22.2533 12.3487 22.3267 12.2644C22.3708 12.2081 22.4002 12.1519 22.4296 12.0957C22.5178 11.9692 22.5912 11.8567 22.6353 11.7442L22.7969 11.2381C22.7969 11.21 22.8116 11.1678 22.8263 11.1397V11.0694C22.8704 10.6899 22.8851 10.4509 22.8851 10.3946V10.3806C22.8851 10.3525 22.8998 10.3243 22.8998 10.2962C22.8998 10.0572 22.8116 9.84636 22.7676 9.63549C22.7382 9.55114 22.7235 9.45273 22.6941 9.36838C22.6794 9.29809 22.6353 9.21374 22.5912 9.14345L22.1945 8.56706C22.0476 8.3843 21.9741 8.34213 21.8125 8.2156C21.6362 8.07502 21.3276 7.86415 21.019 7.70951C20.9309 7.65327 20.8574 7.62516 20.7399 7.59704C20.6664 7.59704 20.5488 7.56892 20.446 7.54081C20.3284 7.52675 20.2844 7.52675 20.1962 7.49863C20.0787 7.48458 19.9758 7.47052 19.8436 7.47052Z" fill="#572D14"/>
</g>
<path d="M1.32502 20.8759C1.32526 20.72 1.4517 20.5938 1.60759 20.5938H2.32686C2.48292 20.5938 2.60943 20.7203 2.60943 20.8763V22.4227C2.60943 22.4965 2.63827 22.5673 2.6898 22.6201L2.74876 22.6805C2.87018 22.8049 3.07406 22.7912 3.17775 22.6517L4.62246 20.7078C4.67577 20.636 4.75987 20.5938 4.84925 20.5938H5.61275C5.84451 20.5938 5.97771 20.8574 5.84021 21.044L4.00499 23.5341C3.92451 23.6433 3.93299 23.7943 4.02521 23.8938L6.05766 26.0869C6.22528 26.2678 6.097 26.5615 5.85041 26.5615H5.01734C4.9405 26.5615 4.86697 26.5302 4.8137 26.4749L3.09298 24.6861C2.91698 24.5032 2.60774 24.6271 2.60677 24.8809L2.60145 26.28C2.60086 26.4357 2.47453 26.5615 2.31889 26.5615H1.5994C1.44318 26.5615 1.3166 26.4348 1.31684 26.2785L1.32502 20.8759Z" fill="#572D14"/>
<path d="M8.96035 20.7597C9.00612 20.6587 9.1068 20.5938 9.21773 20.5938H9.69374C9.80494 20.5938 9.90579 20.659 9.95142 20.7604L12.3826 26.163C12.4668 26.35 12.33 26.5615 12.1249 26.5615H11.4566C11.3475 26.5615 11.2482 26.4987 11.2014 26.4001L10.6764 25.2943C10.6296 25.1957 10.5303 25.1329 10.4212 25.1329H8.44871C8.338 25.1329 8.23749 25.1975 8.19158 25.2983L7.69129 26.3961C7.64538 26.4969 7.54487 26.5615 7.43417 26.5615H6.77016C6.56481 26.5615 6.42804 26.3494 6.51278 26.1624L8.96035 20.7597ZM9.69941 24.0026C9.90503 24.0026 10.0418 23.79 9.95655 23.6029L9.70295 23.0463C9.60192 22.8246 9.28638 22.8261 9.18754 23.0488L8.94053 23.6054C8.85762 23.7923 8.99439 24.0026 9.19881 24.0026H9.69941Z" fill="#572D14"/>
<path d="M12.9634 20.8763C12.9634 20.7203 13.0899 20.5938 13.246 20.5938H15.2149C16.0226 20.5938 16.5833 20.7806 16.8967 21.1544C17.2162 21.5221 17.3759 21.9471 17.3759 22.4293C17.3759 22.8935 17.2162 23.3064 16.8967 23.6681C16.5772 24.0297 16.0166 24.2106 15.2149 24.2106H14.5299C14.3739 24.2106 14.2474 24.3371 14.2474 24.4932V26.279C14.2474 26.435 14.1209 26.5615 13.9648 26.5615H13.246C13.0899 26.5615 12.9634 26.435 12.9634 26.279V20.8763ZM15.2149 23.0713C15.7996 23.0713 16.092 22.8543 16.092 22.4203C16.092 21.9621 15.7966 21.7331 15.2058 21.7331H14.5299C14.3739 21.7331 14.2474 21.8596 14.2474 22.0156V22.7887C14.2474 22.9448 14.3739 23.0713 14.5299 23.0713H15.2149Z" fill="#572D14"/>
<path d="M18.0584 20.8763C18.0584 20.7203 18.1849 20.5938 18.341 20.5938H20.3099C21.1177 20.5938 21.6783 20.7806 21.9917 21.1544C22.3112 21.5221 22.471 21.9471 22.471 22.4293C22.471 22.8935 22.3112 23.3064 21.9917 23.6681C21.6722 24.0297 21.1116 24.2106 20.3099 24.2106H19.625C19.4689 24.2106 19.3424 24.3371 19.3424 24.4932V26.279C19.3424 26.435 19.2159 26.5615 19.0598 26.5615H18.341C18.1849 26.5615 18.0584 26.435 18.0584 26.279V20.8763ZM20.3099 23.0713C20.8946 23.0713 21.187 22.8543 21.187 22.4203C21.187 21.9621 20.8916 21.7331 20.3009 21.7331H19.625C19.4689 21.7331 19.3424 21.8596 19.3424 22.0156V22.7887C19.3424 22.9448 19.4689 23.0713 19.625 23.0713H20.3099Z" fill="#572D14"/>
<path d="M22.8709 20.8763C22.8709 20.7203 22.9974 20.5938 23.1534 20.5938H23.8723C24.0283 20.5938 24.1548 20.7203 24.1548 20.8763V26.279C24.1548 26.435 24.0283 26.5615 23.8723 26.5615H23.1534C22.9974 26.5615 22.8709 26.435 22.8709 26.279V20.8763Z" fill="#572D14"/>
<g filter="url(#filter2_g_5076_9957)">
<path d="M17.5268 4.58395C17.4183 4.58395 17.2826 4.57039 17.1877 4.57039C17.0385 4.57039 16.9164 4.58395 16.7672 4.58395C16.6723 4.58395 16.5909 4.58395 16.496 4.58395H16.4417C16.3468 4.58395 16.2247 4.59752 16.1026 4.59752L15.2617 4.57039L15.3024 3.82442V3.71591L15.2888 3.32258C15.2888 3.11913 15.2888 2.92925 15.3024 2.7258C15.4516 2.69868 15.6686 2.65799 15.8314 2.65799C15.9263 2.65799 16.0213 2.67155 16.1026 2.67155C16.2654 2.67155 16.4553 2.63086 16.6045 2.63086C16.6723 2.63086 16.7537 2.64442 16.8622 2.65799C17.0385 2.65799 17.1199 2.64442 17.2148 2.64442H17.364C17.4318 2.63086 17.5268 2.63086 17.6353 2.63086C17.8252 2.63086 18.0422 2.64442 18.2592 2.67155C18.2999 2.67155 18.327 2.67155 18.3677 2.67155C18.4084 2.67155 18.4491 2.67155 18.5033 2.67155C18.5847 2.64442 18.6796 2.64442 18.7881 2.64442C18.8695 2.64442 18.9373 2.64442 19.0323 2.65799C19.1408 2.65799 19.2357 2.65799 19.3307 2.65799C19.507 2.65799 19.6833 2.63086 19.8596 2.63086C19.9139 2.63086 19.9817 2.63086 20.0359 2.64442C20.0495 2.64442 20.0766 2.64442 20.0902 2.64442C20.1038 2.64442 20.1309 2.64442 20.1445 2.64442H20.8904C21.0396 2.64442 21.1888 2.64442 21.338 2.64442C21.4058 2.64442 21.4736 2.64442 21.555 2.64442H23.9286C24.132 2.64442 24.2676 2.69868 24.3897 2.79362C24.4711 2.90212 24.5389 3.01063 24.5389 3.15982L24.5118 4.09568C24.4982 4.36694 24.2948 4.59752 24.0235 4.59752H23.4267L22.8164 4.58395H22.1518C22.0297 4.58395 21.9212 4.58395 21.8127 4.58395C21.7042 4.58395 21.6093 4.58395 21.5143 4.58395H21.4194C21.3244 4.58395 21.2431 4.58395 21.1617 4.58395C21.0803 4.58395 20.9854 4.58395 20.904 4.57039C20.8497 4.57039 20.7955 4.57039 20.7412 4.57039C20.6463 4.57039 20.5107 4.58395 20.4157 4.58395C20.2665 4.58395 20.1445 4.57039 20.0495 4.54326C20.0224 4.54326 20.0088 4.54326 19.9817 4.54326C19.941 4.54326 19.9003 4.54326 19.8596 4.54326C19.6969 4.57039 19.5884 4.58395 19.4663 4.58395C19.3985 4.58395 19.3307 4.58395 19.2357 4.58395H18.8288C18.7339 4.58395 18.6389 4.58395 18.544 4.58395C18.3812 4.58395 18.2185 4.57039 18.0557 4.54326C18.015 4.54326 17.9743 4.54326 17.9472 4.54326C17.9201 4.54326 17.9065 4.54326 17.8794 4.54326C17.7845 4.57039 17.6624 4.58395 17.5268 4.58395Z" fill="#572D14"/>
</g>
<g filter="url(#filter3_g_5076_9957)">
<path d="M17.5268 18.0586C17.4183 18.0586 17.2826 18.045 17.1877 18.045C17.0385 18.045 16.9164 18.0586 16.7672 18.0586C16.6723 18.0586 16.5909 18.0586 16.496 18.0586H16.4417C16.3468 18.0586 16.2247 18.0721 16.1026 18.0721L15.2617 18.045L15.3024 17.299V17.1905L15.2888 16.7972C15.2888 16.5937 15.2888 16.4039 15.3024 16.2004C15.4516 16.1733 15.6686 16.1326 15.8314 16.1326C15.9263 16.1326 16.0213 16.1462 16.1026 16.1462C16.2654 16.1462 16.4553 16.1055 16.6045 16.1055C16.6723 16.1055 16.7537 16.119 16.8622 16.1326C17.0385 16.1326 17.1199 16.119 17.2148 16.119H17.364C17.4318 16.1055 17.5268 16.1055 17.6353 16.1055C17.8252 16.1055 18.0422 16.119 18.2592 16.1462C18.2999 16.1462 18.327 16.1462 18.3677 16.1462C18.4084 16.1462 18.4491 16.1462 18.5033 16.1462C18.5847 16.119 18.6796 16.119 18.7881 16.119C18.8695 16.119 18.9373 16.119 19.0323 16.1326C19.1408 16.1326 19.2357 16.1326 19.3307 16.1326C19.507 16.1326 19.6833 16.1055 19.8596 16.1055C19.9139 16.1055 19.9817 16.1055 20.0359 16.119C20.0495 16.119 20.0766 16.119 20.0902 16.119C20.1038 16.119 20.1309 16.119 20.1445 16.119H20.8904C21.0396 16.119 21.1888 16.119 21.338 16.119C21.4058 16.119 21.4736 16.119 21.555 16.119H23.9286C24.132 16.119 24.2676 16.1733 24.3897 16.2682C24.4711 16.3767 24.5389 16.4852 24.5389 16.6344L24.5118 17.5703C24.4982 17.8416 24.2948 18.0721 24.0235 18.0721H23.4267L22.8164 18.0586H22.1518C22.0297 18.0586 21.9212 18.0586 21.8127 18.0586C21.7042 18.0586 21.6093 18.0586 21.5143 18.0586H21.4194C21.3244 18.0586 21.2431 18.0586 21.1617 18.0586C21.0803 18.0586 20.9854 18.0586 20.904 18.045C20.8497 18.045 20.7955 18.045 20.7412 18.045C20.6463 18.045 20.5107 18.0586 20.4157 18.0586C20.2665 18.0586 20.1445 18.045 20.0495 18.0179C20.0224 18.0179 20.0088 18.0179 19.9817 18.0179C19.941 18.0179 19.9003 18.0179 19.8596 18.0179C19.6969 18.045 19.5884 18.0586 19.4663 18.0586C19.3985 18.0586 19.3307 18.0586 19.2357 18.0586H18.8288C18.7339 18.0586 18.6389 18.0586 18.544 18.0586C18.3812 18.0586 18.2185 18.045 18.0557 18.0179C18.015 18.0179 17.9743 18.0179 17.9472 18.0179C17.9201 18.0179 17.9065 18.0179 17.8794 18.0179C17.7845 18.045 17.6624 18.0586 17.5268 18.0586Z" fill="#572D14"/>
</g>
<defs>
<filter id="filter0_g_5076_9957" x="0.998684" y="0.590481" width="13.7956" height="17.7175" filterUnits="userSpaceOnUse" color-interpolation-filters="sRGB">
<feFlood flood-opacity="0" result="BackgroundImageFix"/>
<feBlend mode="normal" in="SourceGraphic" in2="BackgroundImageFix" result="shape"/>
<feTurbulence type="fractalNoise" baseFrequency="0.24074845016002655 0.24074845016002655" numOctaves="3" seed="6236" />
<feDisplacementMap in="shape" scale="0.56513106822967529" xChannelSelector="R" yChannelSelector="G" result="displacedImage" width="100%" height="100%" />
<feMerge result="effect1_texture_5076_9957">
<feMergeNode in="displacedImage"/>
</feMerge>
</filter>
<filter id="filter1_g_5076_9957" x="14.1979" y="5.27603" width="11.0847" height="10.4343" filterUnits="userSpaceOnUse" color-interpolation-filters="sRGB">
<feFlood flood-opacity="0" result="BackgroundImageFix"/>
<feBlend mode="normal" in="SourceGraphic" in2="BackgroundImageFix" result="shape"/>
<feTurbulence type="fractalNoise" baseFrequency="0.24074845016002655 0.24074845016002655" numOctaves="3" seed="6236" />
<feDisplacementMap in="shape" scale="0.56513106822967529" xChannelSelector="R" yChannelSelector="G" result="displacedImage" width="100%" height="100%" />
<feMerge result="effect1_texture_5076_9957">
<feMergeNode in="displacedImage"/>
</feMerge>
</filter>
<filter id="filter2_g_5076_9957" x="14.9792" y="2.34829" width="9.84247" height="2.53193" filterUnits="userSpaceOnUse" color-interpolation-filters="sRGB">
<feFlood flood-opacity="0" result="BackgroundImageFix"/>
<feBlend mode="normal" in="SourceGraphic" in2="BackgroundImageFix" result="shape"/>
<feTurbulence type="fractalNoise" baseFrequency="0.24074845016002655 0.24074845016002655" numOctaves="3" seed="6236" />
<feDisplacementMap in="shape" scale="0.56513106822967529" xChannelSelector="R" yChannelSelector="G" result="displacedImage" width="100%" height="100%" />
<feMerge result="effect1_texture_5076_9957">
<feMergeNode in="displacedImage"/>
</feMerge>
</filter>
<filter id="filter3_g_5076_9957" x="14.9792" y="15.8229" width="9.84247" height="2.53193" filterUnits="userSpaceOnUse" color-interpolation-filters="sRGB">
<feFlood flood-opacity="0" result="BackgroundImageFix"/>
<feBlend mode="normal" in="SourceGraphic" in2="BackgroundImageFix" result="shape"/>
<feTurbulence type="fractalNoise" baseFrequency="0.24074845016002655 0.24074845016002655" numOctaves="3" seed="6236" />
<feDisplacementMap in="shape" scale="0.56513106822967529" xChannelSelector="R" yChannelSelector="G" result="displacedImage" width="100%" height="100%" />
<feMerge result="effect1_texture_5076_9957">
<feMergeNode in="displacedImage"/>
</feMerge>
</filter>
</defs>
</svg>
