<svg width="283" height="56" viewBox="0 0 283 56" fill="none" xmlns="http://www.w3.org/2000/svg">
<rect width="283" height="56" rx="28" fill="white" fill-opacity="0.1"/>
<circle cx="28" cy="28" r="23" fill="white"/>
<path d="M74.06 26.78V29.2H70.76V32.5H68.34V29.2H65.06V26.78H68.34V23.5H70.76V26.78H74.06ZM76.9198 28.532V26.552H79.8898C80.7991 26.552 81.5104 26.3393 82.0238 25.914C82.5518 25.474 82.8158 24.858 82.8158 24.066C82.8158 23.2887 82.5518 22.6873 82.0238 22.262C81.5104 21.822 80.7991 21.602 79.8898 21.602H76.9198V19.49H87.5237V21.448H83.8058V21.492C84.3191 21.8 84.7078 22.2107 84.9718 22.724C85.2504 23.2373 85.3898 23.7873 85.3898 24.374C85.3898 25.2247 85.1698 25.958 84.7298 26.574C84.2898 27.1753 83.7031 27.63 82.9698 27.938C82.2364 28.246 81.4371 28.4 80.5718 28.4H79.6698L79.9778 28.312C80.4911 28.708 81.1438 29.2873 81.9358 30.05L87.3038 34.956V35H84.0258L76.9198 28.532ZM76.9198 23.384H87.5237V24.858H76.9198V23.384ZM101.618 29.566V32.382H99.968V35H96.91V32.382H89.628V29.566L94.754 19.6H98.01L92.906 29.566H96.91V25.914H99.968V29.566H101.618ZM108.088 25.21C109.569 25.21 110.816 25.6573 111.828 26.552C112.84 27.432 113.346 28.664 113.346 30.248C113.346 31.832 112.81 33.0713 111.74 33.966C110.684 34.8607 109.386 35.308 107.846 35.308C106.599 35.308 105.499 35.0293 104.546 34.472C103.592 33.9147 102.903 33.0933 102.478 32.008L105.074 30.49C105.455 31.722 106.379 32.338 107.846 32.338C108.623 32.338 109.224 32.1547 109.65 31.788C110.09 31.4067 110.31 30.8933 110.31 30.248C110.31 29.6173 110.097 29.1113 109.672 28.73C109.246 28.3487 108.667 28.158 107.934 28.158H103.27L103.886 19.6H112.62V22.438H106.702L106.504 25.21H108.088ZM119.711 25.21C121.192 25.21 122.439 25.6573 123.451 26.552C124.463 27.432 124.969 28.664 124.969 30.248C124.969 31.832 124.433 33.0713 123.363 33.966C122.307 34.8607 121.009 35.308 119.469 35.308C118.222 35.308 117.122 35.0293 116.169 34.472C115.215 33.9147 114.526 33.0933 114.101 32.008L116.697 30.49C117.078 31.722 118.002 32.338 119.469 32.338C120.246 32.338 120.847 32.1547 121.273 31.788C121.713 31.4067 121.933 30.8933 121.933 30.248C121.933 29.6173 121.72 29.1113 121.295 28.73C120.869 28.3487 120.29 28.158 119.557 28.158H114.893L115.509 19.6H124.243V22.438H118.325L118.127 25.21H119.711ZM129.442 34.736C129.075 35.1027 128.635 35.286 128.122 35.286C127.608 35.286 127.168 35.1027 126.802 34.736C126.435 34.3693 126.252 33.9293 126.252 33.416C126.252 32.9027 126.435 32.4627 126.802 32.096C127.168 31.7293 127.608 31.546 128.122 31.546C128.635 31.546 129.075 31.7293 129.442 32.096C129.808 32.4627 129.992 32.9027 129.992 33.416C129.992 33.9293 129.808 34.3693 129.442 34.736ZM131.347 19.6H141.291V22.174L136.077 35H132.865L137.925 22.504H131.347V19.6ZM147.916 35.308C145.995 35.308 144.484 34.582 143.384 33.13C142.299 31.6633 141.756 29.72 141.756 27.3C141.756 24.88 142.299 22.944 143.384 21.492C144.484 20.0253 145.995 19.292 147.916 19.292C149.852 19.292 151.363 20.0253 152.448 21.492C153.534 22.944 154.076 24.88 154.076 27.3C154.076 29.72 153.534 31.6633 152.448 33.13C151.363 34.582 149.852 35.308 147.916 35.308ZM145.584 31.062C146.112 31.9127 146.89 32.338 147.916 32.338C148.943 32.338 149.72 31.9053 150.248 31.04C150.791 30.1747 151.062 28.928 151.062 27.3C151.062 25.6573 150.791 24.4033 150.248 23.538C149.72 22.6727 148.943 22.24 147.916 22.24C146.89 22.24 146.112 22.6727 145.584 23.538C145.056 24.4033 144.792 25.6573 144.792 27.3C144.792 28.9427 145.056 30.1967 145.584 31.062Z" fill="#39B54A"/>
<path d="M167.959 23.984H162.379V28.07H167.725V29.654H162.379V35H160.705V22.4H167.959V23.984ZM170.391 27.512C170.907 26.396 171.843 25.838 173.199 25.838V27.476C172.431 27.44 171.771 27.644 171.219 28.088C170.667 28.532 170.391 29.246 170.391 30.23V35H168.825V26H170.391V27.512ZM180.835 33.866C179.911 34.778 178.789 35.234 177.469 35.234C176.149 35.234 175.027 34.778 174.103 33.866C173.191 32.954 172.735 31.832 172.735 30.5C172.735 29.168 173.191 28.046 174.103 27.134C175.027 26.222 176.149 25.766 177.469 25.766C178.789 25.766 179.911 26.222 180.835 27.134C181.759 28.046 182.221 29.168 182.221 30.5C182.221 31.832 181.759 32.954 180.835 33.866ZM177.469 33.704C178.369 33.704 179.125 33.398 179.737 32.786C180.349 32.174 180.655 31.412 180.655 30.5C180.655 29.588 180.349 28.826 179.737 28.214C179.125 27.602 178.369 27.296 177.469 27.296C176.581 27.296 175.831 27.602 175.219 28.214C174.607 28.826 174.301 29.588 174.301 30.5C174.301 31.412 174.607 32.174 175.219 32.786C175.831 33.398 176.581 33.704 177.469 33.704ZM192.787 25.766C193.795 25.766 194.611 26.096 195.235 26.756C195.859 27.404 196.171 28.286 196.171 29.402V35H194.605V29.456C194.605 28.76 194.425 28.22 194.065 27.836C193.705 27.452 193.225 27.26 192.625 27.26C191.953 27.26 191.413 27.488 191.005 27.944C190.609 28.388 190.411 29.072 190.411 29.996V35H188.845V29.456C188.845 28.76 188.671 28.22 188.323 27.836C187.987 27.452 187.525 27.26 186.937 27.26C186.277 27.26 185.725 27.488 185.281 27.944C184.849 28.4 184.633 29.084 184.633 29.996V35H183.067V26H184.633V27.206C185.245 26.246 186.139 25.766 187.315 25.766C188.527 25.766 189.409 26.276 189.961 27.296C190.585 26.276 191.527 25.766 192.787 25.766ZM210.166 35H208.114L202.678 28.952V35H201.004V22.4H202.678V28.088L207.934 22.4H209.986L204.424 28.52L210.166 35ZM220.06 33.326C218.8 34.598 217.258 35.234 215.434 35.234C213.61 35.234 212.068 34.598 210.808 33.326C209.548 32.054 208.918 30.512 208.918 28.7C208.918 26.876 209.548 25.334 210.808 24.074C212.068 22.802 213.61 22.166 215.434 22.166C217.258 22.166 218.8 22.802 220.06 24.074C221.332 25.334 221.968 26.876 221.968 28.7C221.968 30.512 221.332 32.054 220.06 33.326ZM211.96 32.192C212.896 33.128 214.054 33.596 215.434 33.596C216.814 33.596 217.966 33.128 218.89 32.192C219.826 31.244 220.294 30.08 220.294 28.7C220.294 27.308 219.826 26.144 218.89 25.208C217.966 24.26 216.814 23.786 215.434 23.786C214.054 23.786 212.896 24.26 211.96 25.208C211.036 26.144 210.574 27.308 210.574 28.7C210.574 30.08 211.036 31.244 211.96 32.192ZM235.643 35H233.591L228.155 28.952V35H226.481V22.4H228.155V28.088L233.411 22.4H235.463L229.901 28.52L235.643 35ZM244.66 35L243.634 32.174H237.964L236.938 35H235.156L239.854 22.4H241.744L246.442 35H244.66ZM238.54 30.608H243.058L240.79 24.398L238.54 30.608ZM251.5 22.4C252.664 22.4 253.63 22.79 254.398 23.57C255.178 24.338 255.568 25.298 255.568 26.45C255.568 27.59 255.178 28.55 254.398 29.33C253.63 30.11 252.664 30.5 251.5 30.5H248.602V35H246.928V22.4H251.5ZM251.5 28.934C252.196 28.934 252.772 28.7 253.228 28.232C253.684 27.752 253.912 27.158 253.912 26.45C253.912 25.73 253.684 25.136 253.228 24.668C252.772 24.2 252.196 23.966 251.5 23.966H248.602V28.934H251.5ZM261.117 22.4C262.281 22.4 263.247 22.79 264.015 23.57C264.795 24.338 265.185 25.298 265.185 26.45C265.185 27.59 264.795 28.55 264.015 29.33C263.247 30.11 262.281 30.5 261.117 30.5H258.219V35H256.545V22.4H261.117ZM261.117 28.934C261.813 28.934 262.389 28.7 262.845 28.232C263.301 27.752 263.529 27.158 263.529 26.45C263.529 25.73 263.301 25.136 262.845 24.668C262.389 24.2 261.813 23.966 261.117 23.966H258.219V28.934H261.117ZM266.163 22.4H267.837V35H266.163V22.4Z" fill="#878787"/>
<g filter="url(#filter0_g_5076_9967)">
<path d="M28.4544 32.9497L26.694 32.9749C26.3167 32.9749 26.015 32.9497 25.6377 32.9246C25.512 33 25.3863 33 25.2605 32.9246C24.8581 32.497 24.4809 32.0695 24.0785 31.6671C23.2487 30.8624 23.1481 30.7618 22.3433 29.8816C21.8403 29.278 21.6392 29.0769 21.2619 28.6745C20.759 28.1967 20.3817 27.7943 19.9039 27.2662C19.9039 27.4925 19.9039 27.744 19.9039 27.9703C19.8788 28.3224 19.8788 28.6493 19.8788 28.9763C19.8788 29.6553 19.9291 30.284 19.9291 30.963L19.9039 32.824C19.6524 32.8743 19.4261 32.9246 19.1746 32.9749L16.2826 33.0251L16.3077 27.1153L16.2826 21.0294L16.3077 19.1181V18.087C16.3077 17.056 16.3077 16.5027 16.7101 16.2764C16.9616 15.8991 17.5148 15.874 18.2944 15.874H19.8536L19.9039 20.4007V21.633C20.5075 20.9037 21.0607 20.2498 21.6392 19.6211C22.1924 18.9672 22.6954 18.3134 23.2989 17.6847C23.6762 17.2823 24.0031 16.8548 24.3803 16.4272C24.5061 16.2512 24.657 16.1003 24.8078 15.9243C25.0845 15.8991 25.336 15.8991 25.6126 15.874H26.1156L28.7813 15.9997C28.4292 16.5027 28.052 17.0811 27.6748 17.5589C26.9706 18.5397 26.4676 19.1433 25.688 19.9983C25.2102 20.5767 24.7073 21.1551 24.2043 21.7587C23.651 22.4126 23.0726 23.0664 22.4942 23.67C22.2427 23.9466 22.0667 24.1478 21.8906 24.349C22.3685 24.9022 22.8463 25.4304 23.3744 25.9333C23.9277 26.4614 24.4055 27.0147 24.9336 27.568C24.9839 27.6434 25.0593 27.6937 25.1096 27.7691C25.7132 28.3224 26.7443 29.4792 27.2472 30.0325C27.4233 30.2588 27.6496 30.5103 27.8508 30.7367L29.5106 32.497L28.4544 32.9497Z" fill="#572D14"/>
</g>
<g filter="url(#filter1_g_5076_9967)">
<path d="M35.4901 30.3713C35.3578 30.3853 35.1815 30.3994 35.0199 30.3994C34.917 30.3994 34.8142 30.4134 34.7113 30.4134H34.5791V30.4275H34.535C34.2558 30.4275 33.9767 30.3994 33.7269 30.3431C33.6828 30.3291 33.624 30.3291 33.5652 30.301C32.7424 30.2026 31.7873 29.6965 31.229 29.2185C31.229 29.2185 30.9939 29.0357 30.9939 29.0217C30.4502 28.5015 30.0388 27.9392 29.7596 27.1941C29.6568 26.9692 29.6127 26.7021 29.5686 26.449C29.5392 26.3225 29.5099 26.196 29.4952 26.0554C29.4805 25.8867 29.4805 25.718 29.4805 25.5493C29.4805 25.3946 29.4805 25.2259 29.4952 25.0713C29.598 23.9888 30.0388 22.9626 30.7294 22.2315C31.0233 21.9644 31.3025 21.6973 31.6404 21.4724C31.9343 21.2756 32.2722 21.0928 32.6396 20.9663C32.6689 20.9382 32.713 20.9241 32.7718 20.9241C33.0216 20.7976 33.3008 20.7273 33.6828 20.657C33.8003 20.657 33.8885 20.657 33.9913 20.6429C34.1236 20.6148 34.2705 20.6008 34.4028 20.5867C34.4762 20.5727 34.5791 20.5586 34.6819 20.5586C34.8583 20.5586 35.0199 20.5867 35.1815 20.6289C35.3138 20.6429 35.4754 20.657 35.6076 20.657V20.6711C36.0484 20.6992 36.2394 20.7554 36.6509 20.896C36.7096 20.9241 36.8419 20.9663 37.2092 21.135C37.8263 21.4161 38.179 21.6973 38.5022 22.0628C38.5757 22.1331 38.6345 22.2175 38.7226 22.2596C38.8989 22.4283 39.09 22.6392 39.2222 22.9063C39.2957 23.0047 39.3691 23.1313 39.4279 23.2578C39.4573 23.3281 39.5161 23.3984 39.5455 23.4687C39.663 23.7076 39.7805 23.9607 39.8246 24.27C39.854 24.3121 39.854 24.3824 39.8687 24.4246C39.9422 24.6636 40.0009 25.1135 40.0009 25.4509C40.0009 25.5633 40.0009 25.6617 39.9716 25.7461C39.9569 25.957 39.9275 26.196 39.8981 26.449C39.8981 26.449 39.8981 26.449 39.8981 26.4631C39.8393 26.7302 39.7659 27.0254 39.6189 27.2925C39.5601 27.4471 39.4867 27.6018 39.4279 27.7283C39.2369 28.1079 39.1928 28.2344 38.8696 28.5999C38.6492 28.8248 38.4728 29.0217 38.2377 29.2325C37.9145 29.4996 37.4149 29.837 36.8713 30.0057C36.8125 30.0198 36.7684 30.0479 36.6949 30.062C36.5921 30.0901 36.4745 30.1323 36.4011 30.1604C36.0484 30.2869 35.7692 30.3431 35.4901 30.3713ZM34.8436 22.4705H34.7113C34.4909 22.4986 34.2999 22.5127 34.0795 22.5267C34.0648 22.5267 34.0354 22.5408 34.006 22.5408C33.7269 22.6111 33.5212 22.6954 33.1979 22.836C32.8746 23.0047 32.6983 23.1594 32.4779 23.3702C32.2722 23.5811 32.0959 23.8061 31.949 24.0872C31.8902 24.2137 31.8314 24.3262 31.7726 24.4668C31.6992 24.6355 31.6845 24.7901 31.6404 24.9448C31.611 25.1275 31.5963 25.2962 31.5963 25.493C31.5963 25.6055 31.5963 25.7039 31.611 25.8023C31.6551 26.3928 31.9196 26.9973 32.3604 27.5034C32.4926 27.6721 32.6689 27.8127 32.8893 27.9532C33.0657 28.0938 33.2861 28.1922 33.4918 28.3047C33.5212 28.3047 33.5652 28.3188 33.5946 28.3328C33.6681 28.3609 33.7269 28.3609 33.815 28.389C33.9473 28.4172 34.0354 28.4593 34.1677 28.4874C34.2411 28.5015 34.3587 28.5156 34.4615 28.5156C34.5497 28.5577 34.6232 28.5577 34.6966 28.5156H34.7113C34.8729 28.5156 34.9758 28.5296 35.0787 28.5296C35.1668 28.5296 35.1962 28.5296 35.255 28.5156C35.4901 28.4453 35.7252 28.375 35.9603 28.3047C36.019 28.2906 36.1807 28.2063 36.2688 28.1641C36.5333 28.0095 36.7831 27.8267 37.0182 27.658C37.0623 27.6158 37.121 27.5596 37.1651 27.5034C37.1945 27.4471 37.2533 27.3487 37.3267 27.2644C37.3708 27.2081 37.4002 27.1519 37.4296 27.0957C37.5178 26.9692 37.5912 26.8567 37.6353 26.7442L37.7969 26.2381C37.7969 26.21 37.8116 26.1678 37.8263 26.1397V26.0694C37.8704 25.6899 37.8851 25.4509 37.8851 25.3946V25.3806C37.8851 25.3525 37.8998 25.3243 37.8998 25.2962C37.8998 25.0572 37.8116 24.8464 37.7676 24.6355C37.7382 24.5511 37.7235 24.4527 37.6941 24.3684C37.6794 24.2981 37.6353 24.2137 37.5912 24.1434L37.1945 23.5671C37.0476 23.3843 36.9741 23.3421 36.8125 23.2156C36.6362 23.075 36.3276 22.8641 36.019 22.7095C35.9309 22.6533 35.8574 22.6252 35.7399 22.597C35.6664 22.597 35.5488 22.5689 35.446 22.5408C35.3284 22.5267 35.2844 22.5267 35.1962 22.4986C35.0787 22.4846 34.9758 22.4705 34.8436 22.4705Z" fill="#572D14"/>
</g>
<path d="M16.325 35.8759C16.3253 35.72 16.4517 35.5938 16.6076 35.5938H17.3269C17.4829 35.5938 17.6094 35.7203 17.6094 35.8763V37.4227C17.6094 37.4965 17.6383 37.5673 17.6898 37.6201L17.7488 37.6805C17.8702 37.8049 18.0741 37.7912 18.1777 37.6517L19.6225 35.7078C19.6758 35.636 19.7599 35.5938 19.8492 35.5938H20.6127C20.8445 35.5938 20.9777 35.8574 20.8402 36.044L19.005 38.5341C18.9245 38.6433 18.933 38.7943 19.0252 38.8938L21.0577 41.0869C21.2253 41.2678 21.097 41.5615 20.8504 41.5615H20.0173C19.9405 41.5615 19.867 41.5302 19.8137 41.4749L18.093 39.6861C17.917 39.5032 17.6077 39.6271 17.6068 39.8809L17.6015 41.28C17.6009 41.4357 17.4745 41.5615 17.3189 41.5615H16.5994C16.4432 41.5615 16.3166 41.4348 16.3168 41.2785L16.325 35.8759Z" fill="#572D14"/>
<path d="M23.9603 35.7597C24.0061 35.6587 24.1068 35.5938 24.2177 35.5938H24.6937C24.8049 35.5938 24.9058 35.659 24.9514 35.7604L27.3826 41.163C27.4668 41.35 27.33 41.5615 27.1249 41.5615H26.4566C26.3475 41.5615 26.2482 41.4987 26.2014 41.4001L25.6764 40.2943C25.6296 40.1957 25.5303 40.1329 25.4212 40.1329H23.4487C23.338 40.1329 23.2375 40.1975 23.1916 40.2983L22.6913 41.3961C22.6454 41.4969 22.5449 41.5615 22.4342 41.5615H21.7702C21.5648 41.5615 21.428 41.3494 21.5128 41.1624L23.9603 35.7597ZM24.6994 39.0026C24.905 39.0026 25.0418 38.79 24.9565 38.6029L24.703 38.0463C24.6019 37.8246 24.2864 37.8261 24.1875 38.0488L23.9405 38.6054C23.8576 38.7923 23.9944 39.0026 24.1988 39.0026H24.6994Z" fill="#572D14"/>
<path d="M27.9634 35.8763C27.9634 35.7203 28.0899 35.5938 28.246 35.5938H30.2149C31.0226 35.5938 31.5833 35.7806 31.8967 36.1544C32.2162 36.5221 32.3759 36.9471 32.3759 37.4293C32.3759 37.8935 32.2162 38.3064 31.8967 38.6681C31.5772 39.0297 31.0166 39.2106 30.2149 39.2106H29.5299C29.3739 39.2106 29.2474 39.3371 29.2474 39.4932V41.279C29.2474 41.435 29.1209 41.5615 28.9648 41.5615H28.246C28.0899 41.5615 27.9634 41.435 27.9634 41.279V35.8763ZM30.2149 38.0713C30.7996 38.0713 31.092 37.8543 31.092 37.4203C31.092 36.9621 30.7966 36.7331 30.2058 36.7331H29.5299C29.3739 36.7331 29.2474 36.8596 29.2474 37.0156V37.7887C29.2474 37.9448 29.3739 38.0713 29.5299 38.0713H30.2149Z" fill="#572D14"/>
<path d="M33.0584 35.8763C33.0584 35.7203 33.1849 35.5938 33.341 35.5938H35.3099C36.1177 35.5938 36.6783 35.7806 36.9917 36.1544C37.3112 36.5221 37.471 36.9471 37.471 37.4293C37.471 37.8935 37.3112 38.3064 36.9917 38.6681C36.6722 39.0297 36.1116 39.2106 35.3099 39.2106H34.625C34.4689 39.2106 34.3424 39.3371 34.3424 39.4932V41.279C34.3424 41.435 34.2159 41.5615 34.0598 41.5615H33.341C33.1849 41.5615 33.0584 41.435 33.0584 41.279V35.8763ZM35.3099 38.0713C35.8946 38.0713 36.187 37.8543 36.187 37.4203C36.187 36.9621 35.8916 36.7331 35.3009 36.7331H34.625C34.4689 36.7331 34.3424 36.8596 34.3424 37.0156V37.7887C34.3424 37.9448 34.4689 38.0713 34.625 38.0713H35.3099Z" fill="#572D14"/>
<path d="M37.8709 35.8763C37.8709 35.7203 37.9974 35.5938 38.1534 35.5938H38.8723C39.0283 35.5938 39.1548 35.7203 39.1548 35.8763V41.279C39.1548 41.435 39.0283 41.5615 38.8723 41.5615H38.1534C37.9974 41.5615 37.8709 41.435 37.8709 41.279V35.8763Z" fill="#572D14"/>
<g filter="url(#filter2_g_5076_9967)">
<path d="M32.5268 19.584C32.4183 19.584 32.2826 19.5704 32.1877 19.5704C32.0385 19.5704 31.9164 19.584 31.7672 19.584C31.6723 19.584 31.5909 19.584 31.496 19.584H31.4417C31.3468 19.584 31.2247 19.5975 31.1026 19.5975L30.2617 19.5704L30.3024 18.8244V18.7159L30.2888 18.3226C30.2888 18.1191 30.2888 17.9292 30.3024 17.7258C30.4516 17.6987 30.6686 17.658 30.8314 17.658C30.9263 17.658 31.0213 17.6715 31.1026 17.6715C31.2654 17.6715 31.4553 17.6309 31.6045 17.6309C31.6723 17.6309 31.7537 17.6444 31.8622 17.658C32.0385 17.658 32.1199 17.6444 32.2148 17.6444H32.364C32.4318 17.6309 32.5268 17.6309 32.6353 17.6309C32.8252 17.6309 33.0422 17.6444 33.2592 17.6715C33.2999 17.6715 33.327 17.6715 33.3677 17.6715C33.4084 17.6715 33.4491 17.6715 33.5033 17.6715C33.5847 17.6444 33.6796 17.6444 33.7881 17.6444C33.8695 17.6444 33.9373 17.6444 34.0323 17.658C34.1408 17.658 34.2357 17.658 34.3307 17.658C34.507 17.658 34.6833 17.6309 34.8596 17.6309C34.9139 17.6309 34.9817 17.6309 35.0359 17.6444C35.0495 17.6444 35.0766 17.6444 35.0902 17.6444C35.1038 17.6444 35.1309 17.6444 35.1445 17.6444H35.8904C36.0396 17.6444 36.1888 17.6444 36.338 17.6444C36.4058 17.6444 36.4736 17.6444 36.555 17.6444H38.9286C39.132 17.6444 39.2676 17.6987 39.3897 17.7936C39.4711 17.9021 39.5389 18.0106 39.5389 18.1598L39.5118 19.0957C39.4982 19.3669 39.2948 19.5975 39.0235 19.5975H38.4267L37.8164 19.584H37.1518C37.0297 19.584 36.9212 19.584 36.8127 19.584C36.7042 19.584 36.6093 19.584 36.5143 19.584H36.4194C36.3244 19.584 36.2431 19.584 36.1617 19.584C36.0803 19.584 35.9854 19.584 35.904 19.5704C35.8497 19.5704 35.7955 19.5704 35.7412 19.5704C35.6463 19.5704 35.5107 19.584 35.4157 19.584C35.2665 19.584 35.1445 19.5704 35.0495 19.5433C35.0224 19.5433 35.0088 19.5433 34.9817 19.5433C34.941 19.5433 34.9003 19.5433 34.8596 19.5433C34.6969 19.5704 34.5884 19.584 34.4663 19.584C34.3985 19.584 34.3307 19.584 34.2357 19.584H33.8288C33.7339 19.584 33.6389 19.584 33.544 19.584C33.3812 19.584 33.2185 19.5704 33.0557 19.5433C33.015 19.5433 32.9743 19.5433 32.9472 19.5433C32.9201 19.5433 32.9065 19.5433 32.8794 19.5433C32.7845 19.5704 32.6624 19.584 32.5268 19.584Z" fill="#572D14"/>
</g>
<g filter="url(#filter3_g_5076_9967)">
<path d="M32.5268 33.0586C32.4183 33.0586 32.2826 33.045 32.1877 33.045C32.0385 33.045 31.9164 33.0586 31.7672 33.0586C31.6723 33.0586 31.5909 33.0586 31.496 33.0586H31.4417C31.3468 33.0586 31.2247 33.0721 31.1026 33.0721L30.2617 33.045L30.3024 32.299V32.1905L30.2888 31.7972C30.2888 31.5937 30.2888 31.4039 30.3024 31.2004C30.4516 31.1733 30.6686 31.1326 30.8314 31.1326C30.9263 31.1326 31.0213 31.1462 31.1026 31.1462C31.2654 31.1462 31.4553 31.1055 31.6045 31.1055C31.6723 31.1055 31.7537 31.119 31.8622 31.1326C32.0385 31.1326 32.1199 31.119 32.2148 31.119H32.364C32.4318 31.1055 32.5268 31.1055 32.6353 31.1055C32.8252 31.1055 33.0422 31.119 33.2592 31.1462C33.2999 31.1462 33.327 31.1462 33.3677 31.1462C33.4084 31.1462 33.4491 31.1462 33.5033 31.1462C33.5847 31.119 33.6796 31.119 33.7881 31.119C33.8695 31.119 33.9373 31.119 34.0323 31.1326C34.1408 31.1326 34.2357 31.1326 34.3307 31.1326C34.507 31.1326 34.6833 31.1055 34.8596 31.1055C34.9139 31.1055 34.9817 31.1055 35.0359 31.119C35.0495 31.119 35.0766 31.119 35.0902 31.119C35.1038 31.119 35.1309 31.119 35.1445 31.119H35.8904C36.0396 31.119 36.1888 31.119 36.338 31.119C36.4058 31.119 36.4736 31.119 36.555 31.119H38.9286C39.132 31.119 39.2676 31.1733 39.3897 31.2682C39.4711 31.3767 39.5389 31.4852 39.5389 31.6344L39.5118 32.5703C39.4982 32.8416 39.2948 33.0721 39.0235 33.0721H38.4267L37.8164 33.0586H37.1518C37.0297 33.0586 36.9212 33.0586 36.8127 33.0586C36.7042 33.0586 36.6093 33.0586 36.5143 33.0586H36.4194C36.3244 33.0586 36.2431 33.0586 36.1617 33.0586C36.0803 33.0586 35.9854 33.0586 35.904 33.045C35.8497 33.045 35.7955 33.045 35.7412 33.045C35.6463 33.045 35.5107 33.0586 35.4157 33.0586C35.2665 33.0586 35.1445 33.045 35.0495 33.0179C35.0224 33.0179 35.0088 33.0179 34.9817 33.0179C34.941 33.0179 34.9003 33.0179 34.8596 33.0179C34.6969 33.045 34.5884 33.0586 34.4663 33.0586C34.3985 33.0586 34.3307 33.0586 34.2357 33.0586H33.8288C33.7339 33.0586 33.6389 33.0586 33.544 33.0586C33.3812 33.0586 33.2185 33.045 33.0557 33.0179C33.015 33.0179 32.9743 33.0179 32.9472 33.0179C32.9201 33.0179 32.9065 33.0179 32.8794 33.0179C32.7845 33.045 32.6624 33.0586 32.5268 33.0586Z" fill="#572D14"/>
</g>
<defs>
<filter id="filter0_g_5076_9967" x="15.9987" y="15.5905" width="13.7956" height="17.7175" filterUnits="userSpaceOnUse" color-interpolation-filters="sRGB">
<feFlood flood-opacity="0" result="BackgroundImageFix"/>
<feBlend mode="normal" in="SourceGraphic" in2="BackgroundImageFix" result="shape"/>
<feTurbulence type="fractalNoise" baseFrequency="0.24074845016002655 0.24074845016002655" numOctaves="3" seed="6236" />
<feDisplacementMap in="shape" scale="0.56513106822967529" xChannelSelector="R" yChannelSelector="G" result="displacedImage" width="100%" height="100%" />
<feMerge result="effect1_texture_5076_9967">
<feMergeNode in="displacedImage"/>
</feMerge>
</filter>
<filter id="filter1_g_5076_9967" x="29.1979" y="20.276" width="11.0847" height="10.4343" filterUnits="userSpaceOnUse" color-interpolation-filters="sRGB">
<feFlood flood-opacity="0" result="BackgroundImageFix"/>
<feBlend mode="normal" in="SourceGraphic" in2="BackgroundImageFix" result="shape"/>
<feTurbulence type="fractalNoise" baseFrequency="0.24074845016002655 0.24074845016002655" numOctaves="3" seed="6236" />
<feDisplacementMap in="shape" scale="0.56513106822967529" xChannelSelector="R" yChannelSelector="G" result="displacedImage" width="100%" height="100%" />
<feMerge result="effect1_texture_5076_9967">
<feMergeNode in="displacedImage"/>
</feMerge>
</filter>
<filter id="filter2_g_5076_9967" x="29.9792" y="17.3483" width="9.84247" height="2.53193" filterUnits="userSpaceOnUse" color-interpolation-filters="sRGB">
<feFlood flood-opacity="0" result="BackgroundImageFix"/>
<feBlend mode="normal" in="SourceGraphic" in2="BackgroundImageFix" result="shape"/>
<feTurbulence type="fractalNoise" baseFrequency="0.24074845016002655 0.24074845016002655" numOctaves="3" seed="6236" />
<feDisplacementMap in="shape" scale="0.56513106822967529" xChannelSelector="R" yChannelSelector="G" result="displacedImage" width="100%" height="100%" />
<feMerge result="effect1_texture_5076_9967">
<feMergeNode in="displacedImage"/>
</feMerge>
</filter>
<filter id="filter3_g_5076_9967" x="29.9792" y="30.8229" width="9.84247" height="2.53193" filterUnits="userSpaceOnUse" color-interpolation-filters="sRGB">
<feFlood flood-opacity="0" result="BackgroundImageFix"/>
<feBlend mode="normal" in="SourceGraphic" in2="BackgroundImageFix" result="shape"/>
<feTurbulence type="fractalNoise" baseFrequency="0.24074845016002655 0.24074845016002655" numOctaves="3" seed="6236" />
<feDisplacementMap in="shape" scale="0.56513106822967529" xChannelSelector="R" yChannelSelector="G" result="displacedImage" width="100%" height="100%" />
<feMerge result="effect1_texture_5076_9967">
<feMergeNode in="displacedImage"/>
</feMerge>
</filter>
</defs>
</svg>
