<svg width="153" height="56" viewBox="0 0 153 56" fill="none" xmlns="http://www.w3.org/2000/svg">
<path d="M7.77422 54.7676C3.02518 54.7676 0 52.4634 0 46.0963C0 39.606 3.5527 37.2843 7.77422 37.2843H14.7922C15.1262 37.2843 15.355 37.6185 15.355 38.023V39.7467C15.355 40.802 14.7922 41.5232 13.4554 41.5232H8.4248C5.61079 41.5232 5.17105 43.9505 5.17105 45.9731C5.17105 48.1014 5.61079 50.5287 8.4248 50.5287H14.9505C15.2493 50.5287 15.4958 50.8629 15.4958 51.2674V52.9911C15.4958 54.0464 14.9328 54.7676 13.5785 54.7676H7.77422Z" fill="white"/>
<path d="M28.9801 50.5287V47.3803L23.6329 48.4532C22.5953 48.6644 22.1731 48.9809 22.1731 49.6141C22.1731 50.2297 22.6128 50.5287 23.4923 50.5287H28.9801ZM23.4923 54.7676C18.7257 54.7676 16.8086 52.4986 16.8086 49.579C16.8086 46.835 18.4266 45.1993 21.7509 44.4957L28.9801 43.1238V42.2621C28.9801 41.7695 28.5577 41.5232 27.6959 41.5232H18.5849C18.1101 41.5232 17.8638 41.2769 17.8638 40.7669V39.0959C17.8638 38.0405 18.3915 37.2843 19.6579 37.2843H27.8545C30.5807 37.2843 32.4627 38.1462 33.4828 39.8874C33.9577 40.6965 34.1862 41.5936 34.1862 42.5961V52.9559C34.1862 54.1695 33.5883 54.7676 32.3746 54.7676H23.4923Z" fill="white"/>
<path d="M37.2348 54.7676C36.8655 54.7676 36.6896 54.5917 36.6896 54.2223V52.4458C36.6896 51.2674 37.2348 50.5287 38.5188 50.5287H46.5568C47.5243 50.5287 47.8409 50.2295 47.8409 49.79C47.8409 49.2447 47.5067 48.9456 46.4513 48.717L41.2801 47.5737C38.0264 46.8879 36.3906 45.2168 36.3906 42.5961C36.3906 39.606 38.5188 37.2843 42.5467 37.2843H51.5697C52.0621 37.2843 52.3086 37.4602 52.3086 37.812V39.606C52.3086 40.7845 51.7632 41.5232 50.4968 41.5232H42.5467C41.7023 41.5232 41.4737 41.8397 41.4737 42.2619C41.4737 42.7016 41.8255 43.1063 42.8632 43.3348L48.0695 44.4781C51.3234 45.1817 52.9063 46.8175 52.9063 49.6845C52.9063 52.4458 51.042 54.7676 46.2579 54.7676H37.2348Z" fill="white"/>
<path d="M55.1016 31.2689C55.1016 30.0727 55.8404 29.5452 57.1068 29.5452H59.7451C60.0441 29.5452 60.1848 29.7211 60.1848 30.0727V37.2841H65.4614C71.0548 37.2841 73.1301 39.5708 73.1301 43.968V52.9559C73.1301 54.2222 72.2506 54.7676 71.2481 54.7676H68.557C68.1525 54.7676 68.047 54.574 68.047 54.2222V44.179C68.047 42.8071 67.0973 41.5232 64.9865 41.5232H60.1848V52.9559C60.1848 54.2222 59.5515 54.7676 58.4963 54.7676H55.8404C55.3479 54.7676 55.1016 54.5917 55.1016 54.2222V31.2689Z" fill="white"/>
<path d="M82.1048 50.8548H86.8186C89.6152 50.8548 90.0374 48.41 90.0374 46.2992C90.0374 44.2942 89.6152 41.8493 86.8186 41.8493H82.1048V50.8548ZM77.6725 55.0762C77.1799 55.0762 76.9336 54.9003 76.9336 54.5309V31.5775C76.9336 30.3815 77.6725 29.8538 78.9388 29.8538H81.5771C81.9289 29.8538 82.1048 30.0297 82.1048 30.3815V37.5929H87.4167C91.6556 37.5929 95.2084 39.9146 95.2084 46.4049C95.2084 52.7721 92.2008 55.0762 87.4167 55.0762H77.6725Z" fill="white"/>
<path d="M109.144 51.0072V47.8588L103.797 48.9317C102.759 49.1429 102.337 49.4594 102.337 50.0926C102.337 50.7082 102.777 51.0072 103.656 51.0072H109.144ZM103.656 55.2461C98.8898 55.2461 96.9727 52.9772 96.9727 50.0575C96.9727 47.3135 98.5907 45.6778 101.915 44.9742L109.144 43.6023V42.7406C109.144 42.248 108.722 42.0017 107.86 42.0017H98.749C98.2742 42.0017 98.0279 41.7554 98.0279 41.2454V39.5744C98.0279 38.519 98.5556 37.7628 99.8219 37.7628H108.019C110.745 37.7628 112.627 38.6247 113.647 40.366C114.122 41.1751 114.35 42.0721 114.35 43.0746V53.4345C114.35 54.648 113.752 55.2461 112.539 55.2461H103.656Z" fill="white"/>
<path d="M124.317 55.0762C119.568 55.0762 116.543 52.772 116.543 46.4049C116.543 39.9146 120.096 37.5929 124.317 37.5929H131.335C131.669 37.5929 131.898 37.9271 131.898 38.3316V40.0553C131.898 41.1106 131.335 41.8318 129.998 41.8318H124.968C122.154 41.8318 121.714 44.259 121.714 46.2817C121.714 48.41 122.154 50.8373 124.968 50.8373H131.493C131.792 50.8373 132.039 51.1715 132.039 51.576V53.2997C132.039 54.355 131.476 55.0762 130.121 55.0762H124.317Z" fill="white"/>
<path d="M151.513 37.5929C151.953 37.5929 152.164 37.7512 152.164 38.0679C152.164 38.2085 152.076 38.3844 151.882 38.5779L145.269 45.6309L150.809 53.7043C151.02 54.0032 151.126 54.2671 151.126 54.4605C151.126 54.8299 150.827 55.0762 150.282 55.0762H146.517C145.972 55.0762 145.691 54.8827 145.339 54.3375L139.306 45.5254L146.078 38.191C146.43 37.7863 146.641 37.5929 147.221 37.5929H151.513ZM134.364 55.0762C133.994 55.0762 133.801 54.9003 133.801 54.5309V31.5776C133.801 30.3815 134.54 29.8538 135.806 29.8538H138.444C138.796 29.8538 138.972 30.0297 138.972 30.3815V53.2645C138.972 54.5309 138.233 55.0762 137.195 55.0762H134.364Z" fill="white"/>
<path d="M34.3489 6.82513C33.2936 6.82513 32.6603 7.37037 32.6603 8.63676V20.0695H27.8586C25.748 20.0695 24.7983 18.7856 24.7983 17.4135V7.37037C24.7983 7.01858 24.6926 6.82513 24.288 6.82513H21.597C20.5943 6.82513 19.7148 7.37037 19.7148 8.63676V17.6247C19.7148 22.0218 21.7905 24.3086 27.3836 24.3086H35.8264C36.8994 24.3086 37.7436 23.7809 37.7436 22.5321V7.37037C37.7436 7.00102 37.4973 6.82513 37.0049 6.82513H34.3489Z" fill="white"/>
<mask id="mask0_4587_8394" style="mask-type:luminance" maskUnits="userSpaceOnUse" x="19" y="6" width="19" height="19">
<path d="M34.3528 6.82513C33.2976 6.82513 32.6642 7.37037 32.6642 8.63676V20.0695H27.8625C25.7519 20.0695 24.8022 18.7856 24.8022 17.4135V7.37037C24.8022 7.01858 24.6965 6.82513 24.2919 6.82513H21.6009C20.5982 6.82513 19.7188 7.37037 19.7188 8.63676V17.6247C19.7188 22.0218 21.7944 24.3086 27.3875 24.3086H35.8303C36.9033 24.3086 37.7475 23.7809 37.7475 22.5321V7.37037C37.7475 7.00102 37.5012 6.82513 37.0088 6.82513H34.3528Z" fill="white"/>
</mask>
<g mask="url(#mask0_4587_8394)">
<path d="M-39.2798 191.971L204.301 175.732L186.612 -89.5995L-56.9686 -73.3608L-39.2798 191.971Z" fill="white"/>
</g>
<path d="M42.1554 6.82447C41.1176 6.82447 40.3789 7.36971 40.3789 8.6361V31.5192C40.3789 31.871 40.5548 32.0469 40.9066 32.0469H43.5449C44.8113 32.0469 45.5501 31.5192 45.5501 30.3232V24.3079H50.862C55.1007 24.3079 58.6536 21.986 58.6536 15.4957C58.6536 9.12868 55.6461 6.82447 50.862 6.82447H42.1554ZM45.5501 11.0458H50.2639C53.0605 11.0458 53.4825 13.4906 53.4825 15.6012C53.4825 17.6065 53.0605 20.0513 50.2639 20.0513H45.5501V11.0458Z" fill="white"/>
<mask id="mask1_4587_8394" style="mask-type:luminance" maskUnits="userSpaceOnUse" x="40" y="6" width="19" height="27">
<path d="M42.1632 6.82447C41.1254 6.82447 40.3867 7.36971 40.3867 8.6361V31.5192C40.3867 31.871 40.5626 32.0469 40.9144 32.0469H43.5527C44.8191 32.0469 45.5579 31.5192 45.5579 30.3232V24.3079H50.8698C55.1085 24.3079 58.6614 21.986 58.6614 15.4957C58.6614 9.12868 55.6539 6.82447 50.8698 6.82447H42.1632ZM45.5579 11.0458H50.2717C53.0683 11.0458 53.4903 13.4906 53.4903 15.6012C53.4903 17.6065 53.0683 20.0513 50.2717 20.0513H45.5579V11.0458Z" fill="white"/>
</mask>
<g mask="url(#mask1_4587_8394)">
<path d="M-39.2798 191.971L204.301 175.732L186.612 -89.5995L-56.9686 -73.3608L-39.2798 191.971Z" fill="white"/>
</g>
<path d="M67.8188 6.82513C66.482 6.82513 65.2507 7.1067 64.1428 7.6695C61.8914 8.7951 60.4141 11.2577 60.4141 15.5315C60.4141 21.9867 63.2809 24.3086 67.8188 24.3086H74.4147C75.6811 24.3086 76.2263 23.5697 76.2263 22.5321V20.8082C76.2263 20.4038 75.9801 20.0695 75.6811 20.0695H68.3464C67.1682 20.0695 66.1655 19.5418 65.6906 18.293L72.0929 16.9036C75.2589 16.2704 76.8595 14.7577 76.8595 12.1017C76.8595 9.1469 74.7488 6.82513 70.8792 6.82513H67.8188ZM68.3464 11.0642H70.8792C71.5126 11.0642 71.9874 11.5742 71.9874 11.9433C71.9874 12.2953 71.8642 13.0693 70.4748 13.4209L65.4268 14.5993C65.4268 11.7853 66.9746 11.0642 68.3464 11.0642Z" fill="white"/>
<mask id="mask2_4587_8394" style="mask-type:luminance" maskUnits="userSpaceOnUse" x="60" y="6" width="17" height="19">
<path d="M67.8148 6.82513C66.4781 6.82513 65.2468 7.1067 64.1389 7.6695C61.8875 8.7951 60.4102 11.2577 60.4102 15.5315C60.4102 21.9867 63.277 24.3086 67.8148 24.3086H74.4108C75.6772 24.3086 76.2224 23.5697 76.2224 22.5321V20.8082C76.2224 20.4038 75.9761 20.0695 75.6772 20.0695H68.3425C67.1643 20.0695 66.1616 19.5418 65.6867 18.293L72.089 16.9036C75.255 16.2704 76.8556 14.7577 76.8556 12.1017C76.8556 9.1469 74.7449 6.82513 70.8753 6.82513H67.8148ZM68.3425 11.0642H70.8753C71.5087 11.0642 71.9835 11.5742 71.9835 11.9433C71.9835 12.2953 71.8603 13.0693 70.4709 13.4209L65.4229 14.5993C65.4229 11.7853 66.9706 11.0642 68.3425 11.0642Z" fill="white"/>
</mask>
<g mask="url(#mask2_4587_8394)">
<path d="M-39.2837 191.971L204.297 175.732L186.608 -89.5995L-56.9725 -73.3608L-39.2837 191.971Z" fill="white"/>
</g>
<path d="M86.0182 6.82513C84.6814 6.82513 83.4503 7.1067 82.3421 7.6695C80.0908 8.7951 78.6133 11.2577 78.6133 15.5315C78.6133 21.9867 81.4803 24.3086 86.0182 24.3086H92.6139C93.8803 24.3086 94.4257 23.5697 94.4257 22.5321V20.8082C94.4257 20.4038 94.1794 20.0695 93.8803 20.0695H86.546C85.3674 20.0695 84.3649 19.5418 83.8898 18.293L90.2923 16.9036C93.4585 16.2704 95.0589 14.7577 95.0589 12.1017C95.0589 9.1469 92.9482 6.82513 89.0786 6.82513H86.0182ZM86.546 11.0642H89.0786C89.712 11.0642 90.1868 11.5742 90.1868 11.9433C90.1868 12.2953 90.0638 13.0693 88.674 13.4209L83.626 14.5993C83.626 11.7853 85.1738 11.0642 86.546 11.0642Z" fill="white"/>
<mask id="mask3_4587_8394" style="mask-type:luminance" maskUnits="userSpaceOnUse" x="78" y="6" width="18" height="19">
<path d="M86.0142 6.82513C84.6775 6.82513 83.4464 7.1067 82.3381 7.6695C80.0869 8.7951 78.6094 11.2577 78.6094 15.5315C78.6094 21.9867 81.4764 24.3086 86.0142 24.3086H92.61C93.8764 24.3086 94.4218 23.5697 94.4218 22.5321V20.8082C94.4218 20.4038 94.1755 20.0695 93.8764 20.0695H86.5421C85.3635 20.0695 84.361 19.5418 83.8859 18.293L90.2884 16.9036C93.4546 16.2704 95.055 14.7577 95.055 12.1017C95.055 9.1469 92.9443 6.82513 89.0747 6.82513H86.0142ZM86.5421 11.0642H89.0747C89.7081 11.0642 90.1829 11.5742 90.1829 11.9433C90.1829 12.2953 90.0599 13.0693 88.6701 13.4209L83.6221 14.5993C83.6221 11.7853 85.1699 11.0642 86.5421 11.0642Z" fill="white"/>
</mask>
<g mask="url(#mask3_4587_8394)">
<path d="M-39.2837 191.971L204.297 175.732L186.608 -89.5995L-56.9725 -73.3608L-39.2837 191.971Z" fill="white"/>
</g>
<path d="M1.91748 0.000412941C0.56246 0.000412941 0 0.721372 0 1.77811V3.5013C0 3.90524 0.245437 4.23931 0.545415 4.23931L14.8183 4.25977C13.6763 1.2005 11.1469 0.000412941 7.72104 0.000412941H1.91748Z" fill="white"/>
<path d="M2.04497 13.2457C0.708697 13.2457 0.144531 13.9667 0.144531 15.0218V16.7449C0.144531 17.1506 0.374628 17.4846 0.708695 17.4846L2.79491 17.4865L7.58946 24.5103C7.94227 25.0557 8.2235 25.25 8.76891 25.25H12.5323C13.0777 25.25 13.3777 25.0011 13.3777 24.633C13.3777 24.4406 13.272 24.1762 13.0607 23.8779L8.6462 17.4471C11.2881 17.2205 13.5652 15.9762 14.7105 13.2236L2.04497 13.2457Z" fill="white"/>
<path d="M4.90948 6.6867C4.57542 6.6867 4.38281 7.02077 4.38281 7.42472V9.14789C4.38281 10.145 4.86857 10.8675 6.04633 10.9222C6.09406 10.9239 6.14349 10.9258 6.19291 10.9258H16.1127C16.1621 10.9258 16.2115 10.9239 16.2592 10.9222C17.437 10.8675 17.9228 10.145 17.9228 9.14789V7.42472C17.9228 7.02077 17.7303 6.6867 17.3961 6.6867H4.90948Z" fill="white"/>
</svg>
