<svg width="210" height="39" viewBox="0 0 210 39" fill="none" xmlns="http://www.w3.org/2000/svg">
<path d="M112.811 29.6602C112.384 29.6602 112.181 29.4533 112.181 29.0189V26.9296C112.181 25.5436 112.811 24.6748 114.294 24.6748H123.579C124.696 24.6748 125.062 24.323 125.062 23.8061C125.062 23.1648 124.676 22.813 123.457 22.5442L117.484 21.1996C113.725 20.3929 111.836 18.4277 111.836 15.3455C111.836 11.8289 114.294 9.09829 118.947 9.09829H129.369C129.938 9.09829 130.222 9.30515 130.222 9.71889V11.8289C130.222 13.2148 129.592 14.0836 128.13 14.0836H118.947C117.972 14.0836 117.707 14.4558 117.707 14.9524C117.707 15.4695 118.114 15.9454 119.312 16.2142L125.326 17.5589C129.084 18.3864 130.913 20.3101 130.913 23.682C130.913 26.9296 128.759 29.6602 123.234 29.6602H112.811Z" fill="white"/>
<path d="M134.177 29.6602C133.831 29.6602 133.445 29.4326 133.445 29.0189V3.36828C133.445 2.04428 134.177 1.38237 135.66 1.38237H138.728C139.073 1.38237 139.317 1.50645 139.317 2.02363V9.09829H143.868C144.437 9.09829 144.721 9.30516 144.721 9.73954V11.8289C144.721 13.2148 144.091 14.0836 142.608 14.0836H139.317V27.5295C139.317 29.0189 138.463 29.6602 137.245 29.6602H134.177Z" fill="white"/>
<path d="M160.317 24.6748V20.972L154.14 22.2339C152.942 22.4823 152.454 22.8545 152.454 23.5992C152.454 24.3232 152.962 24.6748 153.978 24.6748H160.317ZM153.978 29.6602C148.472 29.6602 146.258 26.9917 146.258 23.5579C146.258 20.3308 148.127 18.407 151.967 17.5795L160.317 15.9661V14.9526C160.317 14.3733 159.829 14.0836 158.834 14.0836H148.31C147.761 14.0836 147.477 13.7939 147.477 13.1942V11.2289C147.477 9.98771 148.086 9.09829 149.549 9.09829H159.017C162.166 9.09829 164.34 10.112 165.518 12.1598C166.066 13.1114 166.33 14.1664 166.33 15.3455V27.5295C166.33 28.9568 165.64 29.6602 164.238 29.6602H153.978Z" fill="white"/>
<path d="M177.847 29.6602C172.362 29.6602 168.867 26.9502 168.867 19.462C168.867 11.8289 172.971 9.09829 177.847 9.09829H185.953C186.339 9.09829 186.603 9.49138 186.603 9.96706V11.9943C186.603 13.2355 185.953 14.0836 184.409 14.0836H178.598C175.348 14.0836 174.84 16.9383 174.84 19.3171C174.84 21.8202 175.348 24.6748 178.598 24.6748H186.136C186.481 24.6748 186.766 25.0679 186.766 25.5436V27.5708C186.766 28.812 186.116 29.6602 184.551 29.6602H177.847Z" fill="white"/>
<path d="M209.248 9.09829C209.756 9.09829 209.999 9.28451 209.999 9.65696C209.999 9.82233 209.898 10.0292 209.674 10.2567L202.035 18.5517L208.435 28.0467C208.679 28.3983 208.801 28.7086 208.801 28.9361C208.801 29.3705 208.456 29.6602 207.826 29.6602H203.478C202.848 29.6602 202.523 29.4326 202.117 28.7914L195.148 18.4277L202.97 9.80168C203.376 9.3258 203.62 9.09829 204.291 9.09829H209.248ZM189.439 29.6602C189.013 29.6602 188.789 29.4533 188.789 29.0189V2.02383C188.789 0.617037 189.643 -0.00357246 191.105 -0.00357246H194.153C194.559 -0.00357246 194.762 0.203297 194.762 0.617035V27.5295C194.762 29.0189 193.909 29.6602 192.71 29.6602H189.439Z" fill="white"/>
<path d="M28.0558 9.09829C28.5231 9.09829 28.645 9.3258 28.645 9.73954V21.5514C28.645 23.1648 29.742 24.6748 32.1799 24.6748H37.7264V11.2289C37.7264 9.73954 38.4578 9.09829 39.6766 9.09829H42.7445C43.3135 9.09829 43.5978 9.30516 43.5978 9.73954V27.5708C43.5978 29.0395 42.6227 29.6602 41.3833 29.6602H31.6314C25.171 29.6602 22.7734 26.9711 22.7734 21.7995V11.2289C22.7734 9.73954 23.7893 9.09829 24.9473 9.09829H28.0558Z" fill="white"/>
<path d="M52.6216 24.6617H58.0663C61.2966 24.6617 61.7843 21.7864 61.7843 19.4282C61.7843 16.9458 61.2966 14.0705 58.0663 14.0705H52.6216V24.6617ZM52.6216 29.6677V36.7423C52.6216 38.1489 51.7683 38.7695 50.3054 38.7695H47.2582C46.8516 38.7695 46.6484 38.5627 46.6484 38.1489V11.2364C46.6484 9.74706 47.5019 9.1058 48.7005 9.1058H58.7572C64.2832 9.1058 67.7573 11.8158 67.7573 19.304C67.7573 26.9373 63.6534 29.6677 58.7572 29.6677H52.6216Z" fill="white"/>
<path d="M81.4178 16.8555C83.0227 16.4418 83.165 15.5317 83.165 15.118C83.165 14.6836 82.6165 14.0836 81.8849 14.0836H78.9596C77.3747 14.0836 75.5869 14.9317 75.5869 18.2414L81.4178 16.8555ZM78.3499 29.6602C73.1083 29.6602 69.7969 26.9296 69.7969 19.3377C69.7969 14.3111 71.5034 11.4151 74.1039 10.0911C75.3838 9.42924 76.8058 9.09829 78.3499 9.09829H81.8849C86.3546 9.09829 88.7926 11.8289 88.7926 15.304C88.7926 18.4277 86.9438 20.2067 83.2869 20.9514L75.8917 22.5855C76.4402 24.0542 77.5984 24.6748 78.9596 24.6748H87.4315C87.7768 24.6748 88.0613 25.0679 88.0613 25.5436V27.5708C88.0613 28.7914 87.4315 29.6602 85.9685 29.6602H78.3499Z" fill="white"/>
<path d="M102.433 16.8555C104.038 16.4418 104.181 15.5317 104.181 15.118C104.181 14.6836 103.632 14.0836 102.901 14.0836H99.9752C98.3904 14.0836 96.6026 14.9317 96.6026 18.2414L102.433 16.8555ZM99.3655 29.6602C94.1239 29.6602 90.8125 26.9296 90.8125 19.3377C90.8125 14.3111 92.519 11.4151 95.1195 10.0911C96.3994 9.42924 97.8214 9.09829 99.3655 9.09829H102.901C107.37 9.09829 109.808 11.8289 109.808 15.304C109.808 18.4277 107.959 20.2067 104.302 20.9514L96.9073 22.5855C97.4558 24.0542 98.614 24.6748 99.9752 24.6748H108.447C108.792 24.6748 109.077 25.0679 109.077 25.5436V27.5708C109.077 28.7914 108.447 29.6602 106.984 29.6602H99.3655Z" fill="white"/>
<path d="M17.1162 6.08203C15.7972 2.48387 12.8756 1.07266 8.91839 1.07266H2.21483C0.649684 1.07266 0 1.92059 0 3.16341V5.19001C0 5.66508 0.283499 6.05798 0.629997 6.05798L17.1162 6.08203Z" fill="white"/>
<path d="M8.7557 29.9074C9.16323 30.5488 9.48808 30.7773 10.1181 30.7773H14.465C15.095 30.7773 15.4415 30.4847 15.4415 30.0517C15.4415 29.8252 15.3195 29.5145 15.0754 29.1637L9.97632 21.6005C13.0279 21.3339 15.6581 19.8706 16.9811 16.6332L2.35139 16.6593C0.807903 16.6593 0.15625 17.5072 0.15625 18.748V20.7746C0.15625 21.2517 0.42203 21.6446 0.807903 21.6446L3.21764 21.6468L8.7557 29.9074Z" fill="white"/>
<path d="M20.71 9.80843V11.835C20.71 13.0077 20.1489 13.8576 18.7885 13.9218C18.7334 13.9238 18.6763 13.9258 18.6192 13.9258H7.16111C7.10402 13.9258 7.04693 13.9238 6.9918 13.9218C5.6314 13.8576 5.07031 13.0077 5.07031 11.835V9.80843C5.07031 9.33336 5.29278 8.94046 5.67865 8.94046H20.1016C20.4875 8.94046 20.71 9.33336 20.71 9.80843Z" fill="white"/>
</svg>
