<svg width="220" height="80" viewBox="0 0 220 80" fill="none" xmlns="http://www.w3.org/2000/svg">
<path d="M11.2043 79.3086C4.35992 79.3086 0 75.972 0 66.7524C0 57.3543 5.12019 53.9923 11.2043 53.9923H21.3187C21.8001 53.9923 22.1298 54.4763 22.1298 55.0619V57.5579C22.1298 59.0861 21.3187 60.1303 19.3921 60.1303H12.1419C8.08634 60.1303 7.45258 63.6451 7.45258 66.5739C7.45258 69.6558 8.08634 73.1705 12.1419 73.1705H21.5469C21.9775 73.1705 22.3327 73.6545 22.3327 74.2402V76.7361C22.3327 78.2644 21.5213 79.3086 19.5694 79.3086H11.2043Z" fill="black"/>
<path d="M41.7643 73.1705V68.6116L34.058 70.1652C32.5625 70.471 31.954 70.9293 31.954 71.8462C31.954 72.7376 32.5878 73.1705 33.8553 73.1705H41.7643ZM33.8553 79.3086C26.9857 79.3086 24.2227 76.0231 24.2227 71.7953C24.2227 67.822 26.5545 65.4534 31.3456 64.4346L41.7643 62.4481V61.2002C41.7643 60.487 41.1556 60.1303 39.9136 60.1303H26.7828C26.0984 60.1303 25.7434 59.7737 25.7434 59.0353V56.6156C25.7434 55.0874 26.5039 53.9923 28.3291 53.9923H40.1421C44.0711 53.9923 46.7835 55.2404 48.2537 57.7617C48.9381 58.9333 49.2675 60.2323 49.2675 61.684V76.6853C49.2675 78.4426 48.4058 79.3086 46.6565 79.3086H33.8553Z" fill="black"/>
<path d="M53.662 79.3086C53.1297 79.3086 52.8762 79.0539 52.8762 78.5191V75.9466C52.8762 74.2402 53.662 73.1705 55.5124 73.1705H67.097C68.4912 73.1705 68.9476 72.7374 68.9476 72.1009C68.9476 71.3114 68.4659 70.8782 66.9449 70.5473L59.4921 68.8917C54.8028 67.8985 52.4453 65.4789 52.4453 61.684C52.4453 57.3543 55.5124 53.9923 61.3175 53.9923H74.3216C75.0312 53.9923 75.3864 54.247 75.3864 54.7564V57.3543C75.3864 59.0607 74.6004 60.1303 72.7753 60.1303H61.3175C60.1005 60.1303 59.7711 60.5887 59.7711 61.2C59.7711 61.8368 60.2781 62.4227 61.7736 62.7536L69.277 64.4092C73.9666 65.428 76.2479 67.7966 76.2479 71.9481C76.2479 75.9466 73.5611 79.3086 66.6661 79.3086H53.662Z" fill="black"/>
<path d="M79.4141 45.2818C79.4141 43.5497 80.4789 42.7858 82.3041 42.7858H86.1064C86.5372 42.7858 86.7401 43.0406 86.7401 43.5497V53.992H94.3448C102.406 53.992 105.397 57.3032 105.397 63.6705V76.6853C105.397 78.5188 104.129 79.3086 102.685 79.3086H98.8061C98.2232 79.3086 98.0712 79.0282 98.0712 78.5188V63.9761C98.0712 61.9895 96.7024 60.1303 93.6604 60.1303H86.7401V76.6853C86.7401 78.5188 85.8273 79.3086 84.3065 79.3086H80.4789C79.769 79.3086 79.4141 79.0539 79.4141 78.5188V45.2818Z" fill="black"/>
<path d="M118.332 73.6413H125.125C129.156 73.6413 129.764 70.1011 129.764 67.0447C129.764 64.1412 129.156 60.6011 125.125 60.6011H118.332V73.6413ZM111.944 79.7539C111.234 79.7539 110.879 79.4992 110.879 78.9644V45.7271C110.879 43.9953 111.944 43.2312 113.769 43.2312H117.571C118.078 43.2312 118.332 43.4859 118.332 43.9953V54.4376H125.987C132.096 54.4376 137.217 57.7996 137.217 67.1977C137.217 76.4176 132.882 79.7539 125.987 79.7539H111.944Z" fill="black"/>
<path d="M157.296 73.862V69.303L149.589 70.8566C148.094 71.1624 147.485 71.6207 147.485 72.5376C147.485 73.4291 148.119 73.862 149.387 73.862H157.296ZM149.387 80C142.517 80 139.754 76.7145 139.754 72.4868C139.754 68.5134 142.086 66.1448 146.877 65.126L157.296 63.1395V61.8916C157.296 61.1784 156.687 60.8217 155.445 60.8217H142.314C141.63 60.8217 141.275 60.4651 141.275 59.7267V57.307C141.275 55.7788 142.035 54.6837 143.86 54.6837H155.673C159.602 54.6837 162.315 55.9318 163.785 58.4532C164.469 59.6247 164.799 60.9237 164.799 62.3754V77.3767C164.799 79.134 163.937 80 162.188 80H149.387Z" fill="black"/>
<path d="M179.165 79.7539C172.321 79.7539 167.961 76.4173 167.961 67.1977C167.961 57.7996 173.081 54.4376 179.165 54.4376H189.28C189.761 54.4376 190.091 54.9216 190.091 55.5073V58.0032C190.091 59.5314 189.28 60.5757 187.353 60.5757H180.103C176.047 60.5757 175.414 64.0904 175.414 67.0192C175.414 70.1011 176.047 73.6159 180.103 73.6159H189.508C189.938 73.6159 190.294 74.0998 190.294 74.6855V77.1815C190.294 78.7097 189.482 79.7539 187.53 79.7539H179.165Z" fill="black"/>
<path d="M218.363 54.4376C218.996 54.4376 219.301 54.6669 219.301 55.1255C219.301 55.3291 219.174 55.5838 218.895 55.8639L209.364 66.0769L217.349 77.7674C217.653 78.2003 217.805 78.5823 217.805 78.8624C217.805 79.3973 217.374 79.7539 216.588 79.7539H211.163C210.378 79.7539 209.972 79.4738 209.465 78.6843L200.77 65.9242L210.53 55.3036C211.037 54.7177 211.341 54.4376 212.177 54.4376H218.363ZM193.647 79.7539C193.115 79.7539 192.836 79.4992 192.836 78.9644V45.7274C192.836 43.9953 193.901 43.2312 195.726 43.2312H199.528C200.035 43.2312 200.289 43.4859 200.289 43.9953V77.1306C200.289 78.9644 199.224 79.7539 197.728 79.7539H193.647Z" fill="black"/>
<path d="M49.5087 9.88268C47.9879 9.88268 47.0751 10.6722 47.0751 12.506V29.0609H40.1548C37.113 29.0609 35.7443 27.2017 35.7443 25.215V10.6722C35.7443 10.1628 35.592 9.88268 35.0088 9.88268H31.1306C29.6855 9.88268 28.418 10.6722 28.418 12.506V25.5208C28.418 31.8878 31.4094 35.1992 39.4702 35.1992H51.6381C53.1845 35.1992 54.4011 34.4351 54.4011 32.6268V10.6722C54.4011 10.1374 54.0462 9.88268 53.3365 9.88268H49.5087Z" fill="black"/>
<mask id="mask0_4374_8242" style="mask-type:luminance" maskUnits="userSpaceOnUse" x="28" y="9" width="27" height="27">
<path d="M49.5126 9.88268C47.9918 9.88268 47.079 10.6722 47.079 12.506V29.0609H40.1587C37.1169 29.0609 35.7482 27.2017 35.7482 25.215V10.6722C35.7482 10.1628 35.5959 9.88268 35.0127 9.88268H31.1345C29.6894 9.88268 28.4219 10.6722 28.4219 12.506V25.5208C28.4219 31.8878 31.4133 35.1992 39.4741 35.1992H51.6421C53.1884 35.1992 54.4051 34.4351 54.4051 32.6268V10.6722C54.4051 10.1374 54.0501 9.88268 53.3404 9.88268H49.5126Z" fill="white"/>
</mask>
<g mask="url(#mask0_4374_8242)">
<path d="M-56.6057 277.979L294.445 254.465L268.952 -129.743L-82.099 -106.229L-56.6057 277.979Z" fill="black"/>
</g>
<path d="M60.7556 9.88351C59.2599 9.88351 58.1953 10.673 58.1953 12.5068V45.6421C58.1953 46.1515 58.4488 46.4062 58.9558 46.4062H62.7581C64.5833 46.4062 65.6481 45.6421 65.6481 43.9103V35.2H73.3036C79.4125 35.2 84.5329 31.8378 84.5329 22.4397C84.5329 13.2201 80.1986 9.88351 73.3036 9.88351H60.7556ZM65.6481 15.9961H72.4416C76.4722 15.9961 77.0804 19.5363 77.0804 22.5925C77.0804 25.4962 76.4722 29.0363 72.4416 29.0363H65.6481V15.9961Z" fill="black"/>
<mask id="mask1_4374_8242" style="mask-type:luminance" maskUnits="userSpaceOnUse" x="58" y="9" width="27" height="38">
<path d="M60.7635 9.88351C59.2677 9.88351 58.2031 10.673 58.2031 12.5068V45.6421C58.2031 46.1515 58.4566 46.4062 58.9636 46.4062H62.7659C64.5911 46.4062 65.6559 45.6421 65.6559 43.9103V35.2H73.3114C79.4203 35.2 84.5408 31.8378 84.5408 22.4397C84.5408 13.2201 80.2064 9.88351 73.3114 9.88351H60.7635ZM65.6559 15.9961H72.4495C76.48 15.9961 77.0882 19.5363 77.0882 22.5925C77.0882 25.4962 76.48 29.0363 72.4495 29.0363H65.6559V15.9961Z" fill="white"/>
</mask>
<g mask="url(#mask1_4374_8242)">
<path d="M-56.6057 277.981L294.445 254.467L268.952 -129.741L-82.099 -106.227L-56.6057 277.981Z" fill="black"/>
</g>
<path d="M97.7381 9.88268C95.8115 9.88268 94.037 10.2904 92.4403 11.1053C89.1956 12.7352 87.0664 16.3011 87.0664 22.4897C87.0664 31.837 91.1981 35.1992 97.7381 35.1992H107.244C109.069 35.1992 109.855 34.1293 109.855 32.6268V30.1306C109.855 29.5449 109.5 29.0609 109.069 29.0609H98.4986C96.8005 29.0609 95.3554 28.2968 94.671 26.4885L103.898 24.4765C108.461 23.5596 110.768 21.3692 110.768 17.5233C110.768 13.2447 107.726 9.88268 102.149 9.88268H97.7381ZM98.4986 16.021H102.149C103.062 16.021 103.746 16.7594 103.746 17.294C103.746 17.8036 103.568 18.9244 101.566 19.4335L94.2908 21.14C94.2908 17.0652 96.5215 16.021 98.4986 16.021Z" fill="black"/>
<mask id="mask2_4374_8242" style="mask-type:luminance" maskUnits="userSpaceOnUse" x="87" y="9" width="24" height="27">
<path d="M97.7342 9.88268C95.8076 9.88268 94.0331 10.2904 92.4364 11.1053C89.1917 12.7352 87.0625 16.3011 87.0625 22.4897C87.0625 31.837 91.1942 35.1992 97.7342 35.1992H107.24C109.065 35.1992 109.851 34.1293 109.851 32.6268V30.1306C109.851 29.5449 109.496 29.0609 109.066 29.0609H98.4947C96.7966 29.0609 95.3515 28.2968 94.6671 26.4885L103.894 24.4765C108.457 23.5596 110.764 21.3692 110.764 17.5233C110.764 13.2447 107.722 9.88268 102.145 9.88268H97.7342ZM98.4947 16.021H102.145C103.058 16.021 103.742 16.7594 103.742 17.294C103.742 17.8036 103.565 18.9244 101.562 19.4335L94.2869 21.14C94.2869 17.0652 96.5176 16.021 98.4947 16.021Z" fill="white"/>
</mask>
<g mask="url(#mask2_4374_8242)">
<path d="M-56.6057 277.979L294.445 254.465L268.952 -129.743L-82.099 -106.229L-56.6057 277.979Z" fill="black"/>
</g>
<path d="M123.969 9.88268C122.042 9.88268 120.268 10.2904 118.671 11.1053C115.426 12.7352 113.297 16.3011 113.297 22.4897C113.297 31.837 117.429 35.1992 123.969 35.1992H133.475C135.3 35.1992 136.086 34.1293 136.086 32.6268V30.1306C136.086 29.5449 135.731 29.0609 135.3 29.0609H124.73C123.031 29.0609 121.586 28.2968 120.902 26.4885L130.129 24.4765C134.692 23.5596 136.999 21.3692 136.999 17.5233C136.999 13.2447 133.956 9.88268 128.38 9.88268H123.969ZM124.73 16.021H128.38C129.292 16.021 129.977 16.7594 129.977 17.294C129.977 17.8036 129.799 18.9244 127.796 19.4335L120.521 21.14C120.521 17.0652 122.752 16.021 124.73 16.021Z" fill="black"/>
<mask id="mask3_4374_8242" style="mask-type:luminance" maskUnits="userSpaceOnUse" x="113" y="9" width="24" height="27">
<path d="M123.965 9.88268C122.038 9.88268 120.264 10.2904 118.667 11.1053C115.422 12.7352 113.293 16.3011 113.293 22.4897C113.293 31.837 117.425 35.1992 123.965 35.1992H133.471C135.296 35.1992 136.082 34.1293 136.082 32.6268V30.1306C136.082 29.5449 135.727 29.0609 135.296 29.0609H124.726C123.027 29.0609 121.582 28.2968 120.898 26.4885L130.125 24.4765C134.688 23.5596 136.995 21.3692 136.995 17.5233C136.995 13.2447 133.953 9.88268 128.376 9.88268H123.965ZM124.726 16.021H128.376C129.289 16.021 129.973 16.7594 129.973 17.294C129.973 17.8036 129.796 18.9244 127.793 19.4335L120.517 21.14C120.517 17.0652 122.748 16.021 124.726 16.021Z" fill="white"/>
</mask>
<g mask="url(#mask3_4374_8242)">
<path d="M-56.6135 277.979L294.438 254.465L268.944 -129.743L-82.1068 -106.229L-56.6135 277.979Z" fill="black"/>
</g>
<path d="M2.76349 0.000307083C0.810623 0.000307083 0 1.04428 0 2.57447V5.06968C0 5.65461 0.353726 6.13835 0.786058 6.13835L21.3562 6.16797C19.7104 1.73806 16.0651 0.000307083 11.1276 0.000307083H2.76349Z" fill="black"/>
<path d="M2.94596 19.18C1.02011 19.18 0.207031 20.224 0.207031 21.7517V24.2469C0.207031 24.8343 0.538649 25.3181 1.02011 25.3181L4.02679 25.3208L10.9367 35.4914C11.4452 36.2811 11.8505 36.5625 12.6366 36.5625H18.0604C18.8465 36.5625 19.2788 36.2022 19.2788 35.6691C19.2788 35.3904 19.1265 35.0076 18.8219 34.5757L12.4597 25.2637C16.2672 24.9355 19.549 23.1338 21.1997 19.1479L2.94596 19.18Z" fill="black"/>
<path d="M7.07545 9.68396C6.59399 9.68396 6.31641 10.1677 6.31641 10.7526V13.2478C6.31641 14.6916 7.01649 15.7379 8.71389 15.8171C8.78267 15.8196 8.85391 15.8223 8.92515 15.8223H23.2216C23.2928 15.8223 23.3641 15.8196 23.4328 15.8171C25.1302 15.7379 25.8303 14.6916 25.8303 13.2478V10.7526C25.8303 10.1677 25.553 9.68396 25.0713 9.68396H7.07545Z" fill="black"/>
</svg>
