<svg width="152" height="56" viewBox="0 0 152 56" fill="none" xmlns="http://www.w3.org/2000/svg">
<path d="M7.76586 55.5176C3.02193 55.5176 0 53.1819 0 46.728C0 40.1491 3.54888 37.7956 7.76586 37.7956H14.7763C15.11 37.7956 15.3385 38.1344 15.3385 38.5444V40.2916C15.3385 41.3614 14.7763 42.0924 13.4409 42.0924H8.41574C5.60476 42.0924 5.16549 44.5528 5.16549 46.603C5.16549 48.7604 5.60476 51.2208 8.41574 51.2208H14.9345C15.2329 51.2208 15.4791 51.5596 15.4791 51.9696V53.7168C15.4791 54.7866 14.9167 55.5176 13.5639 55.5176H7.76586Z" fill="black"/>
<path d="M28.9474 51.2208V48.0294L23.6061 49.117C22.5695 49.3311 22.1478 49.6519 22.1478 50.2937C22.1478 50.9178 22.5871 51.2208 23.4656 51.2208H28.9474ZM23.4656 55.5176C18.7041 55.5176 16.7891 53.2177 16.7891 50.2581C16.7891 47.4767 18.4053 45.8187 21.7261 45.1055L28.9474 43.7149V42.8413C28.9474 42.342 28.5255 42.0924 27.6647 42.0924H18.5635C18.0892 42.0924 17.8431 41.8427 17.8431 41.3258V39.632C17.8431 38.5622 18.3703 37.7956 19.6353 37.7956H27.823C30.5463 37.7956 32.4263 38.6693 33.4453 40.4343C33.9197 41.2545 34.148 42.1637 34.148 43.18V53.6812C34.148 54.9113 33.5507 55.5176 32.3383 55.5176H23.4656Z" fill="black"/>
<path d="M37.1949 55.5176C36.8259 55.5176 36.6502 55.3393 36.6502 54.9649V53.1641C36.6502 51.9696 37.1949 51.2208 38.4774 51.2208H46.5068C47.4732 51.2208 47.7896 50.9176 47.7896 50.472C47.7896 49.9193 47.4557 49.6161 46.4015 49.3844L41.2358 48.2255C37.9855 47.5303 36.3516 45.8365 36.3516 43.18C36.3516 40.1491 38.4774 37.7956 42.501 37.7956H51.5143C52.0062 37.7956 52.2524 37.9739 52.2524 38.3305V40.1491C52.2524 41.3436 51.7076 42.0924 50.4426 42.0924H42.501C41.6575 42.0924 41.4292 42.4132 41.4292 42.8412C41.4292 43.2869 41.7806 43.6971 42.8172 43.9287L48.0179 45.0877C51.2683 45.8009 52.8495 47.4589 52.8495 50.3651C52.8495 53.1641 50.9872 55.5176 46.2082 55.5176H37.1949Z" fill="black"/>
<path d="M55.043 31.6981C55.043 30.4856 55.781 29.9509 57.0461 29.9509H59.6815C59.9801 29.9509 60.1208 30.1292 60.1208 30.4856V37.7954H65.3917C70.9791 37.7954 73.0521 40.1133 73.0521 44.5706V53.6812C73.0521 54.9647 72.1736 55.5176 71.1721 55.5176H68.4839C68.0799 55.5176 67.9745 55.3213 67.9745 54.9647V44.7845C67.9745 43.3939 67.0258 42.0924 64.9173 42.0924H60.1208V53.6812C60.1208 54.9647 59.4881 55.5176 58.434 55.5176H55.781C55.289 55.5176 55.043 55.3393 55.043 54.9647V31.6981Z" fill="black"/>
<path d="M82.0172 51.5511H86.7259C89.5195 51.5511 89.9413 49.0729 89.9413 46.9333C89.9413 44.9009 89.5195 42.4227 86.7259 42.4227H82.0172V51.5511ZM77.5896 55.8301C77.0976 55.8301 76.8516 55.6518 76.8516 55.2774V32.0106C76.8516 30.7983 77.5896 30.2634 78.8547 30.2634H81.4901C81.8415 30.2634 82.0172 30.4417 82.0172 30.7983V38.1081H87.3234C91.5577 38.1081 95.1068 40.4616 95.1068 47.0405C95.1068 53.4946 92.1024 55.8301 87.3234 55.8301H77.5896Z" fill="black"/>
<path d="M109.026 51.7052V48.5138L103.684 49.6014C102.648 49.8154 102.226 50.1363 102.226 50.7781C102.226 51.4021 102.665 51.7052 103.544 51.7052H109.026ZM103.544 56.002C98.7823 56.002 96.8672 53.7021 96.8672 50.7425C96.8672 47.9611 98.4835 46.303 101.804 45.5899L109.026 44.1992V43.3257C109.026 42.8264 108.604 42.5768 107.743 42.5768H98.6416C98.1673 42.5768 97.9213 42.3271 97.9213 41.8102V40.1164C97.9213 39.0466 98.4484 38.28 99.7134 38.28H107.901C110.624 38.28 112.504 39.1537 113.523 40.9187C113.998 41.7388 114.226 42.6481 114.226 43.6643V54.1656C114.226 55.3957 113.629 56.002 112.416 56.002H103.544Z" fill="black"/>
<path d="M124.184 55.8301C119.44 55.8301 116.418 53.4944 116.418 47.0405C116.418 40.4616 119.967 38.1081 124.184 38.1081H131.194C131.528 38.1081 131.756 38.4469 131.756 38.8569V40.6041C131.756 41.6739 131.194 42.4049 129.859 42.4049H124.834C122.023 42.4049 121.583 44.8653 121.583 46.9155C121.583 49.0729 122.023 51.5333 124.834 51.5333H131.352C131.651 51.5333 131.897 51.8721 131.897 52.2821V54.0293C131.897 55.0991 131.335 55.8301 129.982 55.8301H124.184Z" fill="black"/>
<path d="M151.349 38.1081C151.789 38.1081 151.999 38.2686 151.999 38.5896C151.999 38.7322 151.911 38.9105 151.718 39.1066L145.112 46.2559L150.646 54.4395C150.857 54.7425 150.963 55.0099 150.963 55.206C150.963 55.5804 150.664 55.8301 150.119 55.8301H146.359C145.815 55.8301 145.534 55.634 145.182 55.0813L139.156 46.149L145.92 38.7144C146.272 38.3042 146.482 38.1081 147.062 38.1081H151.349ZM134.219 55.8301C133.85 55.8301 133.656 55.6518 133.656 55.2774V32.0108C133.656 30.7983 134.394 30.2634 135.659 30.2634H138.295C138.646 30.2634 138.822 30.4417 138.822 30.7983V53.9937C138.822 55.2774 138.084 55.8301 137.047 55.8301H134.219Z" fill="black"/>
<path d="M34.3136 6.9185C33.2595 6.9185 32.6268 7.47118 32.6268 8.75485V20.3437H27.8303C25.722 20.3437 24.7733 19.0422 24.7733 17.6514V7.47118C24.7733 7.11459 24.6677 6.9185 24.2635 6.9185H21.5755C20.5738 6.9185 19.6953 7.47118 19.6953 8.75485V17.8655C19.6953 22.3226 21.7687 24.6406 27.3558 24.6406H35.7896C36.8614 24.6406 37.7046 24.1057 37.7046 22.8399V7.47118C37.7046 7.09679 37.4586 6.9185 36.9667 6.9185H34.3136Z" fill="black"/>
<mask id="mask0_4314_8066" style="mask-type:luminance" maskUnits="userSpaceOnUse" x="19" y="6" width="19" height="19">
<path d="M34.3175 6.9185C33.2634 6.9185 32.6307 7.47118 32.6307 8.75485V20.3437H27.8342C25.7259 20.3437 24.7772 19.0422 24.7772 17.6514V7.47118C24.7772 7.11459 24.6716 6.9185 24.2674 6.9185H21.5794C20.5778 6.9185 19.6992 7.47118 19.6992 8.75485V17.8655C19.6992 22.3226 21.7726 24.6406 27.3597 24.6406H35.7935C36.8653 24.6406 37.7086 24.1057 37.7086 22.8399V7.47118C37.7086 7.09679 37.4625 6.9185 36.9706 6.9185H34.3175Z" fill="white"/>
</mask>
<g mask="url(#mask0_4314_8066)">
<path d="M-39.2367 194.591L204.082 178.131L186.412 -90.8231L-56.9065 -74.3627L-39.2367 194.591Z" fill="black"/>
</g>
<path d="M42.1105 6.91962C41.0738 6.91962 40.3359 7.4723 40.3359 8.75598V31.9514C40.3359 32.308 40.5116 32.4863 40.8631 32.4863H43.4985C44.7635 32.4863 45.5016 31.9514 45.5016 30.7391V24.6417H50.8077C55.0419 24.6417 58.5909 22.2881 58.5909 15.7092C58.5909 9.25528 55.5867 6.91962 50.8077 6.91962H42.1105ZM45.5016 11.1986H50.2103C53.0039 11.1986 53.4255 13.6768 53.4255 15.8162C53.4255 17.8488 53.0039 20.327 50.2103 20.327H45.5016V11.1986Z" fill="black"/>
<mask id="mask1_4314_8066" style="mask-type:luminance" maskUnits="userSpaceOnUse" x="40" y="6" width="19" height="27">
<path d="M42.1184 6.91962C41.0816 6.91962 40.3438 7.4723 40.3438 8.75598V31.9514C40.3438 32.308 40.5195 32.4863 40.8709 32.4863H43.5063C44.7713 32.4863 45.5094 31.9514 45.5094 30.7391V24.6417H50.8155C55.0497 24.6417 58.5988 22.2881 58.5988 15.7092C58.5988 9.25528 55.5945 6.91962 50.8155 6.91962H42.1184ZM45.5094 11.1986H50.2181C53.0117 11.1986 53.4333 13.6768 53.4333 15.8162C53.4333 17.8488 53.0117 20.327 50.2181 20.327H45.5094V11.1986Z" fill="white"/>
</mask>
<g mask="url(#mask1_4314_8066)">
<path d="M-39.2367 194.593L204.082 178.133L186.412 -90.8212L-56.9065 -74.3608L-39.2367 194.593Z" fill="black"/>
</g>
<path d="M67.7444 6.9185C66.409 6.9185 65.1791 7.20391 64.0724 7.77439C61.8235 8.91536 60.3477 11.4115 60.3477 15.7437C60.3477 22.287 63.2114 24.6406 67.7444 24.6406H74.3332C75.5983 24.6406 76.1429 23.8917 76.1429 22.8399V21.0925C76.1429 20.6825 75.8969 20.3437 75.5983 20.3437H68.2715C67.0945 20.3437 66.0929 19.8088 65.6185 18.5429L72.014 17.1345C75.1765 16.4927 76.7754 14.9593 76.7754 12.2671C76.7754 9.27196 74.667 6.9185 70.8016 6.9185H67.7444ZM68.2715 11.2154H70.8016C71.4342 11.2154 71.9086 11.7324 71.9086 12.1066C71.9086 12.4633 71.7855 13.2479 70.3975 13.6043L65.355 14.7988C65.355 11.9464 66.9011 11.2154 68.2715 11.2154Z" fill="black"/>
<mask id="mask2_4314_8066" style="mask-type:luminance" maskUnits="userSpaceOnUse" x="60" y="6" width="17" height="19">
<path d="M67.7405 6.9185C66.4051 6.9185 65.1752 7.20391 64.0685 7.77439C61.8195 8.91536 60.3438 11.4115 60.3438 15.7437C60.3438 22.287 63.2075 24.6406 67.7405 24.6406H74.3293C75.5944 24.6406 76.139 23.8917 76.139 22.8399V21.0925C76.139 20.6825 75.893 20.3437 75.5944 20.3437H68.2676C67.0906 20.3437 66.089 19.8088 65.6146 18.5429L72.0101 17.1345C75.1726 16.4927 76.7715 14.9593 76.7715 12.2671C76.7715 9.27196 74.663 6.9185 70.7977 6.9185H67.7405ZM68.2676 11.2154H70.7977C71.4303 11.2154 71.9047 11.7324 71.9047 12.1066C71.9047 12.4633 71.7816 13.2479 70.3936 13.6043L65.3511 14.7988C65.3511 11.9464 66.8972 11.2154 68.2676 11.2154Z" fill="white"/>
</mask>
<g mask="url(#mask2_4314_8066)">
<path d="M-39.2367 194.591L204.082 178.131L186.412 -90.8231L-56.9065 -74.3627L-39.2367 194.591Z" fill="black"/>
</g>
<path d="M85.9243 6.9185C84.5889 6.9185 83.3591 7.20391 82.2521 7.77439C80.0033 8.91536 78.5273 11.4115 78.5273 15.7437C78.5273 22.287 81.3913 24.6406 85.9243 24.6406H92.5129C93.778 24.6406 94.3228 23.8917 94.3228 22.8399V21.0925C94.3228 20.6825 94.0768 20.3437 93.778 20.3437H86.4515C85.2742 20.3437 84.2727 19.8088 83.7982 18.5429L90.1938 17.1345C93.3566 16.4927 94.9553 14.9593 94.9553 12.2671C94.9553 9.27196 92.8468 6.9185 88.9814 6.9185H85.9243ZM86.4515 11.2154H88.9814C89.6141 11.2154 90.0885 11.7324 90.0885 12.1066C90.0885 12.4633 89.9655 13.2479 88.5772 13.6043L83.5347 14.7988C83.5347 11.9464 85.0808 11.2154 86.4515 11.2154Z" fill="black"/>
<mask id="mask3_4314_8066" style="mask-type:luminance" maskUnits="userSpaceOnUse" x="78" y="6" width="17" height="19">
<path d="M85.9203 6.9185C84.585 6.9185 83.3552 7.20391 82.2482 7.77439C79.9994 8.91536 78.5234 11.4115 78.5234 15.7437C78.5234 22.287 81.3874 24.6406 85.9203 24.6406H92.509C93.7741 24.6406 94.3189 23.8917 94.3189 22.8399V21.0925C94.3189 20.6825 94.0729 20.3437 93.7741 20.3437H86.4476C85.2703 20.3437 84.2688 19.8088 83.7943 18.5429L90.1899 17.1345C93.3527 16.4927 94.9514 14.9593 94.9514 12.2671C94.9514 9.27196 92.8429 6.9185 88.9775 6.9185H85.9203ZM86.4476 11.2154H88.9775C89.6102 11.2154 90.0845 11.7324 90.0845 12.1066C90.0845 12.4633 89.9616 13.2479 88.5733 13.6043L83.5308 14.7988C83.5308 11.9464 85.0769 11.2154 86.4476 11.2154Z" fill="white"/>
</mask>
<g mask="url(#mask3_4314_8066)">
<path d="M-39.2406 194.591L204.078 178.131L186.408 -90.8231L-56.9104 -74.3627L-39.2406 194.591Z" fill="black"/>
</g>
<path d="M1.91542 0.000862598C0.561855 0.000862598 0 0.731664 0 1.80283V3.54954C0 3.959 0.245173 4.29763 0.544829 4.29763L14.8023 4.31836C13.6616 1.21733 11.1349 0.000862598 7.71274 0.000862598H1.91542Z" fill="black"/>
<path d="M2.04292 13.4276C0.708091 13.4276 0.144531 14.1584 0.144531 15.2278V16.9745C0.144531 17.3857 0.374381 17.7243 0.708089 17.7243L2.79206 17.7262L7.58145 24.8459C7.93389 25.3987 8.21481 25.5957 8.75964 25.5957H12.519C13.0638 25.5957 13.3635 25.3435 13.3635 24.9703C13.3635 24.7752 13.2579 24.5072 13.0468 24.2049L8.63706 17.6863C11.2761 17.4565 13.5507 16.1953 14.6949 13.4051L2.04292 13.4276Z" fill="black"/>
<path d="M4.90501 6.77923C4.5713 6.77923 4.37891 7.11786 4.37891 7.52732V9.27401C4.37891 10.2847 4.86415 11.0171 6.04064 11.0725C6.08831 11.0743 6.13769 11.0762 6.18706 11.0762H16.0961C16.1455 11.0762 16.1949 11.0743 16.2426 11.0725C17.4191 11.0171 17.9043 10.2847 17.9043 9.27401V7.52732C17.9043 7.11786 17.7121 6.77923 17.3782 6.77923H4.90501Z" fill="black"/>
</svg>
