<svg width="152" height="55" viewBox="0 0 152 55" fill="none" xmlns="http://www.w3.org/2000/svg">
<path d="M7.76586 54.5234C3.02193 54.5234 0 52.2295 0 45.8908C0 39.4294 3.54888 37.1179 7.76586 37.1179H14.7763C15.11 37.1179 15.3385 37.4507 15.3385 37.8534V39.5694C15.3385 40.62 14.7763 41.338 13.4409 41.338H8.41574C5.60476 41.338 5.16549 43.7544 5.16549 45.7681C5.16549 47.8869 5.60476 50.3034 8.41574 50.3034H14.9345C15.2329 50.3034 15.4791 50.6361 15.4791 51.0388V52.7548C15.4791 53.8055 14.9167 54.5234 13.5639 54.5234H7.76586Z" fill="white"/>
<path d="M28.9474 50.3034V47.169L23.6061 48.2372C22.5695 48.4474 22.1478 48.7625 22.1478 49.3929C22.1478 50.0058 22.5871 50.3034 23.4656 50.3034H28.9474ZM23.4656 54.5234C18.7041 54.5234 16.7891 52.2646 16.7891 49.3579C16.7891 46.6262 18.4053 44.9977 21.7261 44.2973L28.9474 42.9315V42.0736C28.9474 41.5832 28.5255 41.338 27.6647 41.338H18.5635C18.0892 41.338 17.8431 41.0928 17.8431 40.5851V38.9215C17.8431 37.8708 18.3703 37.1179 19.6353 37.1179H27.823C30.5463 37.1179 32.4263 37.976 33.4453 39.7095C33.9197 40.515 34.148 41.4081 34.148 42.4061V52.7199C34.148 53.928 33.5507 54.5234 32.3383 54.5234H23.4656Z" fill="white"/>
<path d="M37.1949 54.5234C36.8259 54.5234 36.6502 54.3483 36.6502 53.9806V52.212C36.6502 51.0388 37.1949 50.3034 38.4774 50.3034H46.5068C47.4732 50.3034 47.7896 50.0056 47.7896 49.568C47.7896 49.0252 47.4557 48.7274 46.4015 48.4998L41.2358 47.3616C37.9855 46.6788 36.3516 45.0152 36.3516 42.4061C36.3516 39.4294 38.4774 37.1179 42.501 37.1179H51.5143C52.0062 37.1179 52.2524 37.2931 52.2524 37.6433V39.4294C52.2524 40.6026 51.7076 41.338 50.4426 41.338H42.501C41.6575 41.338 41.4292 41.6531 41.4292 42.0734C41.4292 42.5112 41.7806 42.914 42.8172 43.1416L48.0179 44.2798C51.2683 44.9802 52.8495 46.6087 52.8495 49.463C52.8495 52.212 50.9872 54.5234 46.2082 54.5234H37.1949Z" fill="white"/>
<path d="M55.043 31.1293C55.043 29.9384 55.781 29.4133 57.0461 29.4133H59.6815C59.9801 29.4133 60.1208 29.5884 60.1208 29.9384V37.1178H65.3917C70.9791 37.1178 73.0521 39.3942 73.0521 43.7719V52.7199C73.0521 53.9804 72.1736 54.5234 71.1721 54.5234H68.4839C68.0799 54.5234 67.9745 54.3307 67.9745 53.9804V43.982C67.9745 42.6162 67.0258 41.338 64.9173 41.338H60.1208V52.7199C60.1208 53.9804 59.4881 54.5234 58.434 54.5234H55.781C55.289 54.5234 55.043 54.3483 55.043 53.9804V31.1293Z" fill="white"/>
<path d="M82.0172 50.6275H86.7259C89.5195 50.6275 89.9413 48.1936 89.9413 46.0922C89.9413 44.096 89.5195 41.6621 86.7259 41.6621H82.0172V50.6275ZM77.5896 54.8301C77.0976 54.8301 76.8516 54.655 76.8516 54.2873V31.4359C76.8516 30.2453 77.5896 29.7199 78.8547 29.7199H81.4901C81.8415 29.7199 82.0172 29.895 82.0172 30.2453V37.4246H87.3234C91.5577 37.4246 95.1068 39.736 95.1068 46.1974C95.1068 52.5363 92.1024 54.8301 87.3234 54.8301H77.5896Z" fill="white"/>
<path d="M109.026 50.78V47.6456L103.684 48.7137C102.648 48.924 102.226 49.2391 102.226 49.8694C102.226 50.4823 102.665 50.78 103.544 50.78H109.026ZM103.544 55C98.7823 55 96.8672 52.7412 96.8672 49.8345C96.8672 47.1027 98.4835 45.4743 101.804 44.7738L109.026 43.408V42.5501C109.026 42.0597 108.604 41.8145 107.743 41.8145H98.6416C98.1673 41.8145 97.9213 41.5693 97.9213 41.0617V39.3981C97.9213 38.3474 98.4484 37.5945 99.7134 37.5945H107.901C110.624 37.5945 112.504 38.4526 113.523 40.1861C113.998 40.9916 114.226 41.8846 114.226 42.8827V53.1964C114.226 54.4046 113.629 55 112.416 55H103.544Z" fill="white"/>
<path d="M124.184 54.8301C119.44 54.8301 116.418 52.5361 116.418 46.1974C116.418 39.736 119.967 37.4246 124.184 37.4246H131.194C131.528 37.4246 131.756 37.7573 131.756 38.16V39.876C131.756 40.9267 131.194 41.6446 129.859 41.6446H124.834C122.023 41.6446 121.583 44.0611 121.583 46.0747C121.583 48.1936 122.023 50.61 124.834 50.61H131.352C131.651 50.61 131.897 50.9428 131.897 51.3454V53.0615C131.897 54.1121 131.335 54.8301 129.982 54.8301H124.184Z" fill="white"/>
<path d="M151.349 37.4246C151.789 37.4246 151.999 37.5822 151.999 37.8975C151.999 38.0375 151.911 38.2126 151.718 38.4052L145.112 45.4269L150.646 53.4643C150.857 53.7619 150.963 54.0246 150.963 54.2172C150.963 54.5849 150.664 54.8301 150.119 54.8301H146.359C145.815 54.8301 145.534 54.6375 145.182 54.0947L139.156 45.3218L145.92 38.02C146.272 37.6172 146.482 37.4246 147.062 37.4246H151.349ZM134.219 54.8301C133.85 54.8301 133.656 54.655 133.656 54.2873V31.4361C133.656 30.2453 134.394 29.7199 135.659 29.7199H138.295C138.646 29.7199 138.822 29.895 138.822 30.2453V53.0265C138.822 54.2873 138.084 54.8301 137.047 54.8301H134.219Z" fill="white"/>
<path d="M34.3136 6.79551C33.2595 6.79551 32.6268 7.33833 32.6268 8.59908V19.981H27.8303C25.722 19.981 24.7733 18.7027 24.7733 17.3368V7.33833C24.7733 6.9881 24.6677 6.79551 24.2635 6.79551H21.5755C20.5738 6.79551 19.6953 7.33833 19.6953 8.59908V17.547C19.6953 21.9245 21.7687 24.2012 27.3558 24.2012H35.7896C36.8614 24.2012 37.7046 23.6758 37.7046 22.4326V7.33833C37.7046 6.97062 37.4586 6.79551 36.9667 6.79551H34.3136Z" fill="white"/>
<mask id="mask0_4374_8302" style="mask-type:luminance" maskUnits="userSpaceOnUse" x="19" y="6" width="19" height="19">
<path d="M34.3175 6.79551C33.2634 6.79551 32.6307 7.33833 32.6307 8.59908V19.981H27.8342C25.7259 19.981 24.7772 18.7027 24.7772 17.3368V7.33833C24.7772 6.9881 24.6716 6.79551 24.2674 6.79551H21.5794C20.5778 6.79551 19.6992 7.33833 19.6992 8.59908V17.547C19.6992 21.9245 21.7726 24.2012 27.3597 24.2012H35.7935C36.8653 24.2012 37.7086 23.6758 37.7086 22.4326V7.33833C37.7086 6.97062 37.4625 6.79551 36.9706 6.79551H34.3175Z" fill="white"/>
</mask>
<g mask="url(#mask0_4374_8302)">
<path d="M-39.2368 191.118L204.082 174.951L186.412 -89.2001L-56.9065 -73.0336L-39.2368 191.118Z" fill="white"/>
</g>
<path d="M42.1105 6.79413C41.0738 6.79413 40.3359 7.33695 40.3359 8.5977V31.379C40.3359 31.7292 40.5116 31.9043 40.8631 31.9043H43.4985C44.7635 31.9043 45.5016 31.3789 45.5016 30.1883V24.1998H50.8077C55.0419 24.1998 58.5909 21.8882 58.5909 15.4268C58.5909 9.08809 55.5867 6.79413 50.8077 6.79413H42.1105ZM45.5016 10.9967H50.2103C53.0039 10.9967 53.4255 13.4306 53.4255 15.5318C53.4255 17.5282 53.0039 19.9621 50.2103 19.9621H45.5016V10.9967Z" fill="white"/>
<mask id="mask1_4374_8302" style="mask-type:luminance" maskUnits="userSpaceOnUse" x="40" y="6" width="19" height="26">
<path d="M42.1184 6.79413C41.0816 6.79413 40.3438 7.33695 40.3438 8.5977V31.379C40.3438 31.7292 40.5195 31.9043 40.8709 31.9043H43.5063C44.7713 31.9043 45.5094 31.3789 45.5094 30.1883V24.1998H50.8155C55.0497 24.1998 58.5988 21.8882 58.5988 15.4268C58.5988 9.08809 55.5945 6.79413 50.8155 6.79413H42.1184ZM45.5094 10.9967H50.2181C53.0117 10.9967 53.4333 13.4306 53.4333 15.5318C53.4333 17.5282 53.0117 19.9621 50.2181 19.9621H45.5094V10.9967Z" fill="white"/>
</mask>
<g mask="url(#mask1_4374_8302)">
<path d="M-39.2368 191.116L204.082 174.949L186.412 -89.202L-56.9065 -73.0356L-39.2368 191.116Z" fill="white"/>
</g>
<path d="M67.7444 6.79551C66.409 6.79551 65.1791 7.07583 64.0724 7.63612C61.8235 8.75671 60.3477 11.2083 60.3477 15.4631C60.3477 21.8896 63.2114 24.2012 67.7444 24.2012H74.3332C75.5983 24.2012 76.1429 23.4656 76.1429 22.4326V20.7164C76.1429 20.3137 75.8969 19.981 75.5983 19.981H68.2715C67.0945 19.981 66.0929 19.4556 65.6185 18.2123L72.014 16.8291C75.1765 16.1987 76.7754 14.6928 76.7754 12.0486C76.7754 9.10695 74.667 6.79551 70.8016 6.79551H67.7444ZM68.2715 11.0157H70.8016C71.4342 11.0157 71.9086 11.5234 71.9086 11.8909C71.9086 12.2413 71.7855 13.0119 70.3975 13.3619L65.355 14.5351C65.355 11.7337 66.9011 11.0157 68.2715 11.0157Z" fill="white"/>
<mask id="mask2_4374_8302" style="mask-type:luminance" maskUnits="userSpaceOnUse" x="60" y="6" width="17" height="19">
<path d="M67.7405 6.79551C66.4051 6.79551 65.1752 7.07583 64.0685 7.63612C61.8195 8.75671 60.3438 11.2083 60.3438 15.4631C60.3438 21.8896 63.2075 24.2012 67.7405 24.2012H74.3293C75.5944 24.2012 76.139 23.4656 76.139 22.4326V20.7164C76.139 20.3137 75.893 19.981 75.5944 19.981H68.2676C67.0906 19.981 66.089 19.4556 65.6146 18.2123L72.0101 16.8291C75.1726 16.1987 76.7715 14.6928 76.7715 12.0486C76.7715 9.10695 74.663 6.79551 70.7977 6.79551H67.7405ZM68.2676 11.0157H70.7977C71.4303 11.0157 71.9047 11.5234 71.9047 11.8909C71.9047 12.2413 71.7816 13.0119 70.3936 13.3619L65.3511 14.5351C65.3511 11.7337 66.8972 11.0157 68.2676 11.0157Z" fill="white"/>
</mask>
<g mask="url(#mask2_4374_8302)">
<path d="M-39.2368 191.118L204.082 174.951L186.412 -89.2001L-56.9065 -73.0336L-39.2368 191.118Z" fill="white"/>
</g>
<path d="M85.9243 6.79551C84.5889 6.79551 83.3591 7.07583 82.2521 7.63612C80.0033 8.75671 78.5273 11.2083 78.5273 15.4631C78.5273 21.8896 81.3913 24.2012 85.9243 24.2012H92.5129C93.778 24.2012 94.3228 23.4656 94.3228 22.4326V20.7164C94.3228 20.3137 94.0768 19.981 93.778 19.981H86.4515C85.2742 19.981 84.2727 19.4556 83.7982 18.2123L90.1938 16.8291C93.3566 16.1987 94.9553 14.6928 94.9553 12.0486C94.9553 9.10695 92.8468 6.79551 88.9814 6.79551H85.9243ZM86.4515 11.0157H88.9814C89.6141 11.0157 90.0885 11.5234 90.0885 11.8909C90.0885 12.2413 89.9655 13.0119 88.5772 13.3619L83.5347 14.5351C83.5347 11.7337 85.0808 11.0157 86.4515 11.0157Z" fill="white"/>
<mask id="mask3_4374_8302" style="mask-type:luminance" maskUnits="userSpaceOnUse" x="78" y="6" width="17" height="19">
<path d="M85.9203 6.79551C84.585 6.79551 83.3552 7.07583 82.2482 7.63612C79.9994 8.75671 78.5234 11.2083 78.5234 15.4631C78.5234 21.8896 81.3874 24.2012 85.9203 24.2012H92.509C93.7741 24.2012 94.3189 23.4656 94.3189 22.4326V20.7164C94.3189 20.3137 94.0729 19.981 93.7741 19.981H86.4476C85.2703 19.981 84.2688 19.4556 83.7943 18.2123L90.1899 16.8291C93.3527 16.1987 94.9514 14.6928 94.9514 12.0486C94.9514 9.10695 92.8429 6.79551 88.9775 6.79551H85.9203ZM86.4476 11.0157H88.9775C89.6102 11.0157 90.0845 11.5234 90.0845 11.8909C90.0845 12.2413 89.9616 13.0119 88.5733 13.3619L83.5308 14.5351C83.5308 11.7337 85.0769 11.0157 86.4476 11.0157Z" fill="white"/>
</mask>
<g mask="url(#mask3_4374_8302)">
<path d="M-39.2407 191.116L204.078 174.949L186.408 -89.202L-56.9104 -73.0356L-39.2407 191.116Z" fill="white"/>
</g>
<path d="M1.91542 -0.000164509C0.561855 -0.000164509 0 0.717587 0 1.76963V3.48514C0 3.88729 0.245173 4.21987 0.544829 4.21987L14.8023 4.24023C13.6616 1.19458 11.1349 -0.000164509 7.71274 -0.000164509H1.91542Z" fill="white"/>
<path d="M2.04292 13.1859C0.708091 13.1859 0.144531 13.9036 0.144531 14.954V16.6695C0.144531 17.0733 0.374381 17.4059 0.708089 17.4059L2.79206 17.4078L7.58145 24.4003C7.93389 24.9433 8.21481 25.1367 8.75964 25.1367H12.519C13.0638 25.1367 13.3635 24.889 13.3635 24.5225C13.3635 24.3309 13.2579 24.0677 13.0468 23.7708L8.63706 17.3686C11.2761 17.1429 13.5507 15.9042 14.6949 13.1638L2.04292 13.1859Z" fill="white"/>
<path d="M4.90501 6.65674C4.5713 6.65674 4.37891 6.98932 4.37891 7.39147V9.10698C4.37891 10.0996 4.86415 10.8189 6.04064 10.8734C6.08831 10.8751 6.13769 10.877 6.18706 10.877H16.0961C16.1455 10.877 16.1949 10.8751 16.2426 10.8734C17.4191 10.8189 17.9043 10.0996 17.9043 9.10698V7.39147C17.9043 6.98932 17.7121 6.65674 17.3782 6.65674H4.90501Z" fill="white"/>
</svg>
