<svg width="150" height="38" viewBox="0 0 150 38" fill="none" xmlns="http://www.w3.org/2000/svg">
<path d="M42.5724 19.0623C42.5724 20.8128 42.3405 22.3998 41.8691 23.8158C41.3978 25.2356 40.6926 26.4406 39.7803 27.4385C38.8661 28.4344 37.7333 29.2118 36.399 29.7478C35.08 30.2762 33.5614 30.5499 31.8508 30.5537H31.7995C31.0107 30.5537 30.2485 30.4833 29.5149 30.3522C29.0663 30.2686 28.6292 30.1602 28.2015 30.031C27.0649 29.6832 26.0804 29.17 25.2384 28.4876C24.4097 27.8167 23.7483 26.9747 23.256 25.9788C22.7732 24.9809 22.5337 23.8367 22.5337 22.5367C22.5337 21.4324 22.7124 20.4574 23.0564 19.6059C23.14 19.3949 23.2351 19.1858 23.3396 18.9958C23.4118 18.8494 23.4993 18.7126 23.5829 18.5776C23.6779 18.418 23.7825 18.2735 23.8851 18.1252C23.8851 18.1252 23.8851 18.1138 23.8965 18.1138C24.001 17.9675 24.117 17.8306 24.2443 17.6957C24.3071 17.6121 24.3793 17.5265 24.4553 17.4524C25.0331 16.8746 25.7116 16.4356 26.4814 16.141C27.1105 15.8977 27.7682 15.7551 28.4429 15.7152C28.5892 15.7038 28.7375 15.6981 28.8857 15.6981C29.091 15.6981 29.2868 15.7057 29.4768 15.7228C30.4158 15.8007 31.176 16.082 31.7614 16.5705C32.1492 16.886 32.4324 17.2643 32.611 17.6957C32.7061 17.9466 32.7783 18.2089 32.7992 18.5016C32.8106 18.6175 32.8201 18.7335 32.8201 18.8494C32.8201 19.2885 32.7479 19.699 32.6091 20.1095C32.4723 20.5163 32.305 20.8641 32.0826 21.1587C31.8432 21.0865 31.5695 21.0428 31.2768 21.0428C30.6267 21.0428 30.1117 21.2214 29.7334 21.5692C29.6327 21.6605 29.5472 21.7612 29.4749 21.8714C29.2697 22.1737 29.167 22.5462 29.167 22.9852C29.167 23.1012 29.1784 23.2152 29.186 23.3312C29.1974 23.4034 29.2184 23.4794 29.2393 23.5421C29.2393 23.563 29.2393 23.5858 29.2507 23.6048C29.302 23.7797 29.3742 23.9451 29.4749 24.0952C29.5795 24.2606 29.7144 24.4088 29.8798 24.54C29.9045 24.559 29.9292 24.5799 29.952 24.597C30.1497 24.6749 30.3531 24.7452 30.564 24.808C30.9518 24.9125 31.3851 24.9752 31.8242 24.9752C32.5388 24.9752 33.1641 24.8707 33.702 24.6597C35.3347 24.0173 36.1482 22.4017 36.1482 19.8111C36.1482 18.015 35.7927 16.6807 35.0762 15.8217C34.3634 14.9511 33.3352 14.5178 31.9895 14.5178C31.9059 14.5178 31.8223 14.5197 31.7405 14.5235C28.9865 14.3239 24.0752 14.4779 22.3741 14.5406C21.994 14.5539 21.7716 14.5653 21.7716 14.5653C21.7317 14.4608 21.6879 14.3581 21.648 14.2517C21.3477 13.5637 20.9999 12.9269 20.5989 12.3358C20.0838 11.5756 19.4794 10.8951 18.7913 10.304C18.2972 9.87259 17.7536 9.48295 17.1758 9.14844H32.5939C33.4416 9.14844 34.2912 9.23777 35.1123 9.44684C35.559 9.56088 35.9866 9.69963 36.3971 9.86118C37.7295 10.3972 38.8623 11.1726 39.7784 12.1705C39.9457 12.3491 40.1015 12.5487 40.2612 12.7483C40.9435 13.6188 41.4776 14.6394 41.8672 15.795C42.3386 17.211 42.5705 18.6308 42.5705 19.0623H42.5724Z" fill="white"/>
<path d="M118.337 19.0623C118.337 19.1383 118.337 19.2105 118.335 19.2828C118.32 20.9477 118.086 22.4588 117.634 23.8158C117.163 25.2356 116.458 26.4406 115.545 27.4385C114.631 28.4344 113.498 29.2118 112.164 29.7478C110.845 30.2762 109.326 30.5499 107.616 30.5537H107.564C106.777 30.5537 106.013 30.4833 105.28 30.3522C104.831 30.2686 104.394 30.1602 103.966 30.031C102.83 29.6832 101.845 29.17 101.003 28.4876C100.175 27.8167 99.5132 26.9747 99.0209 25.9788C98.6085 25.1254 98.3728 24.1655 98.3139 23.0917C98.3025 22.9111 98.2986 22.7248 98.2986 22.5367C98.2986 21.4324 98.4773 20.4574 98.8213 19.6059C98.905 19.3949 99 19.1858 99.1045 18.9958C99.1768 18.8494 99.2642 18.7126 99.3478 18.5776C99.4428 18.418 99.5474 18.2735 99.65 18.1252C99.65 18.1252 99.65 18.1138 99.6614 18.1138C99.766 17.9675 99.8819 17.8306 100.009 17.6957C100.072 17.6121 100.144 17.5265 100.22 17.4524C100.798 16.8746 101.477 16.4356 102.246 16.141C102.875 15.8977 103.533 15.7551 104.208 15.7152C104.354 15.7038 104.502 15.6981 104.651 15.6981C104.856 15.6981 105.052 15.7057 105.242 15.7228C106.181 15.8007 106.941 16.082 107.526 16.5705C107.914 16.886 108.197 17.2643 108.376 17.6957C108.471 17.9466 108.543 18.2089 108.564 18.5016C108.576 18.6175 108.585 18.7335 108.585 18.8494C108.585 19.0414 108.572 19.2276 108.545 19.4082C108.511 19.6458 108.454 19.8777 108.376 20.1095C108.239 20.5163 108.072 20.8641 107.849 21.1587C107.61 21.0865 107.336 21.0428 107.044 21.0428C106.394 21.0428 105.878 21.2214 105.5 21.5692C105.4 21.6605 105.314 21.7612 105.242 21.8714C105.036 22.1737 104.934 22.5462 104.934 22.9852C104.934 23.1012 104.945 23.2152 104.953 23.3312C104.96 23.3939 104.979 23.4585 104.998 23.5155C105 23.5231 105.004 23.5345 105.006 23.5421C105.006 23.563 105.006 23.5858 105.017 23.6048C105.069 23.7797 105.141 23.9451 105.242 24.0952C105.346 24.2606 105.481 24.4088 105.647 24.54C105.671 24.559 105.696 24.5799 105.719 24.597C105.916 24.6749 106.12 24.7452 106.331 24.808C106.719 24.9125 107.152 24.9752 107.591 24.9752C108.306 24.9752 108.931 24.8707 109.469 24.6597C110.609 24.2112 111.352 23.2855 111.693 21.8829C111.843 21.2803 111.917 20.5904 111.917 19.8111C111.917 18.015 111.561 16.6807 110.847 15.8217C110.134 14.9511 109.106 14.5178 107.76 14.5178C107.677 14.5178 107.593 14.5197 107.511 14.5235C107.429 14.5178 107.35 14.5121 107.262 14.5064C107.148 14.4988 107.032 14.4931 106.911 14.4874C106.844 14.4817 106.774 14.4798 106.7 14.476C106.648 14.4741 106.595 14.4703 106.54 14.4684C106.521 14.4684 106.502 14.4684 106.483 14.4665C106.411 14.4646 106.335 14.4608 106.262 14.4589C106.243 14.4589 106.224 14.4589 106.203 14.457C106.118 14.4551 106.031 14.4513 105.941 14.4513C105.82 14.4456 105.696 14.4437 105.572 14.4399C105.571 14.4418 105.565 14.4418 105.559 14.4399C105.426 14.438 105.291 14.4342 105.158 14.4342C104.362 14.4209 103.524 14.4228 102.706 14.4285C102.522 14.4304 102.339 14.4342 102.159 14.4361C101.6 14.4437 101.058 14.4551 100.553 14.4665C100.488 14.4665 100.425 14.4684 100.365 14.4722C100.327 14.4722 100.289 14.4741 100.254 14.4741C100.171 14.4741 100.089 14.476 100.009 14.4798C99.8496 14.4855 99.6937 14.4912 99.5455 14.4931C99.4695 14.495 99.3991 14.495 99.3269 14.4988C99.1844 14.5045 99.0456 14.5102 98.9164 14.5121C98.808 14.514 98.7035 14.5197 98.6066 14.5235C98.5305 14.5254 98.4583 14.5292 98.388 14.5311C98.1637 14.5387 97.9774 14.5482 97.8368 14.552C97.6486 14.5577 97.5422 14.5634 97.5422 14.5634C97.5023 14.4589 97.4586 14.3562 97.4186 14.2498C97.3844 14.1681 97.3464 14.0882 97.3084 14.0065C97.3008 13.9894 97.2913 13.9761 97.2837 13.9609C97.2894 13.959 97.2856 13.959 97.2837 13.9552C97.1469 13.3622 96.9568 12.811 96.7116 12.3073C96.1243 11.0871 95.3279 10.0931 94.3301 9.3366C94.235 9.26058 94.1419 9.19976 94.0469 9.14844H108.365C109.106 9.14844 109.849 9.21496 110.575 9.37462C110.672 9.39552 110.769 9.41833 110.864 9.44114C110.953 9.46205 111.039 9.48485 111.126 9.51146C111.208 9.53237 111.288 9.55708 111.369 9.58179C111.428 9.59889 111.485 9.616 111.542 9.63501C111.651 9.66732 111.755 9.70533 111.862 9.74334C111.966 9.78136 112.069 9.81937 112.172 9.85928C113.504 10.3953 114.637 11.1707 115.553 12.1686C115.72 12.3472 115.876 12.5468 116.036 12.7464C116.718 13.6169 117.252 14.6375 117.642 15.7931C118.041 16.9887 118.267 18.1861 118.33 18.7905C118.332 18.8019 118.332 18.8114 118.332 18.8228C118.339 18.9197 118.345 18.9977 118.345 19.0604L118.337 19.0623Z" fill="white"/>
<path d="M20.1983 14.8806C20.1565 14.776 20.1033 14.6715 20.052 14.565C19.4856 13.3372 18.7196 12.3185 17.7636 11.4993C16.7239 10.5965 15.4847 9.93504 14.0478 9.50549C13.7532 9.41046 13.4491 9.33824 13.1336 9.26411C11.957 8.99042 10.6988 8.85547 9.36455 8.85547C7.76989 8.85547 6.3311 9.02273 5.03865 9.35914C3.7576 9.69556 2.67613 10.1365 1.80563 10.7029C1.24873 11.0906 0.80778 11.5221 0.482767 12.0049C0.167258 12.4781 0 13.0958 0 13.8523V34.0088C0 34.7025 0.083629 35.2689 0.252788 35.7099C0.420046 36.1394 0.672833 36.4872 1.00925 36.7381C1.34567 36.9909 1.75431 37.1582 2.24848 37.2418C2.74265 37.3254 3.28814 37.3672 3.90775 37.3672C4.52737 37.3672 5.1774 37.314 5.79701 37.2209C6.41663 37.1164 6.85758 37.0327 7.14078 36.9472V29.9775C8.18044 30.3348 9.30373 30.523 10.4992 30.523C12.0958 30.523 13.5441 30.293 14.846 29.852C16.148 29.3997 17.2599 28.7174 18.1836 27.8145C19.1073 26.9003 19.822 25.777 20.3256 24.4333C20.8293 23.0895 21.0821 21.5158 21.0821 19.731C21.0821 17.8513 20.7875 16.2357 20.2002 14.8806H20.1983ZM9.44818 24.8951C9.00722 24.8951 8.57767 24.8324 8.18804 24.7279C7.8003 24.6119 7.43158 24.4751 7.09706 24.3078V15.0687C7.40117 14.9015 7.76989 14.7532 8.18804 14.6278C8.60809 14.5023 9.09085 14.4396 9.61543 14.4396C10.9592 14.4396 11.9875 14.8692 12.7021 15.7416C13.4168 16.6026 13.7722 17.9349 13.7722 19.731C13.7722 23.175 12.3334 24.8951 9.44628 24.8951H9.44818Z" fill="white"/>
<path d="M46.6053 24.6898C46.2974 23.9903 45.9667 23.2073 45.6188 22.3387C45.2691 21.472 44.9061 20.4779 44.5279 19.3565C44.1515 18.237 43.7581 16.956 43.3514 15.5134C42.9446 14.0727 42.5189 12.4134 42.0703 10.5375C42.4618 10.1459 42.9864 9.80191 43.646 9.50731C44.3036 9.2127 45.0239 9.06635 45.8089 9.06635C46.7877 9.06635 47.5993 9.26972 48.2437 9.67457C48.888 10.0813 49.3631 10.8435 49.671 11.963L52.9877 23.5114H53.155C53.4895 22.5591 53.8202 21.5252 54.1414 20.4038C54.4626 19.2843 54.7781 18.1306 55.086 16.9389C55.3939 15.7491 55.6809 14.5593 55.947 13.3694C56.2131 12.1796 56.445 11.0107 56.6408 9.86273C57.6481 9.33245 58.7543 9.06445 59.9574 9.06445C60.9382 9.06445 61.7478 9.27543 62.3941 9.69357C63.0384 10.1136 63.3596 10.8416 63.3596 11.8774C63.3596 12.6339 63.2608 13.5082 63.065 14.5022C62.8692 15.4963 62.6107 16.553 62.2876 17.6725C61.9645 18.792 61.5882 19.9476 61.1548 21.1374C60.7196 22.3273 60.2653 23.4962 59.7902 24.6442C59.315 25.7922 58.8246 26.8774 58.3209 27.9C57.8173 28.9225 57.3269 29.8387 56.8517 30.6502C56.0668 32.0206 55.3407 33.1401 54.6679 34.0087C53.9969 34.8754 53.3507 35.5558 52.7368 36.0462C52.121 36.5347 51.5052 36.8711 50.8894 37.0536C50.2736 37.2341 49.6292 37.3253 48.9583 37.3253C47.7818 37.3253 46.8296 36.9756 46.1016 36.2762C45.3737 35.5767 44.9403 34.6663 44.8016 33.5468C45.6968 32.8455 46.592 32.07 47.4891 31.2147C48.3843 30.3613 49.1959 29.487 49.9257 28.5899C49.4487 28.4512 48.9393 28.1224 48.3938 27.6035C47.8483 27.0865 47.2534 26.1134 46.6091 24.6841L46.6053 24.6898Z" fill="white"/>
<path d="M96.0206 16.6235V29.8501C95.7374 29.9338 95.2964 30.0174 94.6977 30.1029C94.0895 30.1866 93.4699 30.2284 92.8294 30.2284C92.1888 30.2284 91.6643 30.1866 91.1701 30.1029C90.6759 30.0193 90.2673 29.8501 89.9309 29.5993C89.5944 29.3465 89.3322 29.0006 89.1535 28.571C88.9653 28.1301 88.8798 27.5637 88.8798 26.8699V16.8344C88.8798 15.9943 88.6384 15.3861 88.1651 15.0079C87.6824 14.6297 87.0419 14.4415 86.2341 14.4415C85.8463 14.4415 85.4149 14.5251 84.9739 14.7152C84.5216 14.8939 84.1871 15.082 83.9666 15.2816C83.9989 15.3861 84.0084 15.4907 84.0084 15.5971V29.8539C83.7043 29.9376 83.2424 30.0212 82.6437 30.1067C82.045 30.1904 81.4368 30.2322 80.8172 30.2322C80.1976 30.2322 79.6407 30.1904 79.1579 30.1067C78.6638 30.0231 78.2551 29.8539 77.9187 29.6031C77.5823 29.3503 77.32 29.0044 77.1413 28.5748C76.9627 28.1339 76.8676 27.5675 76.8676 26.8737V16.8382C76.8676 15.9981 76.6053 15.3899 76.0903 15.0117C75.5657 14.6335 74.9461 14.4453 74.2219 14.4453C73.7182 14.4453 73.2868 14.5194 72.92 14.6772C72.5531 14.8235 72.2471 14.9718 71.9962 15.1181V29.8577C71.713 29.9414 71.2721 30.025 70.6734 30.1105C70.0652 30.1942 69.4456 30.236 68.805 30.236C68.1645 30.236 67.6399 30.1942 67.1458 30.1105C66.6516 30.0269 66.2429 29.8577 65.9065 29.6069C65.5701 29.3541 65.3078 29.0082 65.1292 28.5786C64.941 28.1377 64.8555 27.5713 64.8555 26.8775V14.1887C64.8555 13.4323 65.0132 12.824 65.3382 12.3831C65.6632 11.9307 66.1042 11.5126 66.6611 11.123C67.6057 10.4501 68.7917 9.90463 70.2096 9.48459C71.6275 9.06454 73.0967 8.85547 74.6401 8.85547C75.7843 8.85547 76.9189 9.01322 78.0213 9.33824C79.1237 9.65375 80.0797 10.1365 80.897 10.7865C81.7371 10.2201 82.6817 9.75828 83.7309 9.40096C84.7801 9.03413 86.0516 8.85547 87.5322 8.85547C88.4141 8.85547 89.2846 8.9505 90.1456 9.15007C90.3129 9.18238 90.4916 9.2242 90.6607 9.27551C91.6795 9.54921 92.5918 9.99016 93.3901 10.5984C94.1883 11.1971 94.8175 11.9954 95.3002 12.9913C95.5302 13.4646 95.6994 13.9891 95.8153 14.5669C95.9521 15.1961 96.0149 15.8784 96.0149 16.6254L96.0206 16.6235Z" fill="white"/>
<path d="M119.797 19.6464C119.797 17.7989 120.076 16.1967 120.637 14.8377C121.198 13.4806 121.973 12.3536 122.967 11.4583C123.961 10.5631 125.123 9.89791 126.453 9.46266C127.783 9.02931 129.217 8.81073 130.756 8.81073C131.317 8.81073 131.862 8.86015 132.394 8.95898C132.925 9.05782 133.36 9.17566 133.696 9.31631V2.51385C133.976 2.43022 134.422 2.33899 135.04 2.24205C135.656 2.14512 136.285 2.0957 136.929 2.0957C137.574 2.0957 138.098 2.13752 138.589 2.22115C139.079 2.30478 139.492 2.47203 139.828 2.72482C140.162 2.97761 140.415 3.31973 140.584 3.75498C140.752 4.18833 140.837 4.75472 140.837 5.45417V25.3598C140.837 26.675 140.221 27.7242 138.988 28.5092C138.176 29.0413 137.125 29.5089 135.838 29.9156C134.552 30.3205 133.067 30.5239 131.389 30.5239C129.568 30.5239 127.937 30.2711 126.497 29.7674C125.054 29.2637 123.836 28.5358 122.844 27.5835C121.85 26.6313 121.093 25.4909 120.576 24.1624C120.057 22.8338 119.799 21.3285 119.799 19.6483L119.797 19.6464ZM131.722 14.3968C130.211 14.3968 129.047 14.832 128.238 15.6987C127.424 16.5654 127.019 17.8826 127.019 19.6464C127.019 21.4102 127.398 22.6912 128.154 23.5731C128.911 24.4551 130.002 24.896 131.429 24.896C131.933 24.896 132.387 24.82 132.794 24.666C133.198 24.5121 133.514 24.3372 133.738 24.1414V14.9023C133.178 14.5678 132.507 14.3987 131.724 14.3987L131.722 14.3968Z" fill="white"/>
<path d="M142.184 3.77851C142.184 2.71604 142.541 1.81893 143.256 1.09098C143.968 0.363026 144.913 0 146.089 0C147.266 0 148.211 0.363026 148.923 1.09098C149.636 1.81893 149.995 2.71604 149.995 3.77851C149.995 4.84098 149.638 5.73809 148.923 6.46604C148.211 7.19399 147.264 7.55702 146.089 7.55702C144.915 7.55702 143.97 7.19399 143.256 6.46604C142.541 5.73809 142.184 4.84288 142.184 3.77851ZM149.659 29.8137C149.351 29.8708 148.897 29.9468 148.294 30.0456C147.692 30.1425 147.082 30.192 146.468 30.192C145.854 30.192 145.299 30.1502 144.808 30.0665C144.318 29.9829 143.906 29.8137 143.569 29.5628C143.233 29.3101 142.974 28.9679 142.792 28.5327C142.609 28.0993 142.52 27.5329 142.52 26.8316V9.74278C142.828 9.68766 143.282 9.60973 143.885 9.5128C144.487 9.41586 145.095 9.36645 145.711 9.36645C146.327 9.36645 146.88 9.40826 147.37 9.49189C147.859 9.57552 148.273 9.74278 148.61 9.99556C148.946 10.2484 149.205 10.5905 149.387 11.0257C149.568 11.4591 149.659 12.0255 149.659 12.7268V29.8175V29.8137Z" fill="white"/>
</svg>
