<svg width="246" height="35" viewBox="0 0 246 35" fill="none" xmlns="http://www.w3.org/2000/svg">
<path d="M103.664 26.457C98.9824 26.457 96 24.0402 96 17.3618C96 10.5543 99.5025 8.11897 103.664 8.11897H110.583C110.912 8.11897 111.138 8.46955 111.138 8.89379V10.7017C111.138 11.8087 110.583 12.5651 109.265 12.5651H104.306C101.531 12.5651 101.098 15.1111 101.098 17.2326C101.098 19.4649 101.531 22.0109 104.306 22.0109H110.739C111.034 22.0109 111.277 22.3615 111.277 22.7857V24.5937C111.277 25.7006 110.722 26.457 109.386 26.457H103.664Z" fill="white"/>
<path d="M124.562 22.0109V18.7086L119.29 19.8339C118.267 20.0554 117.851 20.3874 117.851 21.0516C117.851 21.6973 118.285 22.0109 119.152 22.0109H124.562ZM119.152 26.457C114.453 26.457 112.562 24.0772 112.562 21.0148C112.562 18.1366 114.158 16.4209 117.435 15.683L124.562 14.244V13.3401C124.562 12.8234 124.145 12.5651 123.296 12.5651H114.314C113.846 12.5651 113.603 12.3068 113.603 11.7719V10.0192C113.603 8.9122 114.123 8.11897 115.372 8.11897H123.452C126.14 8.11897 127.995 9.02304 129.001 10.8494C129.469 11.6981 129.694 12.6389 129.694 13.6905V24.5568C129.694 25.8297 129.105 26.457 127.908 26.457H119.152Z" fill="white"/>
<path d="M132.699 26.457C132.335 26.457 132.162 26.2725 132.162 25.8851V24.0218C132.162 22.7857 132.699 22.0109 133.965 22.0109H141.89C142.843 22.0109 143.156 21.6971 143.156 21.2361C143.156 20.6642 142.826 20.3504 141.786 20.1107L136.688 18.9115C133.48 18.1921 131.867 16.4394 131.867 13.6905C131.867 10.5543 133.965 8.11897 137.936 8.11897H146.832C147.317 8.11897 147.56 8.30347 147.56 8.67246V10.5543C147.56 11.7903 147.022 12.5651 145.774 12.5651H137.936C137.104 12.5651 136.878 12.8971 136.878 13.3399C136.878 13.8012 137.225 14.2256 138.248 14.4653L143.381 15.6645C146.589 16.4025 148.149 18.1182 148.149 21.1254C148.149 24.0218 146.311 26.457 141.595 26.457H132.699Z" fill="white"/>
<path d="M150.312 1.80946C150.312 0.554811 151.041 0.00150108 152.289 0.00150108H154.89C155.185 0.00150108 155.324 0.185997 155.324 0.554811V8.1188H160.526C166.04 8.1188 168.086 10.5172 168.086 15.1295V24.5568C168.086 25.8849 167.219 26.457 166.231 26.457H163.578C163.179 26.457 163.075 26.2539 163.075 25.885V15.3508C163.075 13.9118 162.139 12.5651 160.058 12.5651H155.324V24.5568C155.324 25.8849 154.699 26.457 153.659 26.457H151.041C150.555 26.457 150.312 26.2725 150.312 25.885V1.80946Z" fill="white"/>
<path d="M176.926 22.3184H181.573C184.33 22.3184 184.747 19.754 184.747 17.5401C184.747 15.4369 184.33 12.8726 181.573 12.8726H176.926V22.3184ZM172.557 26.7461C172.071 26.7461 171.828 26.5616 171.828 26.1742V2.09852C171.828 0.844051 172.557 0.290564 173.805 0.290564H176.406C176.753 0.290564 176.926 0.47506 176.926 0.844051V8.40804H182.163C186.342 8.40804 189.845 10.8433 189.845 17.6509C189.845 24.3294 186.879 26.7461 182.163 26.7461H172.557Z" fill="white"/>
<path d="M203.601 22.4796V19.1773L198.329 20.3027C197.306 20.5242 196.89 20.8562 196.89 21.5203C196.89 22.1661 197.324 22.4796 198.191 22.4796H203.601ZM198.191 26.9258C193.492 26.9258 191.602 24.5459 191.602 21.4835C191.602 18.6054 193.197 16.8897 196.474 16.1517L203.601 14.7127V13.8089C203.601 13.2922 203.185 13.0339 202.335 13.0339H193.353C192.885 13.0339 192.642 12.7755 192.642 12.2406V10.4879C192.642 9.38095 193.162 8.58772 194.411 8.58772H202.491C205.179 8.58772 207.034 9.49179 208.04 11.3182C208.508 12.1668 208.734 13.1077 208.734 14.1593V25.0256C208.734 26.2985 208.144 26.9258 206.947 26.9258H198.191Z" fill="white"/>
<path d="M218.555 26.7461C213.873 26.7461 210.891 24.3292 210.891 17.6509C210.891 10.8433 214.393 8.40804 218.555 8.40804H225.474C225.803 8.40804 226.029 8.75862 226.029 9.18285V10.9908C226.029 12.0978 225.474 12.8542 224.156 12.8542H219.196C216.422 12.8542 215.989 15.4001 215.989 17.5216C215.989 19.754 216.422 22.3 219.196 22.3H225.63C225.924 22.3 226.167 22.6505 226.167 23.0748V24.8827C226.167 25.9897 225.612 26.7461 224.277 26.7461H218.555Z" fill="white"/>
<path d="M245.36 8.40804C245.794 8.40804 246.002 8.57412 246.002 8.90628C246.002 9.05377 245.915 9.23827 245.724 9.44118L239.204 16.8391L244.666 25.3071C244.874 25.6207 244.978 25.8974 244.978 26.1004C244.978 26.4878 244.684 26.7461 244.146 26.7461H240.435C239.898 26.7461 239.621 26.5432 239.274 25.9713L233.326 16.7284L240.002 9.03536C240.349 8.61095 240.557 8.40804 241.129 8.40804H245.36ZM228.453 26.7461C228.089 26.7461 227.898 26.5616 227.898 26.1742V2.0987C227.898 0.844053 228.627 0.290564 229.875 0.290564H232.476C232.823 0.290564 232.997 0.47506 232.997 0.844051V24.8459C232.997 26.1742 232.268 26.7461 231.245 26.7461H228.453Z" fill="white"/>
<path d="M33.849 8.16177C32.8087 8.16177 32.1843 8.73367 32.1843 10.062V22.0537H27.4505C25.3697 22.0537 24.4334 20.707 24.4334 19.2678V8.73367C24.4334 8.36468 24.3293 8.16177 23.9304 8.16177H21.2775C20.2889 8.16177 19.4219 8.73367 19.4219 10.062V19.4893C19.4219 24.1014 21.4682 26.5 26.9822 26.5H35.3057C36.3634 26.5 37.1957 25.9465 37.1957 24.6366V8.73367C37.1957 8.34626 36.9529 8.16177 36.4674 8.16177H33.849Z" fill="white"/>
<mask id="mask0_4908_9670" style="mask-type:luminance" maskUnits="userSpaceOnUse" x="19" y="8" width="19" height="19">
<path d="M33.8646 8.15396C32.8243 8.15396 32.1999 8.72585 32.1999 10.0542V22.0459H27.4661C25.3854 22.0459 24.4491 20.6992 24.4491 19.26V8.72585C24.4491 8.35686 24.3449 8.15396 23.946 8.15396H21.2931C20.3045 8.15396 19.4375 8.72585 19.4375 10.0542V19.4815C19.4375 24.0936 21.4838 26.4922 26.9978 26.4922H35.3213C36.3791 26.4922 37.2113 25.9387 37.2113 24.6288V8.72585C37.2113 8.33845 36.9685 8.15396 36.4831 8.15396H33.8646Z" fill="white"/>
</mask>
<g mask="url(#mask0_4908_9670)">
<path d="M-38.7317 202.338L201.406 185.305L183.967 -93.0164L-56.1705 -75.9828L-38.7317 202.338Z" fill="white"/>
</g>
<path d="M41.5483 8.16947C40.5251 8.16947 39.7969 8.74137 39.7969 10.0697V34.0715C39.7969 34.4405 39.9703 34.625 40.3171 34.625H42.9181C44.1666 34.625 44.895 34.0715 44.895 32.817V26.5077H50.1317C54.3105 26.5077 57.8132 24.0723 57.8132 17.2647C57.8132 10.5863 54.8482 8.16947 50.1317 8.16947H41.5483ZM44.895 12.5972H49.5421C52.2992 12.5972 52.7152 15.1615 52.7152 17.3753C52.7152 19.4786 52.2992 22.043 49.5421 22.043H44.895V12.5972Z" fill="white"/>
<mask id="mask1_4908_9670" style="mask-type:luminance" maskUnits="userSpaceOnUse" x="39" y="8" width="19" height="27">
<path d="M41.5639 8.16166C40.5407 8.16166 39.8125 8.73355 39.8125 10.0619V34.0637C39.8125 34.4327 39.9859 34.6172 40.3327 34.6172H42.9337C44.1822 34.6172 44.9106 34.0637 44.9106 32.8092V26.4999H50.1473C54.3261 26.4999 57.8288 24.0644 57.8288 17.2569C57.8288 10.5785 54.8639 8.16166 50.1473 8.16166H41.5639ZM44.9106 12.5894H49.5577C52.3148 12.5894 52.7308 15.1537 52.7308 17.3675C52.7308 19.4708 52.3148 22.0352 49.5577 22.0352H44.9106V12.5894Z" fill="white"/>
</mask>
<g mask="url(#mask1_4908_9670)">
<path d="M-38.7395 202.409L201.398 185.375L183.96 -92.9461L-56.1783 -75.9125L-38.7395 202.409Z" fill="white"/>
</g>
<path d="M66.8703 8.16177C65.5524 8.16177 64.3386 8.4571 63.2464 9.04742C61.0268 10.2281 59.5703 12.811 59.5703 17.2938C59.5703 24.0645 62.3966 26.5 66.8703 26.5H73.373C74.6215 26.5 75.159 25.725 75.159 24.6366V22.8285C75.159 22.4043 74.9162 22.0537 74.6215 22.0537H67.3905C66.2289 22.0537 65.2404 21.5002 64.7723 20.1903L71.0841 18.7329C74.2053 18.0688 75.7833 16.4822 75.7833 13.6963C75.7833 10.597 73.7024 8.16177 69.8875 8.16177H66.8703ZM67.3905 12.6081H69.8875C70.5119 12.6081 70.9801 13.143 70.9801 13.5302C70.9801 13.8994 70.8586 14.7112 69.4888 15.08L64.5121 16.3161C64.5121 13.3645 66.0381 12.6081 67.3905 12.6081Z" fill="white"/>
<mask id="mask2_4908_9670" style="mask-type:luminance" maskUnits="userSpaceOnUse" x="59" y="8" width="17" height="19">
<path d="M66.8625 8.15396C65.5446 8.15396 64.3308 8.44929 63.2385 9.03961C61.019 10.2202 59.5625 12.8032 59.5625 17.286C59.5625 24.0567 62.3888 26.4922 66.8625 26.4922H73.3652C74.6137 26.4922 75.1512 25.7172 75.1512 24.6288V22.8207C75.1512 22.3964 74.9084 22.0459 74.6137 22.0459H67.3827C66.2211 22.0459 65.2326 21.4924 64.7644 20.1825L71.0763 18.7251C74.1975 18.061 75.7755 16.4743 75.7755 13.6885C75.7755 10.5892 73.6945 8.15396 69.8797 8.15396H66.8625ZM67.3827 12.6003H69.8797C70.5041 12.6003 70.9722 13.1352 70.9722 13.5224C70.9722 13.8916 70.8508 14.7034 69.481 15.0722L64.5043 16.3083C64.5043 13.3567 66.0302 12.6003 67.3827 12.6003Z" fill="white"/>
</mask>
<g mask="url(#mask2_4908_9670)">
<path d="M-38.7317 202.338L201.406 185.305L183.967 -93.0164L-56.1705 -75.9828L-38.7317 202.338Z" fill="white"/>
</g>
<path d="M84.8158 8.16177C83.4979 8.16177 82.2842 8.4571 81.1917 9.04742C78.9723 10.2281 77.5156 12.811 77.5156 17.2938C77.5156 24.0645 80.3421 26.5 84.8158 26.5H91.3183C92.5668 26.5 93.1045 25.725 93.1045 24.6366V22.8285C93.1045 22.4043 92.8617 22.0537 92.5668 22.0537H85.3362C84.1743 22.0537 83.1859 21.5002 82.7176 20.1903L89.0296 18.7329C92.1509 18.0688 93.7288 16.4822 93.7288 13.6963C93.7288 10.597 91.6478 8.16177 87.833 8.16177H84.8158ZM85.3362 12.6081H87.833C88.4574 12.6081 88.9256 13.143 88.9256 13.5302C88.9256 13.8994 88.8042 14.7112 87.4341 15.08L82.4575 16.3161C82.4575 13.3645 83.9834 12.6081 85.3362 12.6081Z" fill="white"/>
<mask id="mask3_4908_9670" style="mask-type:luminance" maskUnits="userSpaceOnUse" x="77" y="8" width="17" height="19">
<path d="M84.8002 8.15396C83.4823 8.15396 82.2686 8.44929 81.1761 9.03961C78.9567 10.2202 77.5 12.8032 77.5 17.286C77.5 24.0567 80.3265 26.4922 84.8002 26.4922H91.3027C92.5512 26.4922 93.0889 25.7172 93.0889 24.6288V22.8207C93.0889 22.3964 92.8461 22.0459 92.5512 22.0459H85.3206C84.1586 22.0459 83.1703 21.4924 82.702 20.1825L89.0139 18.7251C92.1353 18.061 93.7131 16.4743 93.7131 13.6885C93.7131 10.5892 91.6322 8.15396 87.8174 8.15396H84.8002ZM85.3206 12.6003H87.8174C88.4418 12.6003 88.9099 13.1352 88.9099 13.5224C88.9099 13.8916 88.7886 14.7034 87.4185 15.0722L82.4418 16.3083C82.4418 13.3567 83.9677 12.6003 85.3206 12.6003Z" fill="white"/>
</mask>
<g mask="url(#mask3_4908_9670)">
<path d="M-38.7317 202.338L201.406 185.305L183.967 -93.0164L-56.1705 -75.9828L-38.7317 202.338Z" fill="white"/>
</g>
<path d="M1.89037 1.00505C0.554508 1.00505 0 1.76126 0 2.86967V4.6771C0 5.1008 0.241967 5.4512 0.537704 5.4512L14.6088 5.47266C13.4829 2.26381 10.9893 1.00505 7.61188 1.00505H1.89037Z" fill="white"/>
<path d="M2.00638 14.8893C0.689002 14.8893 0.132812 15.6455 0.132812 16.7522V18.5596C0.132812 18.9851 0.359656 19.3355 0.689 19.3355L2.74572 19.3374L7.47248 26.7046C7.82031 27.2767 8.09756 27.4805 8.63526 27.4805H12.3454C12.8831 27.4805 13.1789 27.2194 13.1789 26.8333C13.1789 26.6315 13.0747 26.3542 12.8663 26.0413L8.51428 19.2961C11.1188 19.0584 13.3637 17.7533 14.4929 14.8661L2.00638 14.8893Z" fill="white"/>
<path d="M4.83954 8.04194C4.51019 8.04194 4.32031 8.39235 4.32031 8.81605V10.6235C4.32031 11.6693 4.79921 12.4271 5.96031 12.4845C6.00736 12.4863 6.05609 12.4883 6.10482 12.4883H15.8843C15.9331 12.4883 15.9818 12.4863 16.0288 12.4845C17.1899 12.4271 17.6688 11.6693 17.6688 10.6235V8.81605C17.6688 8.39235 17.4791 8.04194 17.1496 8.04194H4.83954Z" fill="white"/>
</svg>
